<svg xmlns="http://www.w3.org/2000/svg" xmlns:xlink="http://www.w3.org/1999/xlink" viewBox="0 0 3710 3710" xmlns:v="https://vecta.io/nano"><path d="M0 0h3710v3710H0z" fill="#fff"/><path d="M3179.458 1255.063c74.925-682.421-586.677-919.506-1055.702-744.778-472.83 176.146-582.448-115.848-1247.321-32.42-673.218 84.475-331.414 1141.258-331.414 1141.258s107.119 918.939 234.028 1342.518c126.221 421.288 1334.43 268.868 1628.345 256.296 292.224-12.5 546.15 11.627 800.397-450.944 253.781-461.727-103.01-831.771-28.333-1511.93z" fill="#f4f7fa"/><path d="M2172.705 1005.712l-51.794 3.494c-5.945-23.111-13.754-45.437-23.443-66.721l42.969-28.837c11.724-7.868 14.736-23.79 6.731-35.568l-50.117-73.737c-8.024-11.804-24.06-15.015-35.821-7.165l-43.545 29.062c-16.537-16.945-34.501-32.485-53.718-46.403l22.961-47.147c6.192-12.713.773-28.153-12.106-34.489l-80.69-39.705c-12.927-6.361-28.457-1.2-34.683 11.537l-23.122 47.298c-22.614-6.58-46.017-11.191-69.963-13.852l-4.025-53.042c-1.081-14.24-13.617-25.096-28.008-24.247l-90.191 5.319c-14.453.853-25.298 13.122-24.214 27.403l4.037 53.199c-23.487 5.552-46.179 12.991-67.825 22.309l-30.419-44.351c-8.202-11.961-24.616-15.245-36.665-7.334l-75.485 49.572c-12.094 7.942-15.221 24.097-6.979 36.076l30.521 44.36c-17.335 16.379-33.171 34.247-47.365 53.368l-48.837-23.592c-13.223-6.388-29.12-1.103-35.503 11.81l-39.957 80.843c-6.398 12.942-.831 28.598 12.429 34.961l48.479 23.268c-6.616 22.721-11.147 46.249-13.654 70.324l-53.677 3.621c-14.693.991-25.727 13.473-24.634 27.879l6.836 90.085c1.093 14.405 13.897 25.243 28.587 24.209l53.239-3.747c6.003 23.625 13.984 46.415 23.892 68.131l-43.798 29.232c-12.161 8.116-15.307 24.372-7.021 36.301l51.747 74.523c8.265 11.903 24.795 14.953 36.916 6.818l43.455-29.162c17.053 17.269 35.621 33.004 55.447 47.061l-22.712 46.459c-6.349 12.984-.814 28.543 12.352 34.743l82.184 38.706c13.119 6.178 28.865.674 35.177-12.285l22.414-46.024c23.189 6.422 47.167 10.754 71.656 13.064l3.86 50.874c1.084 14.282 13.668 24.937 28.099 23.799l90.055-7.105c14.37-1.134 25.137-13.597 24.056-27.837l-3.849-50.724c23.69-6.017 46.528-13.934 68.24-23.769l28.75 41.784c8.083 11.75 24.232 14.73 36.063 6.662l73.856-50.358c11.788-8.038 14.819-24.06 6.773-35.791l-28.831-42.036c17.074-16.659 32.661-34.748 46.539-54.089l46.084 22.119c12.824 6.155 28.208.779 34.367-12.003l38.463-79.843c6.144-12.753.759-28.096-12.031-34.275l-46.175-22.307c6.288-22.515 10.571-45.796 12.836-69.607l51.371-3.616a25.48 25.48 0 0 0 23.649-27.367l-6.7-88.299c-1.07-14.12-13.395-24.793-27.533-23.839zM1705.836 847.05c145.155-9.219 270.998 99.459 281.867 242.692s-97.256 268.042-242.292 278.83c-145.913 10.854-273.757-97.687-284.746-242.492s99.137-269.755 245.171-279.03z" opacity=".3" fill="#bfc8d6"/><defs><path id="A" d="M1966.863 2752.272c-156.261-210.359-87.3-535.702 36.431-591.128 64.355-28.829 116.895 27.294 179.442-11.771 69.299-43.282 39.058-133.569 97.146-293.684 30.013-82.728 84.439-232.745 189.838-259.458 104.524-26.49 154.967 94.695 269.003 72.41 107.829-21.072 103.707-137.433 246.752-200.155 13.306-5.834 163.816-69.668 247.261-.351 84.777 70.422 70.389 253.403-12.901 346.045-75.671 84.167-185.976 69.031-197.418 128.549-12.608 65.589 117.214 105.455 110.731 174.077-9.37 99.189-287.448 88.256-338.257 234.06-29.877 85.738 52.884 127.952 39.002 243.473-17.916 149.097-177.77 261.835-300.176 305.208-177.393 62.857-431.413 35.055-566.854-147.275z"/></defs><linearGradient id="B" gradientUnits="userSpaceOnUse" x1="2687.242" y1="2182.485" x2="5410.09" y2="2210.484"><stop offset="0" stop-color="#aa80f9"/><stop offset=".996" stop-color="#6165d7"/></linearGradient><use xlink:href="#A" fill="url(#B)"/><clipPath id="C"><use xlink:href="#A"/></clipPath><g clip-path="url(#C)" fill="#fff"><path d="M2028.097 2921.611l-7.07-4.36c168.804-273.752 343.267-522.292 518.548-738.717 140.257-173.178 281.351-326.306 419.364-455.128 235.19-219.527 382.011-293.329 383.467-294.05l3.682 7.445c-1.447.717-147.499 74.2-381.921 293.087-216.378 202.04-554.422 572.796-936.07 1191.723z"/><path d="M2937.133 1745.249c31.463-255.504 172.046-428.084 173.463-429.797l6.402 5.292c-1.403 1.695-140.466 172.522-171.62 425.521l-8.245-1.016zm-423.31 463.804c-54.024-275.186-39.18-453.799-17.213-555.179 23.928-110.426 60.346-154.915 61.884-156.755l6.376 5.325c-.367.44-36.908 45.293-60.337 154.095-21.646 100.533-36.191 277.719 17.442 550.914l-8.152 1.6zm-344.114 479.263c-200.158-447.557-125.7-726.885-124.926-729.653l7.998 2.24c-.194.695-19.277 73.159-12.063 201.691 6.355 113.18 35.207 295.673 136.571 522.331l-7.58 3.391zm485.184-519.594c-28.5-3.823-57.269-9.26-86.132-16.595l2.046-8.05c188.593 47.926 374.173 14.112 496.638-22.698 132.758-39.905 221.892-91.759 222.774-92.279l4.206 7.165c-.894.524-90.885 52.881-224.587 93.07-104.759 31.486-255.38 60.792-414.945 39.387zm-374.498 440.361a660.18 660.18 0 0 1-46.573-7.951l1.691-8.132c198.628 41.269 376.514-18.446 490.774-75.805 123.898-62.198 201.648-135.007 202.42-135.735l5.704 6.039c-.78.736-79.42 74.38-204.398 137.12-106.441 53.434-267.607 108.881-449.618 84.464z"/></g><defs><path id="D" d="M1299.46 2428.586c-259.141 38.92-513.783-174.998-504.481-310.255 4.838-70.351 79.08-90.309 74.035-163.881-5.59-81.513-99.488-97.305-213.447-223.893-58.88-65.405-165.652-184.01-139.637-289.583 25.8-104.696 156.467-92.194 190.453-203.306 32.136-105.063-72.482-156.171-60.53-311.905 1.112-14.486 15.594-177.331 116.02-218.352 102.027-41.677 256.723 57.106 299.286 174.188 38.669 106.372-26.583 196.585 20.554 234.684 51.945 41.984 148.201-53.818 205.704-15.813 83.117 54.934-57.358 295.171 47.398 408.602 61.6 66.701 137.787 13.532 233.193 80.131 123.136 85.955 147.412 280.052 128.097 408.471-27.992 186.106-172.033 397.177-396.645 430.912z"/></defs><linearGradient id="E" gradientUnits="userSpaceOnUse" x1="1198.125" y1="1567.253" x2="3514.046" y2="1591.067"><stop offset="0" stop-color="#ff9085"/><stop offset="1" stop-color="#fb6fbb"/></linearGradient><use xlink:href="#D" fill="url(#E)"/><clipPath id="F"><use xlink:href="#D"/></clipPath><g clip-path="url(#F)" fill="#fff"><path d="M1477.695 2454.221l-7.173 4.187c-162.146-277.748-299.381-548.627-407.894-805.119-86.828-205.24-155.57-401.786-204.313-584.178-83.064-310.817-79.113-475.096-79.064-476.719l8.302.253c-.047 1.614-3.919 165.064 78.942 474.902 76.483 285.989 244.604 758.715 611.2 1386.674z"/><path d="M867.33 1098.629C656.672 950.658 570.525 745.412 569.679 743.355l7.681-3.159c.836 2.036 86.151 205.116 294.744 351.635l-4.774 6.798zm210.113 591.742c-268.245-81.796-418.873-178.926-497.997-246.006-86.184-73.066-108.308-126.133-109.208-128.355l7.698-3.121c.216.531 22.603 53.878 107.589 125.74 78.528 66.399 228.037 162.595 494.341 243.798l-2.423 7.944zm261.014 529.13c-489.1-33.94-700.553-231.058-702.631-233.044l5.74-6.004c.522.499 55.487 51.43 172.3 105.534 102.862 47.64 277.471 108.039 525.166 125.229l-.575 8.285zm-230.233-672.588c-16.782 23.35-35.114 46.178-55.167 68.197l-6.141-5.593c131.018-143.87 188.49-323.537 213.625-448.92 27.247-135.922 23.424-238.971 23.38-239.994l8.301-.341c.041 1.035 3.904 105.078-23.536 241.966-21.501 107.256-66.504 253.954-160.462 384.685zm212.391 537.641c-9.061 12.607-18.686 25.065-28.928 37.356l-6.38-5.318c129.865-155.857 160.862-340.92 164.004-468.731 3.406-138.592-24.263-241.455-24.542-242.478l8.013-2.192c.282 1.035 28.27 105.075 24.834 244.875-2.928 119.065-29.824 287.366-137.001 436.488z"/></g><g fill="#bfc8d6"><path d="M3223.28 3028.467l-2624.454-22.685v67.122c0 18.219 11.447 33.709 26.95 36.47l742.117 132.176c8.807 1.569 17.739 1.985 26.626 1.24l1800.241-150.701c16.072-1.345 28.52-16.885 28.52-35.603v-28.019z"/><path d="M2257.477 2920.901L589.425 3043.693c-29.848 2.197-54.118-21.151-54.118-52.155V1749.387c0-31.004 24.269-56.138 54.118-56.138l59.011 34.012 1609.041-34.012c24.591 0 44.473 22.72 44.473 50.748v1122.882c.001 28.027-19.882 52.212-44.473 54.022z"/></g><path d="M2284.074 2920.901L616.023 3043.693c-29.849 2.197-54.118-21.151-54.118-52.155V1749.387c0-31.004 24.269-56.138 54.118-56.138h1668.052c24.592 0 44.473 22.72 44.473 50.748v1122.882c0 28.027-19.882 52.212-44.474 54.022z" fill="#fff"/><path d="M2232.11 2841.736L678.494 2948.397c-24.29 1.667-44.03-17.496-44.03-42.807V1818.086c0-25.311 19.739-45.915 44.03-46.02l1553.616-6.698c20.285-.088 36.694 18.53 36.694 41.584v990.522c0 23.054-16.408 42.87-36.694 44.262z" fill="#d8dee8"/><g fill="#fff"><path d="M1229.508 1874.128l-419.284 1.092-.062-39.976 419.286.136zm197.438-11.574l-96.859.17-.042-27.311 96.859.031zm.058 37.667l-96.858.451-.042-27.312 96.858-.249zm482.685-2.243l-375.767 1.746-.041-26.887 375.768-.965zm61.674 35.807l-372.029 2.805-.041-26.752 372.03-2.031zm.056 36.094l-372.027 3.88-.041-26.752 372.028-3.106zm.056 36.093l-372.026 4.956-.041-26.752 372.027-4.182zm-544.413-68.083l-96.857.73-.043-27.312 96.858-.529zm.058 37.667l-96.857 1.01-.042-27.312 96.857-.809zm.059 37.667l-96.857 1.29-.042-27.312 96.857-1.089zm.058 37.667l-96.856 1.57-.042-27.312 96.856-1.369zm259.543-4.208l-238.407 3.865-.042-27.066 238.408-3.369zm-259.485 41.875l-96.856 1.85-.042-27.312 96.856-1.648zm.058 37.667l-96.855 2.13-.042-27.312 96.855-1.928zm.058 37.667l-96.854 2.411-.043-27.312 96.856-2.209zm371.124-82.426l-264.324 5.049-.042-26.888 264.325-4.499zm137.377 33.573l-336.29 7.397-.042-26.752 336.292-6.697zm.056 36.197l-336.289 8.369-.041-26.752 336.29-7.669zm-508.498 50.323l-96.855 2.69-.042-27.311 96.855-2.489zm.058 37.667l-96.854 2.971-.042-27.312 96.854-2.769zm.058 37.667l-96.853 3.251-.043-27.312 96.854-3.049zm.058 37.667l-96.853 3.531-.042-27.312 96.854-3.329zm.059 37.667l-96.853 3.811-.042-27.312 96.853-3.609zm.058 37.668l-96.853 4.09-.042-27.312 96.853-3.889zm.058 37.667l-96.852 4.37-.042-27.312 96.852-4.169zm.058 37.667l-96.851 4.65-.042-27.312 96.851-4.449zm.058 37.667l-96.851 4.93-.042-27.312 96.852-4.729zm.059 37.667l-96.851 5.21-.042-27.312 96.851-5.009zm.058 37.667l-96.85 5.49-.042-27.311 96.85-5.29zm.058 37.667l-96.85 5.771-.042-27.312 96.85-5.569zm.058 37.667l-96.849 6.051-.042-27.312 96.849-5.849zm.058 37.667l-96.848 6.331-.043-27.312 96.85-6.129zm.059 37.667l-96.849 6.611-.042-27.312 96.849-6.409zm.058 37.667l-96.848 6.891-.042-27.312 96.848-6.689zm.058 37.667l-96.847 7.171-.043-27.312 96.848-6.969zm.058 37.667l-96.847 7.451-.042-27.312 96.847-7.249zm283.124-979.844l-264.159.464-.042-27.067 264.16.085zm199.228 761.356l-375.734 23.474-.042-26.888 375.735-22.692zm61.668 32.244l-371.996 24.316-.041-26.752 371.997-23.542zm.056 36.093l-371.994 25.392-.041-26.752 371.995-24.617zm160.357 24.688l-362.361 25.782-.041-26.398 362.362-25.028zm.055 35.63l-362.359 26.83-.041-26.398 362.36-26.076zm.055 35.63l-362.358 27.878-.04-26.399 362.358-27.123zm-420.28-188.757l-264.135 15.738-.042-27.068 264.136-15.188zm197.472-374.516l-375.752 11.524-.042-26.888 375.753-10.742zm61.671 34.204l-372.014 12.485-.041-26.752 372.015-11.711zm.056 36.093l-372.012 13.561-.041-26.752 372.013-12.786zm.056 36.094l-372.011 14.636-.041-26.752 372.012-13.862zm-284.684 48.119l-238.397 10.069-.042-27.066 238.398-9.573zm111.751 31.877l-264.314 11.927-.041-26.888 264.314-11.377zm137.371 30l-336.276 16.147-.042-26.752 336.278-15.447zm.056 36.197l-336.275 17.119-.041-26.752 336.276-16.419zm74.604 32.185l-332.227 17.875-.041-26.589 332.228-17.182zm.056 35.982l-332.226 18.834-.041-26.588 332.227-18.143zm-299.036-351.521l-264.148 7.337-.042-27.067 264.149-6.788zm-482.494-258.981l-239.987 1.724-.061-39.451 239.989-1.021zm-302.06 2.17l45.201-.325-.062-39.5-45.2.192zm302.147 53.53l-239.987 2.735-.061-39.451 239.988-2.032zm-302.059 3.442l45.2-.515-.061-39.5-45.2.382zm302.145 52.258l-239.985 3.745-.061-39.451 239.986-3.042zm-302.057 4.714l45.2-.705-.061-39.501-45.2.573zm302.668 390.658l-419.257 19.077-.061-39.976 419.258-17.849zm.093 60.544l-239.972 12.017-.061-39.451 239.973-11.314zm-302.04 15.126l45.197-2.264-.061-39.5-45.197 2.131zm302.126 40.573l-239.97 13.029-.061-39.451 239.972-12.325zm-302.038 16.399l45.197-2.454-.061-39.5-45.197 2.321zm302.125 39.301l-239.969 14.04-.061-39.451 239.97-13.337zm-302.037 17.671l45.197-2.644-.061-39.501-45.197 2.512zm301.246-528.909l-419.273 8.321-.061-39.976 419.274-7.092zm.094 60.544l-239.982 5.861-.061-39.451 239.983-5.158zm-302.052 7.377l45.199-1.104-.061-39.5-45.2.971zm302.138 48.323l-239.98 6.872-.061-39.451 239.981-6.169zm-302.05 8.649l45.198-1.294-.061-39.5-45.199 1.161zm302.223 103.474l-239.976 8.906-.061-39.45 239.977-8.204zm-302.046 11.21l45.198-1.677-.061-39.501-45.198 1.545zm302.132 44.49l-239.975 9.917-.061-39.451 239.977-9.214zm-302.044 12.482l45.198-1.868-.061-39.5-45.198 1.735zm301.871-124.605l-239.978 7.882-.061-39.451 239.979-7.179zm-302.048 9.921l45.198-1.484-.061-39.501-45.199 1.353zm302.658 385.054l-419.245 26.294-.061-39.977 419.247-25.064zm.094 60.544l-239.965 16.148-.061-39.451 239.966-15.445zm-302.032 20.325l45.196-3.042-.061-39.5-45.196 2.909zm302.118 35.375l-239.964 17.159-.061-39.451 239.965-16.456zm-302.03 21.597l45.196-3.232-.061-39.5-45.196 3.099zm302.116 34.103L991.04 2859.18l-.061-39.451 239.963-17.466zm-302.028 22.869l45.195-3.422-.061-39.501-45.195 3.29zm352.975-26.534l-9.234.699-1.55-1002.651 9.235.003zm227.01-1110.121c0 11.542-8.585 20.925-19.187 20.959-10.615.034-19.229-9.316-19.229-20.884s8.614-20.952 19.229-20.96c10.602-.008 19.187 9.342 19.187 20.885z"/><path d="M616.016 3043.694l1659.613-122.171 8.445-.622c11.283-.831 21.542-6.408 29.378-14.869-119.427-6.536-193.606-48.917-241.457-92.709-96.094-87.945-79.426-174.671-183.053-232.493-129.25-72.121-230.879 19.265-328.959-70.901-59.461-54.666-30.268-95.429-103.435-177.119-81.038-90.479-133.798-60.065-215.24-141.496-102.976-102.965-51.474-183.074-140.176-256.999-107.608-89.683-223.658-6.676-326.093-92.684-44.181-37.095-68.424-91.026-81.082-148.381h-77.936c-29.849 0-54.119 25.135-54.119 56.139V2991.54c.002 31 24.267 54.346 54.114 52.154z" opacity=".48"/></g><linearGradient id="G" gradientUnits="userSpaceOnUse" x1="598.826" y1="3047.822" x2="3223.28" y2="3047.822"><stop offset=".494" stop-color="#ebeff2"/><stop offset="1" stop-color="#fff"/></linearGradient><path d="M2362.666 2914.09l-1763.84 129.25 769.067 136.975c8.807 1.568 17.739 1.985 26.626 1.241l1828.761-153.089-832.557-113.499c-9.31-1.269-18.701-1.563-28.057-.878z" fill="url(#G)"/><path d="M856.198 3044.452l1468.449-109.208 454.472 61.457L1323.32 3113.44z" fill="#d8dee8"/><linearGradient id="H" gradientUnits="userSpaceOnUse" x1="2337.4" y1="572.908" x2="691.452" y2="3864.798"><stop offset=".004" stop-color="#e38ddd"/><stop offset="1" stop-color="#9571f6"/></linearGradient><path d="M2536.469 958.867l-1518.745-49.908c-50.928-1.674-92.388 38.501-92.388 89.74v1480.242c0 51.239 41.459 91.006 92.388 88.832l1518.746-64.851c43.928-1.876 79.401-41.742 79.401-89.052V1047.139c0-47.31-35.473-86.828-79.402-88.272z" fill="url(#H)"/><path d="M1017.724 2538.273c-34.641 1.433-62.804-25.639-62.804-60.471V999.548c0-34.831 28.162-62.18 62.803-61.088l1518.746 47.867c29.923.943 54.116 27.844 54.116 60.088v1368.428c0 32.244-24.193 59.383-54.115 60.62l-1518.746 62.81z" opacity=".74" fill="#fff"/><linearGradient id="I" gradientUnits="userSpaceOnUse" x1="1625.524" y1="470.103" x2="1911.513" y2="1614.064"><stop offset=".004" stop-color="#e38ddd"/><stop offset="1" stop-color="#9571f6"/></linearGradient><path d="M2536.469 958.867l-1518.746-49.908c-50.928-1.674-92.388 38.501-92.388 89.741v66.553l1690.536 43.335v-61.449c.001-47.311-35.472-86.828-79.402-88.272z" fill="url(#I)"/><path d="M1089.602 994.485c0 16.645-13.401 29.767-29.955 29.309-16.579-.459-30.037-14.362-30.037-31.052s13.458-29.811 30.037-29.307c16.554.504 29.955 14.406 29.955 31.05zm104.561 3.039c0 16.565-13.273 29.627-29.669 29.173-16.42-.454-29.75-14.289-29.75-30.9s13.33-29.67 29.75-29.171c16.396.5 29.669 14.333 29.669 30.898zm103.566 3.01c0 16.487-13.147 29.488-29.387 29.038-16.264-.45-29.467-14.217-29.467-30.748s13.203-29.531 29.467-29.036c16.24.494 29.387 14.259 29.387 30.746zm537.488 249.929l-802.191-14.418v47.166l802.191 12.694zm603.107 10.841v44.145l84.87 1.343v-43.963zM1202.62 1398.586l-169.594-1.806v-48.638l169.594 2.182zm906.015 9.647l-797.746-8.494v-48.022l797.746 10.263zm-632.405 74.67l-165.341-1.134v-48.023l165.341 1.501zm883.844 6.063l-778.273-5.339v-47.421l778.273 7.064zm-883.844 75.341l-165.341-.509v-48.022l165.341.875zm883.844 2.716l-778.273-2.392v-47.422l778.273 4.118zm-1157.454 78.883l-169.594.121v-48.639l169.594.255zm906.015-.647l-797.746.569v-48.022l797.746 1.199zm-632.405 81.854l-165.341.745v-48.022l165.341-.378zm883.844-3.978l-778.273 3.503v-47.421l778.273-1.778zm-883.844 85.382l-165.341 1.37v-48.022l165.341-1.004zm883.844-7.326l-778.273 6.451v-47.422l778.273-4.725zm-883.844 88.73l-165.341 1.996v-48.022l165.341-1.63zm883.844-10.673l-778.273 9.398v-47.422l778.273-7.672zm-614.52 87.804l-161.208 2.557v-47.416l161.208-2.2zm735.293-11.664l-632.344 10.031v-46.83l632.344-8.629zM1202.62 2058.104l-169.594 3.332v-48.638l169.594-2.956zm906.015-17.803l-797.746 15.675v-48.022l797.746-13.907zm-632.405 93.83l-165.341 3.875v-48.022l165.341-3.509zm883.844-20.715l-778.273 18.24v-47.421l778.273-16.515zm-883.844 102.118l-165.341 4.502v-48.023l165.341-4.134zm883.844-24.062l-778.273 21.188v-47.421l778.273-19.463zM1202.62 2305.423l-169.594 5.259v-48.638l169.594-4.883zm906.015-28.097l-797.746 24.739v-48.022l797.746-22.97zm-632.405 101.015l-165.341 5.754v-48.022l165.341-5.387zm883.844-30.756l-778.273 27.082v-47.421l778.273-25.357z" fill="#fff"/><g opacity=".5"><path d="M1946.123 1527.916c-177.387-258.117-484.423-175.993-678.655-461.184-35.029-51.433-58.797-103.767-75.1-152.033l-174.644-5.739c-50.929-1.673-92.388 38.502-92.388 89.741v1480.241c0 51.239 41.459 91.006 92.388 88.832l1463.123-62.476c-33.518-48.34-325.448-227.394-400.862-502.307-68.967-251.413-26.839-319.346-133.862-475.075z" fill="#fff"/></g><linearGradient id="J" gradientUnits="userSpaceOnUse" x1="2153.836" y1="1276.765" x2="2598.422" y2="2168.941"><stop offset="0" stop-color="#311944"/><stop offset="1" stop-color="#893976"/></linearGradient><path d="M2854.857 2078.852c0-154.173-142.212-274.53-311.595-269.022-96.461 3.137-180.386 46.622-232.79 110.815l-.02-.056c-.325.399-.628.814-.952 1.214l-2.668 3.403-4.768 6.268-2.718 3.767c-1.495 2.108-2.952 4.238-4.384 6.384l-2.443 3.692a260.02 260.02 0 0 0-4.638 7.521l-1.655 2.735c-1.989 3.427-3.896 6.897-5.723 10.406-.485.931-.927 1.882-1.401 2.819l-3.866 7.958-1.765 3.961c-1.046 2.369-2.06 4.751-3.032 7.152l-1.659 4.196a248.3 248.3 0 0 0-2.711 7.443l-1.357 3.917c-1.034 3.14-1.995 6.307-2.904 9.494l-.592 1.986c-1.06 3.844-2.019 7.724-2.893 11.631-.258 1.15-.469 2.314-.71 3.469-.585 2.802-1.138 5.612-1.627 8.444l-.688 4.34a239.54 239.54 0 0 0-1.081 7.893l-.504 4.455a245.23 245.23 0 0 0-.689 8.4l-.266 3.922c-.208 4.107-.337 8.232-.337 12.387 0 98.934 59.919 186.203 149.748 232.929 8.261 4.297 16.78 8.255 25.533 11.851 4.383 1.801 8.825 3.51 13.324 5.126 31.62 11.36 66.038 18.093 102.235 19.15h0 0 .002c4.988.146 9.948.169 14.886.098 1.667-.024 3.315-.117 4.977-.165l9.775-.38c1.982-.115 3.943-.294 5.916-.443l8.666-.731c2.105-.214 4.193-.481 6.286-.734l8.129-1.059 6.428-1.024 7.797-1.378 6.466-1.307 7.558-1.693 6.427-1.58 7.394-2.013 6.313-1.834 2.332-.677c-.018-.019-.034-.038-.051-.056 117.19-36.704 202.295-136.215 202.295-255.074z" fill="url(#J)"/><linearGradient id="K" gradientUnits="userSpaceOnUse" x1="2415.283" y1="1862.774" x2="2847.112" y2="2663.688"><stop offset="0" stop-color="#ff9085"/><stop offset="1" stop-color="#fb6fbb"/></linearGradient><path d="M2831.582 2078.89c0 153.776-141.487 274.303-310.022 269.38-162.256-4.74-289.421-124.831-289.421-268.389s127.165-264.069 289.421-269.345c168.535-5.481 310.022 114.578 310.022 268.354z" fill="url(#K)"/><path d="M2445.522 2153.371l-120.318-61.232v-19.72l120.318-69.67v33.565l-83.238 44.46 83.238 39.172v33.425zm127.992-177.803l-68.43 206.799-34.373-.35 67.888-205.978 34.915-.471zm25.435 144.843l87.933-40.131-87.933-44.987v-34.161l128.237 70.278v20.651l-128.237 62.369v-34.019z" fill="#fff"/><g opacity=".3"><linearGradient id="L" gradientUnits="userSpaceOnUse" x1="2296.694" y1="1916.001" x2="2716.203" y2="2757.855"><stop offset="0" stop-color="#ff9085"/><stop offset="1" stop-color="#fb6fbb"/></linearGradient><path d="M2594.856 2281.35c-36.572-80.515.402-154.916-48.977-206.557-49.6-51.872-113.218-3.384-180.653-44.892-25.789-15.874-54.281-46.246-75.336-108.892-36.321 44.588-57.752 99.574-57.752 158.872 0 143.558 127.165 263.649 289.421 268.389 38.042 1.111 74.744-4.192 108.805-14.892-16.828-17.538-27.933-35.352-35.508-52.028z" fill="url(#L)"/></g><linearGradient id="M" gradientUnits="userSpaceOnUse" x1="1458.675" y1="1431.347" x2="1139.976" y2="2959.349"><stop offset="0" stop-color="#aa80f9"/><stop offset=".996" stop-color="#6165d7"/></linearGradient><path d="M1529.813 1869.408c27.727-29.603-49.031-140.819-90.115-189.551-35.891-42.574-72.781-86.333-118.081-80.792-39.773 4.864-78.474 46.808-80.792 87.007-6.238 108.143 249.571 225.422 288.988 183.336z" fill="url(#M)"/><linearGradient id="N" gradientUnits="userSpaceOnUse" x1="-4481.676" y1="3193.81" x2="-4386.232" y2="3193.81" gradientTransform="matrix(-0.9996 0.0289 0.0289 0.9996 -3287.0679 -31.2392)"><stop offset="0" stop-color="#444b8c"/><stop offset=".996" stop-color="#26264f"/></linearGradient><path d="M1196.902 3012.248c-5.219 4.242-6.179 14.837-6.806 21.763-.282 3.094-.421 4.641-.076 5.733 2.522 7.97 17.98 8.809 42.219 11.286 38.306 3.914 49.705 6.928 52.703 1.228 2.81-5.342-3.989-14.089-4.755-15.053-4.116-5.185-9.168-7.071-18.935-10.285-18.072-5.949-30.283-9.206-33.98-10.192-23.085-6.164-26.942-7.266-30.37-4.48z" fill="url(#N)"/><linearGradient id="O" gradientUnits="userSpaceOnUse" x1="1223.517" y1="3001.654" x2="1189.299" y2="3001.654"><stop offset="0" stop-color="#ffc444"/><stop offset=".996" stop-color="#f36f56"/></linearGradient><path d="M1219.683 2977.253l3.833 43.651c-1.088 2.108-14.063 8.431-24.369 3.009l-9.849-42.907 30.385-3.753z" fill="url(#O)"/><linearGradient id="P" gradientUnits="userSpaceOnUse" x1="-3841.086" y1="4493.56" x2="-3739.682" y2="4493.56" gradientTransform="matrix(-0.9642 0.2651 0.2651 0.9642 -3299.8931 -308.9189)"><stop offset="0" stop-color="#444b8c"/><stop offset=".996" stop-color="#26264f"/></linearGradient><path d="M1500.693 3006.638c-6.255 6.908-7.68 19.629-2.242 25.896 5.347 6.161 13.387 1.54 36.189 2.221 24.425.73 30.803 6.499 47.401 1.919 6.705-1.854 18.548-6.349 18.324-11.138-.158-3.367-6.187-5.106-26.325-11.853-28.585-9.575-28.459-10.098-34.529-11.104-15.247-2.526-30.556-5.062-38.818 4.059z" fill="url(#P)"/><linearGradient id="Q" gradientUnits="userSpaceOnUse" x1="1528.593" y1="2990.357" x2="1486.331" y2="2990.357"><stop offset="0" stop-color="#ffc444"/><stop offset=".996" stop-color="#f36f56"/></linearGradient><path d="M1516.343 2966.801l12.251 40.75c-.926 2.186-13.38 9.478-24.068 4.859l-18.194-39.552 30.011-6.057z" fill="url(#Q)"/><g fill="#26264f"><path d="M1407.494 2074.308a3817.36 3817.36 0 0 0 33.525 458.235c22.162 165.347 53.22 314.746 87.099 446.121l-46.89 12.616c-39.655-36.975-89.678-95.181-113.816-177.435-14.981-51.052-9.988-77.285-19.491-140.078-15.13-99.98-45.778-152.36-77.454-232.984-28.465-72.448-62.111-178.773-80.152-320.896l217.179-45.579z"/><path d="M1266.405 2061.24l-23.397 532.166-9.945 401.288-47.899 5.913c-15.427-28.723-35.918-72.637-49.955-128.922-17.049-68.359-13.101-108.955-20.578-179.803-8.389-79.463-20.574-96.775-42.159-197.016-43.811-203.436-65.717-305.155-16.845-368.429 15.865-20.542 65.599-72.07 210.778-65.197z"/></g><linearGradient id="R" gradientUnits="userSpaceOnUse" x1="1348.325" y1="1408.33" x2="1029.627" y2="2936.33"><stop offset="0" stop-color="#aa80f9"/><stop offset=".996" stop-color="#6165d7"/></linearGradient><path d="M1033.715 1623.478c37.391-10.514 92.189-22.811 159.3-26.604 95.718-5.41 143.578-8.115 177.492 14.679 78.33 52.646 17.687 174.154 49.75 475.36 4.579 43.014 5.606 86.335 8.922 129.465 5.491 71.411 6.741 75.288 1.772 82.525-31.159 45.377-147.409-23.067-317.797 3.988-95.336 15.138-138.574 50.014-164.692 24.859-30.46-29.335-4.332-108.238 18.159-176.161 25.817-77.966 41.765-78.969 56.419-137.687 15.317-61.372 6.052-92.972 3.667-189.752-1.141-46.308-.899-115.224 7.008-200.672z" fill="url(#R)"/><linearGradient id="S" gradientUnits="userSpaceOnUse" x1="1074.247" y1="2715.131" x2="1195.2" y2="2140.606"><stop offset="0" stop-color="#aa80f9"/><stop offset=".996" stop-color="#6165d7"/></linearGradient><path d="M1265.417 2188.953c-44.534-3.485-73.425 21.693-111.867 2.072-52.714-26.906-69.651-110.621-66.292-169.871 5.104-90.023 56.508-113.752 47.647-171.943-4.792-31.469-27.26-73.249-107.928-115.934-1.076 35.925-.871 66.547-.272 90.874 2.385 96.78 11.65 128.38-3.667 189.752-14.654 58.717-30.602 59.721-56.419 137.687-22.491 67.923-48.618 146.826-18.159 176.161 26.119 25.155 69.357-9.721 164.692-24.859 146.816-23.312 253.378 24.218 300.002 8.803-56.337-93.101-107.438-119.589-147.737-122.742z" fill="url(#S)"/><linearGradient id="T" gradientUnits="userSpaceOnUse" x1="1130.004" y1="1362.795" x2="811.306" y2="2890.795"><stop offset="0" stop-color="#aa80f9"/><stop offset=".996" stop-color="#6165d7"/></linearGradient><path d="M1094.461 1629.658c-31.805-26.134-95.759 3.449-112.854 11.356-95.334 44.098-180.93 162.928-159.722 288.508 3.18 18.835 17.93 106.927 92.524 149.611 67.307 38.514 158.191 28.609 231.008-25.94l29.856-26.49 29.372-31.748c-15.39-12.801-41.539-31.268-78.263-43.119-48.418-15.624-83.668 12.411-106.133-8.903-15.504-14.709-15.539-40.689-11.71-56.435 7.717-31.735 35.691-40.659 59.041-63.184 54.857-52.918 64.963-162.364 26.881-193.656z" fill="url(#T)"/><linearGradient id="U" gradientUnits="userSpaceOnUse" x1="1401.711" y1="2215.873" x2="1350.14" y2="2069.754"><stop offset="0" stop-color="#311944"/><stop offset="1" stop-color="#893976"/></linearGradient><path d="M1551.541 2039.622l-426.318-6.364 113.365 54.711 314.043-20.553z" fill="url(#U)"/><linearGradient id="V" gradientUnits="userSpaceOnUse" x1="1176.419" y1="2004.169" x2="1195.329" y2="2134.816"><stop offset="0" stop-color="#311944"/><stop offset="1" stop-color="#893976"/></linearGradient><path d="M1110.178 2044.587v.002c0 7.978 4.992 15.104 12.49 17.831l136.223 53.404.621-37.024-134.288-45.542c-7.537-2.166-15.046 3.49-15.046 11.329z" fill="url(#V)"/><linearGradient id="W" gradientUnits="userSpaceOnUse" x1="1282.4" y1="2024.677" x2="1175.529" y2="2024.677"><stop offset="0" stop-color="#ffc444"/><stop offset=".996" stop-color="#f36f56"/></linearGradient><path d="M1175.823 2019.362c-2.616-.584 12.746-31.195 24.808-27.663s71.046 37.719 76.407 51.795l5.362 14.075s-25.731 2.011-41.688-3.35-43.613-30.113-64.889-34.857z" fill="url(#W)"/><linearGradient id="X" gradientUnits="userSpaceOnUse" x1="1201.927" y1="1563.934" x2="1205.714" y2="1827.187"><stop offset="0" stop-color="#ffc444"/><stop offset=".996" stop-color="#f36f56"/></linearGradient><path d="M1200.162 1492.298c.238 28.377-2.928 50.882-5.923 66.294-3.43 17.659-5.903 22.22-9.058 25.922-4.749 5.572-11.946 10.246-52.609 20.33-22.128 5.485-24.974 5.336-25.464 7.532-2.383 10.712 57.955 47.221 120.293 38.422 38.152-5.385 72.864-27.151 70.734-38.581-2.145-11.503-40.254-5.331-51.612-26.141-7.902-14.477.956-35.03 11.425-52.051-10.141-19.001-47.647-22.728-57.786-41.727z" fill="url(#X)"/><path d="M1270.973 1503.517c9.004-11.961 9.559-32.842-.815-46.041-8.928-11.358-22.978-12.977-31.389-13.95-24.374-2.814-55.127 7.361-65.824 29.794-6.338 13.294 7.373 40.917 9.519 45.883 2.432 5.615 6.839 7.541 10.918 11.787l28.94 30.908c1.122-4.62 2.829-10.34 5.539-16.539 1.043-2.387 5.234-11.706 11.574-19.434 12.702-15.493 23.002-11.073 31.538-22.408z" fill="#26264f"/><linearGradient id="Y" gradientUnits="userSpaceOnUse" x1="1231.573" y1="1505.002" x2="1217.104" y2="1645.495"><stop offset="0" stop-color="#ffc444"/><stop offset=".996" stop-color="#f36f56"/></linearGradient><path d="M1201.722 1548.73s16.023 26.287 47.926 24.212c28.563-1.86 32.747-65.915 14.503-79.507-6.087-4.534-18.277-6.417-28.188-3.64-5.854 1.641-7.837 4.073-17.454 6.567-8.872 2.303-11.377 1.319-14.055 3.571-3.349 2.82-5.803 9.731-.209 28.456-5.45-5.517-11.991-7.635-16.626-5.447-.738.351-2.7 1.684-3.804 3.706-3.996 7.316 2.687 16.66 17.907 22.082z" fill="url(#Y)"/><path d="M1203.161 1496.101c1.377 1.027-2.834 6.167-3.147 13.44-.612 14.119 13.681 31.068 28.26 32.505 8.62.849 10.989-4.346 25.239-5.852 8.822-.932 16.166.19 20.786 1.2 4.478 15.486.264 30.925-10.086 38.088-11.143 7.712-25.378 3.034-31.329 1.077-3.981-1.309-16.739-5.476-23.407-17.175-6.947-12.192-.129-19.541-8.099-27.786-4.02-4.16-9.301-5.961-14.441-14.013a39.74 39.74 0 0 1-2.897-5.425c7.367-7.81 17.126-17.546 19.121-16.059z" fill="#26264f"/><path d="M1248.282 1550.232s6.169-3.223 16.829-2.624c.518.03 1.091-.123 1.157-.391.245-1.011-6.594-5.545-12.896-3.775-4.474 1.259-7.955 5.494-7.353 6.573.255.454 1.267.394 2.263.217z" fill="#fff"/><linearGradient id="Z" gradientUnits="userSpaceOnUse" x1="1551.101" y1="2015.612" x2="1450.556" y2="1872.838"><stop offset="0" stop-color="#444b8c"/><stop offset=".996" stop-color="#26264f"/></linearGradient><path d="M1270.821 1819.028l-30.051 273.609c-1.037 9.441 12.18 23.506 21.667 23.057l440.835-27.063c7.244-.344 13.276-5.675 14.502-12.823l55.331-264.259c1.651-9.616-15.636-19.549-25.39-19.276l-461.968 12.99c-7.714.219-14.085 6.092-14.926 13.765z" fill="url(#Z)"/><linearGradient id="a" gradientUnits="userSpaceOnUse" x1="1358.238" y1="2251.901" x2="1578.276" y2="1804.948"><stop offset="0" stop-color="#311944"/><stop offset="1" stop-color="#893976"/></linearGradient><path d="M1280.896 1827.005l-30.051 273.612c-1.036 9.441 6.607 17.574 16.094 17.127l446.411-21.134c7.243-.344 13.274-5.675 14.501-12.822l45.608-265.467c1.652-9.619-5.912-18.342-15.666-18.067l-461.969 12.99a15.45 15.45 0 0 0-14.928 13.761z" fill="url(#a)"/><linearGradient id="b" gradientUnits="userSpaceOnUse" x1="1250.751" y1="1965.032" x2="1734.145" y2="1965.032"><stop offset="0" stop-color="#311944"/><stop offset="1" stop-color="#893976"/></linearGradient><path d="M1543.028 2032.495c-38.979-16.521-25.221-48.025-71.25-87.282-60.723-51.789-122.616-29.329-144.284-69.47-6.747-12.503-9.97-31.956 1.783-63.441l-33.453.941c-7.714.215-14.087 6.091-14.928 13.762l-30.051 273.612c-1.035 9.439 6.609 17.574 16.094 17.127l446.411-21.134c7.243-.344 13.274-5.674 14.501-12.822l6.294-36.632c-13.545-7.538-29.73-14.391-48.616-18.223-65.493-13.284-97.625 22.582-142.501 3.562z" opacity=".3" fill="url(#b)"/><linearGradient id="c" gradientUnits="userSpaceOnUse" x1="1741.654" y1="2079.344" x2="1669.555" y2="2079.344"><stop offset="0" stop-color="#ffc444"/><stop offset=".996" stop-color="#f36f56"/></linearGradient><path d="M1741.473 2058.34c.726-2.204-.813-4.475-3.131-4.593-9.435-.481-31.317-.677-43.397 6.721-15.693 9.612-35.984 27.153-18.896 36.003l15.956 8.266c.733.38 1.531.498 2.335.322 5.67-1.247 29.533-6.541 32.143-7.855 2.375-1.196 11.474-28.197 14.99-38.864z" fill="url(#c)"/><linearGradient id="d" gradientUnits="userSpaceOnUse" x1="1920.197" y1="-163.442" x2="2653.247" y2="1307.615"><stop offset="0" stop-color="#ffc444"/><stop offset=".996" stop-color="#f36f56"/></linearGradient><path d="M3076.07 1159.072c0-254.206-234.484-452.656-513.771-443.574-159.05 5.172-297.429 76.872-383.834 182.717l-.032-.092c-.536.658-1.037 1.342-1.57 2.002l-4.4 5.61-7.862 10.335-4.481 6.211a447.65 447.65 0 0 0-7.228 10.525l-4.028 6.088c-2.63 4.089-5.162 8.233-7.648 12.401l-2.729 4.51c-3.279 5.651-6.425 11.371-9.436 17.158-.799 1.535-1.529 3.103-2.309 4.647l-6.374 13.121-2.91 6.532-5 11.793-2.736 6.919c-1.56 4.063-3.039 8.157-4.469 12.271l-2.238 6.459a407.49 407.49 0 0 0-4.787 15.654l-.977 3.275c-1.748 6.338-3.329 12.736-4.77 19.177-.426 1.896-.774 3.815-1.17 5.72-.965 4.62-1.877 9.254-2.682 13.923l-1.135 7.156a396.71 396.71 0 0 0-1.783 13.014l-.832 7.346c-.468 4.595-.826 9.216-1.137 13.851l-.438 6.467c-.343 6.772-.555 13.574-.555 20.424 0 163.126 98.797 307.02 246.911 384.063 13.622 7.085 27.667 13.611 42.1 19.54 7.226 2.969 14.551 5.788 21.97 8.453 52.137 18.731 108.886 29.832 168.569 31.576h0 0c8.226.24 16.405.278 24.548.161 2.75-.039 5.466-.193 8.206-.272l16.117-.626c3.268-.19 6.501-.484 9.755-.731l14.288-1.206 10.365-1.211 13.404-1.747 10.598-1.688 12.856-2.273 10.662-2.155 12.463-2.792 10.597-2.605 12.191-3.319 10.409-3.024 3.845-1.117c-.029-.031-.055-.062-.085-.093 193.227-60.516 333.552-224.594 333.552-420.574z" fill="url(#d)"/><linearGradient id="e" gradientUnits="userSpaceOnUse" x1="2351.282" y1="802.794" x2="3063.298" y2="2123.375"><stop offset="0" stop-color="#ffc444"/><stop offset=".996" stop-color="#f36f56"/></linearGradient><path d="M3037.692 1159.135c0 253.552-233.29 452.282-511.177 444.165-267.535-7.815-477.21-205.827-477.21-442.531s209.675-435.409 477.21-444.108c277.887-9.037 511.177 188.922 511.177 442.474z" fill="url(#e)"/><path d="M2331.142 1394.863c-16.339-.282-30.539-2.307-42.616-6.071v-62.571c12.387 3.376 23.713 5.126 33.974 5.246 15.893.185 27.296-4.844 34.179-15.096 6.892-10.265 10.341-26.391 10.341-48.371V933.424l73.4-1.731v336.256c0 41.95-9.287 73.789-27.814 95.463-18.468 21.604-45.664 32.069-81.464 31.451zm467.329-145.321c0 39.044-14.033 69.663-41.999 91.779-27.833 22.01-66.328 32.609-115.294 31.878-44.741-.668-84.033-9.759-117.984-27.18v-83.19c27.893 12.893 51.611 22.043 71.1 27.418 19.555 5.393 37.493 8.165 53.798 8.304 19.635.167 34.736-3.513 45.289-11.048 10.572-7.549 15.854-18.856 15.854-33.932 0-8.408-2.33-15.901-6.987-22.474s-11.482-12.884-20.477-18.943c-8.981-6.05-27.232-15.7-54.685-28.911-25.608-12.177-44.735-23.846-57.444-35.008-12.681-11.138-22.806-24.107-30.348-38.913-7.531-14.786-11.304-32.09-11.304-51.926 0-37.381 12.395-66.979 37.246-88.887 24.958-22.002 59.655-33.548 104.225-34.569 22.03-.505 43.124 1.654 63.271 6.491 20.216 4.854 41.428 11.876 63.668 21.06l-29.494 71.692c-22.903-9.095-41.774-15.382-56.652-18.861-14.84-3.47-29.395-5.095-43.685-4.86-16.934.278-29.894 4.471-38.908 12.59-9 8.106-13.485 18.55-13.485 31.36 0 7.965 1.822 14.869 5.448 20.757s9.433 11.558 17.38 17.022c7.958 5.472 26.86 15.286 56.812 29.513 39.836 18.953 67.314 38.123 82.218 57.449 14.941 19.375 22.437 43.184 22.437 71.389z" fill="#fff"/><g opacity=".2"><linearGradient id="f" gradientUnits="userSpaceOnUse" x1="2155.746" y1="890.556" x2="2847.45" y2="2278.64"><stop offset="0" stop-color="#ffc444"/><stop offset=".996" stop-color="#f36f56"/></linearGradient><path d="M2647.368 1492.959c-60.301-132.757.664-255.432-80.756-340.58-81.783-85.528-186.678-5.58-297.868-74.02-42.522-26.173-89.501-76.253-124.217-179.546-59.887 73.519-95.224 164.181-95.224 261.955 0 236.704 209.675 434.716 477.21 442.531 62.725 1.832 123.24-6.913 179.403-24.554-27.747-28.918-46.058-58.289-58.548-85.786z" fill="url(#f)"/></g></svg>