<svg xmlns="http://www.w3.org/2000/svg" viewBox="0 0 590 392" xmlns:v="https://vecta.io/nano"><style><![CDATA[.J{fill:#efefef}.K{fill:#88ce02}.L{enable-background:new}]]></style><path d="M202.01 223.69c0-.61.26-.87.87-.87h9.65c.35 0 .52.26.52.87v.43c0 .61-.17.87-.52.87h-8.08v6.34h7.21c.35 0 .52.26.52.87v.43c0 .61-.17.87-.52.87h-7.21v6.78h8.08c.35 0 .52.26.52.87v.43c0 .61-.17.87-.52.87h-9.73c-.61 0-.87-.26-.87-.87v-17.9l.08.01zm14.69 18.08l.09-9.82v-.32c-.03-2.04-.35-3.07-.35-3.15 0-.52 1.13-.61 1.48-.61.7 0 .78 1.13.96 1.82 1.13-1.3 2.78-2.09 4.35-2.09 2.87 0 4.52 1.65 4.52 4.52v9.65c0 .35-.35.61-1.13.61h-.09c-.78 0-1.13-.26-1.13-.61v-9.39c0-1.65-1.04-2.69-2.87-2.69-1.22 0-2.61.78-3.48 1.91v10.17c0 .35-.35.61-1.13.61h-.09c-.78-.01-1.13-.27-1.13-.61zm17.21-.61c-1.04-.43-1.74-1.13-1.74-2.26 0-1.39 1.13-2 2.09-2.35-1.65-.78-2.52-2.35-2.52-4.17 0-2.61 1.91-4.78 5.56-4.78.7 0 1.3.09 1.82.17h4.78c.35 0 .52.26.52.87v.35c0 .61-.17.87-.52.87h-1.91c.61.78.96 1.65.96 2.61 0 2.61-1.91 4.78-5.56 4.78h-.26c-.7 0-2.35.17-2.35 1.13 0 2.17 9.39 0 9.39 5.47 0 2.43-2.43 4.35-6.95 4.35h-.31c-3.49-.04-5.95-.86-5.95-3.65-.18-1.65 1.12-2.78 2.95-3.39zm3.48 4.95c2.52 0 4.17-.96 4.17-2.26 0-1.65-2.95-1.82-5.56-2.26-1.13.43-2.78 1.39-2.78 2.61-.01 1.56 1.91 1.91 4.17 1.91zm3.04-13.73c0-2.13-1.34-2.76-3.03-2.78h-.1c-1.74 0-3.13.7-3.13 2.78 0 2.17 1.39 2.78 3.13 2.78h.19c1.65-.05 2.94-.69 2.94-2.78zm15.12.87v-1.3c0-1.22-.78-2.35-3.04-2.35-2.52 0-4.08 1.13-4.35 1.13-.35 0-.96-1.04-.96-1.39 0-.7 2.43-1.74 5.21-1.74 3.48 0 5.48 1.65 5.48 4.35v6.17c0 2.26.35 3.39.35 3.48 0 .52-1.13.61-1.48.61-.7 0-.78-1.13-.96-1.91-1.04 1.13-2.61 2.09-4.69 2.09-2.69 0-4.78-1.3-4.78-4.17.01-4.62 5.05-4.97 9.22-4.97zm-4.35 7.13c2 0 3.22-.96 4.35-1.91v-3.3h-.57c-2.78.01-6.12.19-6.12 2.87 0 1.55.78 2.34 2.34 2.34zm13.04.78c-1.04-.43-1.74-1.13-1.74-2.26 0-1.39 1.13-2 2.09-2.35-1.65-.78-2.52-2.35-2.52-4.17 0-2.61 1.91-4.78 5.56-4.78.7 0 1.3.09 1.82.17h4.78c.35 0 .52.26.52.87v.35c0 .61-.17.87-.52.87h-1.91c.61.78.96 1.65.96 2.61 0 2.61-1.91 4.78-5.56 4.78h-.26c-.7 0-2.35.17-2.35 1.13 0 2.17 9.39 0 9.39 5.47 0 2.43-2.43 4.35-6.95 4.35h-.31c-3.49-.04-5.95-.86-5.95-3.65-.18-1.65 1.04-2.78 2.95-3.39zm3.39 4.95c2.52 0 4.17-.96 4.17-2.26 0-1.65-2.96-1.82-5.56-2.26-1.13.43-2.78 1.39-2.78 2.61 0 1.56 1.91 1.91 4.17 1.91zm3.04-13.73c0-2.13-1.34-2.76-3.03-2.78h-.1c-1.74 0-3.13.7-3.13 2.78 0 2.17 1.39 2.78 3.13 2.78h.19c1.65-.05 2.94-.69 2.94-2.78zm7.04-8.69v-1.65c0-.35.35-.61 1.13-.61h.35c.78 0 1.13.26 1.13.61v1.65c0 .35-.35.61-1.13.61h-.35c-.78 0-1.13-.26-1.13-.61zm.09 4.61c0-.35.35-.61 1.13-.61h.09c.78 0 1.13.26 1.13.61v13.38c0 .35-.35.61-1.13.61h-.09c-.78 0-1.13-.26-1.13-.61V228.3zm7.21 3.65c0-2.26-.35-3.39-.35-3.48 0-.52 1.13-.61 1.48-.61.7 0 .78 1.13.96 1.82 1.13-1.3 2.78-2.09 4.35-2.09 2.87 0 4.52 1.65 4.52 4.52v9.65c0 .35-.35.61-1.13.61h-.09c-.78 0-1.13-.26-1.13-.61v-9.39c0-1.65-1.04-2.69-2.87-2.69-1.22 0-2.61.78-3.48 1.91v10.17c0 .35-.35.61-1.13.61h-.09c-.78 0-1.13-.26-1.13-.61l.09-9.81zm17.12 9.21c-1.04-.43-1.74-1.13-1.74-2.26 0-1.39 1.13-2 2.09-2.35-1.65-.78-2.52-2.35-2.52-4.17 0-2.61 1.91-4.78 5.56-4.78.7 0 1.3.09 1.82.17h4.78c.35 0 .52.26.52.87v.35c0 .61-.17.87-.52.87h-2c.61.78.96 1.65.96 2.61 0 2.61-1.91 4.78-5.56 4.78h-.26c-.7 0-2.35.17-2.35 1.13 0 2.17 9.39 0 9.39 5.47 0 2.43-2.43 4.35-6.95 4.35h-.31c-3.49-.04-5.95-.86-5.95-3.65-.09-1.65 1.22-2.78 3.04-3.39zm3.48 4.95c2.52 0 4.17-.96 4.17-2.26 0-1.65-2.95-1.82-5.56-2.26-1.13.43-2.78 1.39-2.78 2.61 0 1.56 1.82 1.91 4.17 1.91zm3.04-13.73c0-2.13-1.34-2.76-3.03-2.78h-.1c-1.74 0-3.13.7-3.13 2.78 0 2.17 1.39 2.78 3.13 2.78h.19c1.65-.05 2.94-.69 2.94-2.78zm14.16-2.61h-1.39c-.35 0-.52-.26-.52-.87v-.35c0-.61.17-.87.52-.87h1.39l.35-2.95c0-.35.26-.61.87-.61h.26c.61 0 .87.26.87.61v2.95h2.35c.35 0 .52.26.52.87v.35c0 .61-.17.87-.52.87h-2.35v8.6c0 1.65.7 2.09 1.48 2.09s.96-.17 1.22-.17c.35 0 .61 1.04.61 1.3 0 .73-1.15.86-1.87.87h-.13c-1.37 0-3.5-.59-3.56-3.67l-.1-9.02zm9.13-7.73c0-.35.35-.61 1.13-.61h.09c.78 0 1.13.26 1.13.61v7.47c.96-.96 2.43-1.91 4.26-1.91 1.82 0 4.43.7 4.43 4.52v9.65c0 .35-.35.61-1.13.61h-.09c-.78 0-1.13-.26-1.13-.61v-9.39c0-1.65-.96-2.69-2.87-2.69-2.09 0-3.48 1.91-3.48 1.91v10.17c0 .35-.35.61-1.13.61h-.09c-.78 0-1.13-.26-1.13-.61l.01-19.73zm21.12 5.56c3.82 0 5.74 2.52 5.74 7.21 0 .35-.61 1.13-.96 1.13h-8.78c.26 3.04 1.56 4.43 4.26 4.43 2.43 0 3.74-1.13 4.08-1.13.35 0 .96 1.04.96 1.39 0 .7-2.17 1.74-4.95 1.74-4.61 0-6.78-2.35-6.78-7.3-.09-4.86 2.17-7.47 6.43-7.47zm3.21 6.34c0-2.87-1.13-4.35-3.3-4.35-2.43 0-3.65 1.48-3.91 4.35h7.21zm13.04-10.51c0-.35.35-.61 1.13-.61h.26c.78 0 1.13.26 1.13.61v18.34c0 .35-.35.61-1.13.61h-.26c-.78 0-1.13-.26-1.13-.61v-18.34zm7.47 18.34l.09-9.82v-.32c-.03-2.04-.34-3.07-.34-3.15 0-.52 1.13-.61 1.48-.61.7 0 .78 1.13.96 1.82 1.13-1.3 2.78-2.09 4.35-2.09 2.87 0 4.52 1.65 4.52 4.52v9.65c0 .35-.35.61-1.13.61h-.09c-.78 0-1.13-.26-1.13-.61v-9.39c0-1.65-1.04-2.69-2.87-2.69-1.22 0-2.61.78-3.48 1.91v10.17c0 .35-.35.61-1.13.61h-.09c-.79-.01-1.14-.27-1.14-.61zm16.08-12h-1.39c-.35 0-.52-.26-.52-.87v-.35c0-.61.17-.87.52-.87h1.39l.35-2.95c0-.35.35-.61.87-.61h.26c.61 0 .87.26.87.61v2.95h2.35c.35 0 .52.26.52.87v.35c0 .61-.17.87-.52.87h-2.35v8.6c0 1.65.7 2.09 1.48 2.09s.96-.17 1.22-.17c.35 0 .61 1.04.61 1.3 0 .73-1.15.86-1.87.87h-.13c-1.37 0-3.5-.59-3.56-3.67l-.1-9.02zm14.51-2.17c3.82 0 5.74 2.52 5.74 7.21 0 .35-.61 1.13-.96 1.13h-8.78c.26 3.04 1.56 4.43 4.26 4.43 2.43 0 3.74-1.13 4.08-1.13.35 0 .96 1.04.96 1.39 0 .7-2.17 1.74-4.95 1.74-4.61 0-6.78-2.35-6.78-7.3 0-4.86 2.18-7.47 6.43-7.47zm3.22 6.34c0-2.87-1.13-4.35-3.3-4.35-2.43 0-3.65 1.48-3.91 4.35h7.21zm6.26 7.74v-9.73-.32c-.03-2.04-.34-3.07-.34-3.15 0-.52 1.13-.61 1.48-.61.7 0 .78 1.13.96 1.82.96-1.3 2.09-2.09 3.22-2.09 1.04 0 1.65.43 1.65 1.04 0 .52-.26 1.48-.52 1.48-.35 0-.61-.26-1.56-.26-1.48 0-2.52 1.65-2.52 1.65v10.17c0 .35-.35.61-1.13.61H418c-.81 0-1.15-.26-1.15-.61zm9.99-9.73c0-2.26-.35-3.39-.35-3.48 0-.52 1.13-.61 1.48-.61.7 0 .78 1.13.96 1.82 1.13-1.3 2.78-2.09 4.35-2.09 2.87 0 4.52 1.65 4.52 4.52v9.65c0 .35-.35.61-1.13.61h-.09c-.78 0-1.13-.26-1.13-.61v-9.39c0-1.65-1.04-2.69-2.87-2.69-1.22 0-2.61.78-3.48 1.91v10.17c0 .35-.35.61-1.13.61h-.09c-.78 0-1.13-.26-1.13-.61l.09-9.81zm21.12-4.35c3.82 0 5.74 2.52 5.74 7.21 0 .35-.61 1.13-.96 1.13h-8.78c.26 3.04 1.56 4.43 4.26 4.43 2.43 0 3.74-1.13 4.08-1.13.35 0 .96 1.04.96 1.39 0 .7-2.17 1.74-4.95 1.74-4.61 0-6.78-2.35-6.78-7.3-.09-4.86 2.17-7.47 6.43-7.47zm3.21 6.34c0-2.87-1.13-4.35-3.3-4.35-2.43 0-3.65 1.48-3.91 4.35h7.21zm6.7-4.17h-1.39c-.35 0-.52-.26-.52-.87v-.35c0-.61.17-.87.52-.87h1.39l.35-2.95c0-.35.26-.61.87-.61h.26c.61 0 .87.26.87.61v2.95h2.35c.35 0 .52.26.52.87v.35c0 .61-.17.87-.52.87h-2.35v8.6c0 1.65.7 2.09 1.48 2.09s.96-.17 1.22-.17c.35 0 .61 1.04.61 1.3 0 .73-1.15.86-1.87.87h-.13c-1.37 0-3.5-.59-3.56-3.67l-.1-9.02z" fill="#848484"/><path d="M223.91 152.86c7.3 0 14.08 2.61 14.08 4.61 0 1.22-1.56 4.26-2.52 4.26-.78 0-4.35-3.22-11.47-3.22-13.04 0-17.29 7.56-17.29 20.42 0 11.3 3.39 20.86 16.51 20.86h.5c3.65-.04 7.15-.45 8.97-.95v-14.86h-8.6c-1.04 0-1.48-.7-1.48-2.17v-1.22c0-1.56.43-2.17 1.48-2.17h12.95c1.56 0 2.17.7 2.17 2.17v19.55c0 4.17-8 5.3-16.43 5.3-14.69 0-22.77-8.26-22.77-25.81.01-18.43 8.52-26.77 23.9-26.77zm22.95 50.67v-25.9c0-6.01-.85-8.88-.87-9.28v-.01c0-1.39 3.04-1.74 4-1.74 1.74 0 2.17 2.95 2.61 4.87 2.52-3.56 5.48-5.56 8.52-5.56 2.87 0 4.26 1.22 4.26 2.87 0 1.39-.61 4-1.48 4-.96 0-1.56-.78-4.08-.78-3.82 0-6.78 4.52-6.78 4.52v27.03c0 1.04-.87 1.65-2.95 1.65h-.26c-2.1-.02-2.97-.63-2.97-1.67zm38.67-37.63c10.08 0 15.21 6.69 15.21 19.21 0 .87-1.56 3.04-2.43 3.04h-23.29c.61 8.17 4.08 11.91 11.38 11.91 6.43 0 9.99-3.13 10.78-3.13 1.04 0 2.61 2.87 2.61 3.65 0 1.74-5.82 4.69-13.3 4.69-12.13 0-17.96-6.13-18.07-19.07v-.39c-.1-12.96 5.81-19.91 17.11-19.91zm8.61 17.03c0-7.73-2.96-11.65-8.86-11.65-6.43 0-9.82 3.91-10.34 11.65h19.2zm29.63-17.03c10.08 0 15.21 6.69 15.21 19.21 0 .87-1.56 3.04-2.43 3.04h-23.29c.61 8.17 4.08 11.91 11.39 11.91 6.43 0 9.99-3.13 10.78-3.13 1.04 0 2.61 2.87 2.61 3.65 0 1.74-5.82 4.69-13.3 4.69-12.25 0-18.08-6.26-18.08-19.47-.01-12.95 5.81-19.9 17.11-19.9zm8.69 17.03c0-7.73-2.95-11.65-8.86-11.65-6.43 0-9.82 3.91-10.34 11.65h19.2zm13.21 20.42v-25.72-.46c-.04-5.69-.85-8.43-.87-8.82v-.01c0-1.39 3.04-1.74 4-1.74 1.74 0 2.17 2.95 2.61 4.87 3.13-3.48 7.39-5.56 11.47-5.56 7.56 0 11.99 4.52 11.99 11.91v25.55c0 1.04-.87 1.65-2.96 1.65h-.26c-2.09 0-2.96-.61-2.96-1.65v-25.03c0-4.52-2.69-7.13-7.56-7.13-3.3 0-6.87 2-9.3 5.13v27.03c0 1.04-.87 1.65-2.96 1.65h-.26c-2.07-.02-2.94-.62-2.94-1.67z" fill="#262626"/><path d="M388.08 192.49c1.3 0 4.95 3.39 10.86 3.39h.21c3.09-.04 6.74-1.06 6.74-5.39 0-8.69-21.29-5.3-21.29-22.68 0-10.86 8.86-15.12 17.47-15.12 7.82 0 13.3 2.69 13.3 5.13 0 2-2.26 6.43-4.08 6.43-.96 0-3.22-1.82-8.17-1.82-5.74 0-6.87 2.69-6.87 4.35 0 8.43 21.29 5.04 21.29 22.34 0 12.25-8.6 16.34-16.69 16.34-11.21 0-17.29-4-17.29-6.52 0-2.19 2.96-6.45 4.52-6.45zm51.71-26.68c11.73 0 17.82 7.04 17.82 19.81 0 12.86-6.08 19.9-17.82 19.9s-17.9-7.04-17.9-19.9 6.17-19.81 17.9-19.81zm6.78 20.03v-.22c0-7.39-2.09-11.21-6.78-11.21s-6.87 3.82-6.87 11.21 2.17 11.3 6.87 11.3c4.65 0 6.74-3.83 6.78-11.08h0zm34.76-20.03h.31c5.18.07 11.94 1.8 11.94 5.13 0 1.39-2.69 5.65-3.91 5.65-.26 0-.7-.26-1.3-.52l-.29-.15a12.77 12.77 0 0 0-6.14-1.5c-5.85 0-8.29 3.58-8.34 10.99v.23c0 7.56 2.26 11.3 7.91 11.3 3.48 0 5.82-1.04 7.21-1.74l.23-.1c.49-.2.84-.34 1.07-.34 1.65 0 3.82 4.17 3.82 5.56 0 4.17-10.52 5.13-12.86 5.13-12.6 0-18.6-6.43-18.6-19.64.01-13.05 5.74-20 18.95-20zm17.82-14.08c0-1.54 1.26-2.32 4.27-2.35h2.25c3.13 0 4.43.78 4.43 2.35v29.2l.26.09 8.95-13.38c.85-1.18 2.27-1.38 4.35-1.39h2.86c2.78 0 4.17.43 4.17 1.13 0 .33-.23.81-.62 1.37l-10.33 14.71 11.99 19.03.3.58c.19.38.31.68.31.98 0 .7-1.3 1.13-4.17 1.13h-3.13-.33c-2-.03-3.44-.32-4.1-1.39l-10.25-16.95-.26.09v15.9c0 1.56-1.3 2.35-4.43 2.35h-2.09c-3.13 0-4.43-.78-4.43-2.35v-51.1z" class="K"/><path d="M63.916 185.02c-4.43 2.09-16.16 11.47-18.42 14.25-2.35 2.78-3.04-1.56-.61-8.78 1.91-5.82 6.78-13.73 14.95-20.51 4.78-3.91 15.3-9.56 21.73-12.86 1.3-.7 18.16-7.82 33.2-11.38 1.3-.35-1.56 2.17-2 3.56-2.26 6.6-47.36 34.94-47.36 34.94l-1.49.78zm63.53 79.69c.78 4.69.09 5.04-4.78 5.65s-8.43-1.22-9.73-2.43c-1.3-1.22-1.56-3.91-.26-6.34.78-1.56 1.56-2.09 2-4 .43-1.82.78-2.26 1.13-2.95.35-.61.43-1.22.52-5.48s0-12.25.43-15.64c.43-3.48 15.47 1.56 15.47 1.56l-4.52 11.04c-.96 2.17-.87 6.34-.87 7.21s-.35 2.61-.61 2.69c-.26.09.87 2.35.35 3.65-.34 1.21.79 4.34.87 5.04zm5.74-132.88c-.52-3.3 0-9.82.7-10.86 2.17-2.96 13.64-3.3 16.08.17 1.04 1.56.96 5.21.78 7.56-.17 2.35-.78 7.39-.87 9.04-.09 1.22-12.69 3.13-15.47-.17-.79-.87-1.22-5.74-1.22-5.74zm25.55 124.45c5.3 3.82 9.39 4.52 12.08 5.91s2 4.08-2.52 4.87c-3.65.7-9.39-.7-13.21-.7s-12.34.43-14.6-1.13c-2.61-1.82-1.48-5.21-1.48-5.21.7-1.91 2.43-6.17 1.91-9.65s-1.22-5.39-2.52-8.6c-1.3-3.22-2.26-11.12-1.04-11.56 1.22-.43.87 0 2.43.35s3.3.87 6.69.87 7.13-.52 8.43-.78 2.35-.52 1.91 2.17c-.43 2.69-1.74 7.73-1.82 11.65-.09 3.91-.09 8.43.17 9.21.27.77 2.18 1.64 3.57 2.6z"/><g class="K"><path d="M140.136 140.517c-9.56 8.26-28.07 10.52-55.53 21.12-7.04 2.69-25.81 10.78-30.33 19.21 15.21-8.78 20.86 3.3 22.07 15.73 1.13 11.65 6.95 17.73 21.9 17.38 15.38-.35 20.08 8.6 24.33 19.12 8.26-40.24 21.47-48.06 29.98-54.92 18.09-14.69-4.16-40.59-12.42-37.64z"/><path d="M140.136 140.517c-22.94 8-45.63 9.99-72.31 26.42-6.34 3.91-19.73 12.77-22.34 29.72 9.73-10.78 32.24-24.33 59.79-32.94 13.91-4.35 24.07-7.21 36.41-11.99-.85-5.56-.85-7.73-1.55-11.21z"/></g><path d="M169.426 188.143s-1.65 5.65-4.95 7.47c0 0-2.43.87-7.3-1.82-1.39-.78-2.43-3.48-2.35-4.35.09-2.09 1.39-3.04 1.39-3.04s1.39-2.35 3.04-2.26 4.43.35 5.3-.43c.78-.87 5.04 1.56 4.87 4.43zm-35.46-54.66s-.35 4.43-.96 7.21c-.09.52-2.69.78-4.61 1.56 3.65 10.43 25.64 10.34 28.51 5.21a37.39 37.39 0 0 0-5.47-2.95c-1.3-.52-1.22-.43-1.3-2.87l-.43-8.17c-.18-1.21-13.65-1.21-15.74.01z"/><path d="M134.836 133.483s0 2.52-.26 4.95c-.09 1.13-.17 1.82-.35 2.69-.09.52 2.95 2.61 3.82 7.21 4.17 9.3 13.82 4.69 17.82.26-1.39-.96-3.65-2.26-6.26-3.3-1.3-.52-.7-1.65-.78-4.08a96.09 96.09 0 0 0-.61-7.3c-.17-1.3-11.29-1.65-13.38-.43z" class="J"/><path d="M133.966 133.483l-.35 3.39 3.74 3.65c.78.7 2.69.61 4.43.61 1.56 0 2.95.17 3.56-.17 1.39-.7 3.39-2.43 4.52-3.74l-.26-3.74c-.08-1.22-13.55-1.22-15.64 0z"/><path d="M141.876 140.083c-1.04 0-2.26-.09-3.22-.26-.43-.09-.87-.35-1.22-.52l-1.91-1.48c-1.39-1.04-1.48-1.65-1.48-1.91.61-5.48-.17-10.08-.17-10.08s-.61-2.35 2.69-2.96 5.3-.7 5.3-.7 2.09 0 5.3.7c3.3.61 2.69 2.96 2.69 2.96s-.78 4.61-.17 10.08c0 .26-.09.87-1.48 1.91-1.22.87-2.17 1.82-3.13 2-.94.18-2.16.26-3.2.26z"/><path d="M141.876 119.923c-5.74 0-6.87 1.56-8.52 3.3-.35.43-.09 3.04.52 8.6h.78s-.52-1.56-.43-3.39c.09-1.82.43-1.74.17-2.17-.35-.52-1.04-1.39.52-2.26s4 .7 6.95.78c2.95-.09 5.47-1.65 7.04-.78 1.56.87.87 1.74.52 2.26s.09.35.17 2.17c.09 1.82-.43 3.39-.43 3.39h.78l.61-8.43c-1.47-1.91-2.95-3.38-8.68-3.47zm27.55 68.48s-1.65 5.3-4.87 7.13c-.7-.35-.61-.87-1.22-1.65-.17-.26-.78-.43-1.04-.7-.26-.26-.17-.7-.61-1.04-.35-.35-.61-.09-.96-.35-.35-.35-.43-.78-.7-1.04-.17-.17-.87-.26-1.04-.43-.43-.43-4.26-1.22-4.08-2.09.35-1.3 1.04-2.26 1.04-2.26s1.65-2.43 3.3-2.35c1.65.09 3.22.43 4.08-.35.97-.86 6.36 2.35 6.1 5.13z"/><path d="M158.126 149.993s5.47-1.3 9.21 2.26c3.74 3.65 3.48 8.17 2.35 10.95.96 1.13 2.69 4.26 1.39 8 5.74 4.87 3.22 12.34-1.91 17.29 0 0-1.22-4.52-6.08-4.78.17-1.74-4.52-3.13-2.35-7.65-3.3-.78-3.22-3.04-3.74-5.82-.43-2.78 1.13-20.25 1.13-20.25z"/><path d="M156.126 152.423s6.34-3.22 10.08.43 2.69 7.65 1.56 10.43c.96 1.13 3.22 4.35 1.82 8.17-.26.87-2.17.87-3.56 3.13 3.48-2 5.65-1.48 6.43 1.04 1.22 3.91-1.48 8.6-3.82 11.21 0-.09-.09-.17-.09-.26-.35 1.3-.78 3.82-3.39 6.6-1.3 1.39-2.35 1.22-3.82.87-1.74-.43-2.35-1.22-4.78-2.52-1.39-.78-.61-1.74-.61-2.52 0-.17.17-.43.43-.78.17-.43.7-1.13 1.48-1.91 0 0 1.13-1.56 2.78-1.48 1.65.09 3.39-.26 3.82-.7h0c0-3.04-3.48-3.13-2.26-8.34.09-.26.52-.7 1.91-.87-2.09-.43-3.04-.52-4.52-1.91-1.04-.96-1.82-2.17-2.09-3.74-.5-2.68-1.37-16.85-1.37-16.85z" class="J"/><path d="M137.786 146.953c-.52-.7-3.22-4.17-8.34-5.56-1.48-.43-2.43.78-3.91 1.65-.43-.26-2.35-1.13-3.39-.52s-1.74 1.22-2.78 1.65c-.52-.26-1.91-.26-3.04.17-1.13.35-2.87 1.13-4.52 3.39-1.04 3.74 18.42.96 18.42.96l7.56-1.74z"/><path d="M137.966 146.953c-2.78-.96-2.35-4.17-8.52-4.69-1.22-.09-2 .87-2.87 1.48.43.43.87 1.13 1.13 1.82-.78-.87-2.17-2-3.56-2.26-1.3-.26-2.17.7-3.56 1.39.26.26.52.7.87 1.22-1.22-.78-2.09-1.04-3.74-.43-1.13.35-3.3 1.3-4.95 3.65-1.04 3.74 17.56-.43 17.56-.43l7.64-1.75z" class="K"/><path d="M154.306 148.343l-.09-1.82c0-.17-.7-.61-.7-.78l-.17-.17s1.39-.78 2.43-.35c1.13.35 1.74 1.82 1.74 1.82 2-.7 2.17.09 3.13 1.13 2.09-.43 2.35.35 3.65 2.26 0 0-1.56-.26-4.61.26-2.95.43-5.38-2.44-5.38-2.35z"/><path d="M153.956 147.903s.52-.43.35-.52c.96-.52 2.26-1.13 2.87.52 2-.7 2.26.26 3.22 1.3 2.43-1.13 2.61.26 2.78.87-.78 0-1.91.09-3.48.26-2.96.44-5.83-2.51-5.74-2.43z" class="K"/><path d="M124.406 145.733s4.95 1.74 9.13 1.48c4.17-.35 11.3-.7 15.12 1.56 0 0 3.91-1.39 7.56-.43s10.34 7.21 8.34 13.82c-.17.43-1.3 1.13-2.61 1.56 0 0 .7 2.95-.52 5.39-1.22 2.35-3.91 6.87-4 13.12h0c-.09 1.04-.26 3.22-.43 4.26-6.78-.26-17.21-2.78-27.46-2.61l.26-2.95h.26c-.52-2.87-.7-4.35-1.22-6.52-3.3-2.09-6.78-4.52-9.73-9.13-2.87-4.6 5.3-19.55 5.3-19.55zm33.55 46.93s5.39 19.29-.96 27.38c0 0 .96 3.74-1.22 7.73l-1.04 5.04c-1.13 7.21-3.04 10.25-3.56 21.81l-5.21-.09s-.61-8.34-2.43-12.78c-1.04-2.52-5.13-5.91-4.95-9.3.17-2.61.7-4.78 5.13-8.26.35-5.04-4.69-9.82-3.91-28.59l18.15-2.94z"/><path d="M156.386 191.883c1.39 8.86 4.61 21.99-1.22 28.42a13.25 13.25 0 0 1 .09 4.95c-.17 1.04-.52 2.17-.96 3.39-.87 2.09-1.22 5.13-1.48 6.95-1.13 7.21-1.13 7.56-1.65 19.12l-5.21-.09s-.61-8.34-2.43-12.77c-1.04-2.52-3.22-4.69-3.39-8.08-.17-2.61 1.65-7.82 6-7.65-.26-10.52-5.13-8.43-6.43-30.33l16.68-3.91zm-31.98-46.15s1.91.61 4 .78 4.35 0 6.34-.09c4.17-.35 10.08-.78 13.99 1.48 0 0 2.17-.7 4.52-.52 1.04.09 2.09.96 3.3 1.3 3.82.96 7.47 7.3 5.82 13.04-.17.43-1.39 0-2.78.43.26 1.22.43 4-.96 6.95-1.48 2.96-3.39 6.78-3.04 14.08-9.13-.43-13.21-1.04-22.25-1.48-.78-3.22-1.3-6.43-1.39-8.08 1.22-.61 1.91-1.13 2.87-2.17-2.61.43-3.65.26-5.21-.61s-4.35-3.65-5.74-5.47c-.17-.17-1.13 2.69-3.3 2.78-.78-1.13 2.52-4.35 1.91-5.56-2.16-4.43 1.92-16.86 1.92-16.86z" class="J"/><path d="M157.086 184.663l.17 3.91c0 .87.7 3.48.78 4.69-.96 1.65-5.13 5.39-12.69 6.78-7.47 1.56-17.38-10.17-17.38-10.17.26-1.13 1.13-4.43 1.74-6.17.09-.17.26-.61.26-.78.79-1.12 27.12 1.74 27.12 1.74z"/><path d="M155.176 184.933c0 2.17.35 3.74.61 5.13.43 2.52 1.13 4.17 1.13 5.82 0 5.04-6.6 4.17-12.17 4.35-7.47 1.56-13.82-10.17-13.82-10.17.52-2 .87-4.26 1.65-6.17h0c.09-1.04.26-2.35.35-2.95 10.6 0 18.08.61 22.42 1.04.17.95 0 2.6-.17 2.95h0z" class="J"/><path d="M146.826 196.143s-4.61-10.25-18.42-7.21c-3.3 9.3-7.73 19.99-4.87 31.55-2.87 3.91-6.17 6.08-6.17 13.3 0 7.21.35 8.43.35 8.43l10.17.52s3.3-4.26 4.61-8.86c.35-1.3.7-3.65.43-6.34.35-.52 1.82-1.74 2-4.08 0 0 4.95-2.61 7.82-8.95 2.69-5.76 2-10.72 4.08-18.36z"/><path d="M146.826 196.143c-.26-.96-3.74-10.34-16.6-7.56-7.56 20.16-4.78 28.51-3.65 32.16-5.13 6.52-7.47 7.91-6.43 21.12h6.78c3.13-4.95 3.82-6.78 4-13.3 0-.26-.96.52-1.65 1.39.52-2.69 2-3.22 3.13-4.87.52-.7.96-1.74.96-3.13 6.08-4.08 8.34-9.21 9.65-14.51 1.03-3.66 2.25-9.65 3.81-11.3z" class="J"/><path d="M125.366 182.153s2.35.09 4.43.78c2 .7 2 1.13 2.78 2s2.69 2.17 2.35 3.48c-.17.7-.61.87-1.22 1.48l-2.61 2.61-.87.61-1.3.87c-.87.43-1.48.7-2.43.61 0 0-2.17-.09-3.56-1.56 0 0-.17-.7.17-1.04 0 0-1.83-1.56-2.35-2.61-.52-1.04-.52-2.52-.17-3.3.17-.81 3.56-2.98 4.78-3.93zm2.17 84.55l-.26 2.17s-.78.96-6.6.87c-5.91-.09-7.47-1.91-8-2.87l-.35-2.26s1.13-1.65 1.39-1.65c1.91.17 8.43 2.78 12.95 3.48.44 0 .52.18.87.26zm12.6-4.43l-.09 1.91c1.04.78 3.65 1.22 8.6 1.13 7.21-.17 13.91 2.17 22.07.78l.09-1.56-.78-.09-28.94-2.35-.95.18z"/><path d="M146.486 265.313h2.17c4.69-.17 9.13.87 13.91 1.13 2.52-.09 5.65-.7 5.39-2.52l-24.68-2.09c-1.49 1.66-.36 3.05 3.21 3.48zm-28.34-36.58c.78.52 6.08 3.65 14.69 3.22-.17 1.65-.09 4.87-3.91 10.52-1.91 2.78-3.56 7.65-3.91 13.82.09 1.39.87 2.61-.17 4.43.35 1.13 1.74 3.39 2.43 4.78.7 1.39 1.04 2.96-3.56 3.04-4.69.09-12.25-.43-11.21-4.08.52-1.91 2-3.91 2.17-4.69s.17-3.13 1.65-4.69c1.3-4.35.87-8.52.61-12.43-.44-4.1-.52-10.62 1.21-13.92zm8.09-70.83c6.17-8.26.96-14.86-8.95-12.86-4 .78-8 3.56-8.26 8.6-1.3.17-4.26.35-5.74 5.74-1.13 4.17-1.74 4.95-3.74 7.04-1.3 1.48.09 4.52 1.04 6.69 3.22 7.47 13.12 8.17 19.81 13.82 2.26-.61 4.61-3.13 5.3-4.78-5.65-6.69-4.43-9.3-6.69-12.78 2.45-.87 8.01-4.26 7.23-11.47z"/><path d="M125.016 157.383c.35-.52.96-1.65 1.22-2.09.09-.09 1.04 1.56 1.13 1.48 2.35-3.82 2.95-9.39.26-9.91-.61-.09-1.74-.35-2.69-.7-1.74-.61-3.3-.61-6.08-.09-3.82.7-7.65 3.48-7.65 7.47 0 .26 2.69 1.04 3.48 4.26-1.3-1.83-3.56-3.82-6.26-2.09-2.87 1.82-1.39 6-5.21 10.34-1.3 1.48-1.13 3.22.26 6.69 2.26 5.48 12.95 8.43 18.77 13.64 1.39-.61 2.35-2 3.04-3.04-3.91-4.08-5.48-7.91-6.6-10.69-1.39-3.22-2.96-5.04-6-7.47 1.56.61 2.78 1.22 3.48 1.74.78.52 1.91.61 2.96.26 3.72-1.29 5.72-6.5 5.89-9.8z" class="J"/><path d="M162.816 158.773c-.26 3.3-2.69 1.65-4 1.04-2.61-1.13-5.21-1.91-8.26-1.91s-6.95.26-10.34 1.13c-4.69 1.3-6.08 1.22-8.17.17-2.09-1.13-5.74-3.91-5.74-3.91s-.09.87.78 2c1.13 1.39 3.65 3.13 7.04 4.26 1.65.52 2.96.17 4.43-.17 7.73-1.91 15.9-2.26 22.77 1.91.35.17 1.56-.35 2.09-1.13.71-1.13-.6-3.39-.6-3.39z"/><path d="M123.276 191.883c.7.43 1.56.7 2.52 1.48 0 0-.78 0-1.13-.35-.43-.26-1.3-1.04-1.39-1.13h0z" fill="#001423"/><path d="M148.396 122.963c-.26-.78-2.17-2.17-6.6-2.17-4.78 0-6.17 1.48-6.26 2.26 0 .26-.35 3.04-.43 4.17l.09 3.48c.09 1.39.43 2.17.61 4 .17 1.91.7 3.13 1.65 4.69.43.26.78.52 1.22.61 1.74.35 4.78.43 6.43 0 .96-.26 2.17-1.91 2.43-3.39l.78-4.26c.17-1.13.26-3.65.35-4.35.25-1.91-.19-4.86-.27-5.04z" class="J"/><path d="M139.266 230.383s4.61 2 15.99.26c0 0-3.22 16.16-1.74 24.25 0 0 1.48 2.09 12.43 6.08 0 0 4.87 1.22 4.69 3.65 0 0 .17.52-5.74.35s-11.47-1.22-15.38-1.22-8.08.17-8.78-.96c-.78-1.04.17-3.74 1.3-5.3 1.22-1.65.87-2.87.78-5.82-.25-7.73-6.16-15.73-3.55-21.29z"/><path d="M138.316 231.863c-.61.87.09 4.17.96 7.39s2.78 5.13 3.22 10.43c.43 5.21.52 5.91-.96 8.95s-1.91 5.82 3.22 5.91 7.91-.09 13.12.7c5.21.78 7.04 1.04 9.91.61s3.48-1.39 2.26-2.26-6.26-1.82-8.43-3.56c-2.09-1.56-8-4.17-8.08-4.87-.26-2.35-.35-10.86.09-13.64l1.22-7.82c.17-1.04 1.04-2.09-.43-1.74-1.48.35-7.04 1.13-11.21.87-4.2-.28-4.63-1.24-4.89-.97z" class="K"/><path d="M141.266 258.713c1.48.7 3.65 1.22 5.3 1.22 0 0-.61 2.87.35 4.61s-6.95.7-6.95.7l-.35-6.17 1.65-.36zm23.03 7.47c1.39-.43 2.35-2 1.22-3.48-1.22-1.48-2.26-1.74-.7-1.82 1.56-.09 7.3 3.39 7.3 3.39l-2.96 2.69-4.86-.78zm-26.24-30.94c2 .7 5.04.87 7.65.78s6.52-.43 9.04-1.3 1.48.96 1.48.96l-1.39 1.3s-3.3 1.3-8.69 1.22c-6.34-.09-8.26-.78-8.26-.78l.17-2.18zm.17 4.35c2 .7 5.04.87 7.65.78s6.08-.09 8.6-1.04c1.04-.35.43 1.13.43 1.13l-.43.78s-3.39 1.22-8.69 1.13c-6.34-.09-7.47-.61-7.47-.61l-.09-2.17z" opacity=".3" class="L"/><path d="M139.266 230.383s7.56 2.69 16.08.87c0 0-3.3 15.56-1.82 23.55 0 0 1.48 2.09 12.43 6.08 0 0 4.87 1.22 4.69 3.65 0 0 .17.52-5.74.35s-11.47-1.22-15.38-1.22-8.08.17-8.78-.96c-.78-1.04.17-3.74 1.3-5.3 1.22-1.65.87-2.87.78-5.82-.26-7.64-6.17-15.64-3.56-21.2z" fill-opacity="0"/><path d="M139.266 230.383s7.56 2.61 16.08.78c0 0-3.3 15.64-1.82 23.64 0 0 1.48 2.09 12.43 6.08 0 0 4.87 1.22 4.69 3.65 0 0 .17.52-5.74.35s-11.56-1.82-15.38-1.22c-4.08.7-8.08.43-8.78-.96-.61-1.13.17-3.74 1.3-5.3 1.22-1.65.87-2.87.78-5.82-.26-7.64-6.17-15.64-3.56-21.2z" fill-opacity="0"/><path d="M132.486 178.673c0 .61 6.78 4 10.52 4.69 3.74.7 11.56 0 12.78-.26l-.17 1.22s-9.3 1.39-16.42-.52c-7.13-1.91-6.34-2.35-6.34-2.35l-.37-2.78z"/><path d="M117.973 252.806c1.04.52 4.78 1.48 7.21.96.35-.09 0-6 .96-8.69 1.39-3.74 3.65-6.78 4.69-13.38-3.65-.35-7.82-1.3-9.99-2-2.78 8.51-1.82 15.81-2.87 23.11zm5.83 5.47c.61.17 1.04.87 1.22.43.35-.78-.61-2.26-.7-3.3v-.09c-.78-.7-6.08-.78-5.74-.43-.61 1.13-1.56.96-1.91 3.22-.17 1.13 1.22.17 2.52.09-2.35 1.56-5.04 3.56-5.47 5.3-.52 2.43.35 3.13 2.96 4.43 2.26.52 4.95.61 7.04.52 2.35-.43 2.78-1.56 2.09-3.13-1.06-2.34-1.75-5.39-2.01-7.04z" class="J"/><path d="M124.756 145.383c2.87 1.65 6.87 1.22 8.34 1.13.35 0 3.82-.61 4-.52.35.09.35.35.35.35s-1.3.7-4.26.87c-2.78.17-6.08 0-7.91-.87-2.17-.96-.52-.96-.52-.96zm29.55 1.65c.52.35 3.91 1.65 5.39 3.22 1.3 1.39.61 1.3.35.96-.35-.43-3.04-2.26-4.08-2.69s-2.35-1.22-2.35-1.39.69-.1.69-.1z"/><path d="M124.316 183.103c2.52-.17 5.13.43 6.78 2.17.87.87 2.26 1.82 2.09 2.69 0 .26-.52.96-.96 1.48-.26.35-1.04 1.13-1.3 1.39l-1.82 1.39c-.26.17-.61.61-.87.7-.87.43-1.82.09-2.69-.35-.87-.43.17-.52-.78-1.22-2.35-1.65-3.65-2.78-2.69-6 .07-.6 1.03-1.29 2.24-2.25z" class="J"/><path d="M102.156 163.2c-7.82 3.13-27.72 13.04-33.37 16.08h0c4.69 2.95 6.87 10.08 7.56 17.29l.26 2c.09.61.17 1.04.26 1.3 0 .09 0 .26.09.35 5.13-13.99 23.46-28.77 24.16-29.9.35-.52-.43-2.78.78-4.95 1.57-2.78 4.61-3.99.26-2.17zm18.6 65.62c4-8 4.08-15.64 4-24.59 0-3.74 2.69-9.04 1.3-7.56-5.21 5.82-18.34 16.77-27.81 17.38 13.3-.44 18.51 6.25 22.51 14.77z" opacity=".4" class="L"/><path d="M61.136 186.67c4.95-3.56 30.59-17.21 36.76-19.12 6.17-2 4.26-4.35 4.26-4.35s-25.03 10.78-39.98 20.08"/><path d="M134.136 161.55c-2-.78-3.56 1.56-3.04 3.82s5.21 4.78 4.95 13.04c-.17 6.78-1.65 9.56-1.65 9.56l-3.3-4.17s-.52-9.39-1.65-10.78-4.69-3.91-6.08-5.21 1.56-3.04 1.39-5.48c-.17-2.35 1.48-7.04 1.48-7.04l7.9 6.26zm12.08 37.02c-.17 6.52 1.3 16.16 1.91 20.77s1.39 4.95 0 7.04c-1.39 2-3.22 5.3-3.22 5.3l-6-.52s4.78-6.08 5.04-7.21-2.43-9.73-2.43-9.73l4.7-15.65zm-11.55-60.83c1.22 2.69 2.69 3.91 5.04 4.69 1.39.52 6.87 1.22 9.04-1.22.96-1.13.35-4.17.35-4.17l-4.95 4-6.69-1.22-.78-2-2.01-.08z" opacity=".4" class="L"/><g class="K"><path d="M135.186 143.73c2.26 1.48 7.91 2.87 9.47 3.13 1.56.35 4.08-1.65 5.3-2.17 1.3-.61 3.56-.96 6.17 1.39.26.26-.61 1.39-.61 1.39-.09-.09-.61-.09-1.3-.43-.7-.35-1.3-.61-2.35-.52-4.35.52-5.04 2-8.86 1.13s-4.78-1.56-8.52-1.39" stroke="#000" stroke-width="1.586" stroke-linejoin="round"/><path d="M134.396 144c2.87 1.22 8.43 2.52 9.99 2.87s4.08-1.22 5.3-2c2.17-1.39 4.95-.26 6.26 1.22.87.96 1.22 1.56 1.22 1.82 0 .35-1.04 0-1.04 0-.61-.26-1.3-.35-1.82-.7-.7-.35-1.39-.87-2.43-.78-4.35.52-5.21 2-8.95 1.13s-4.69-1.65-8.69-1.39"/></g><path d="M120.926 225.17c-.17-.17.17-.35 0-.35-1.13 0-2.69-.87-3.56-2.09-3.74-5.39-9.21-8.95-19.12-8.69-14.86.35-20.77-5.74-21.9-17.38-.61-6.34-2.35-12.51-5.91-15.99l-2.09 1.3c4 3.48 5.3 9.13 6.17 16.86 1.39 11.65 10.78 17.03 21.73 17.21 11.38.17 15.47 2.52 19.73 8.26 1.39 1.82 2.96 2.43 4.17 2.69l.78-1.82z"/><path d="M161.256 169.29c.26 1.3.96 3.82 2.35 5.04.61.61.7.78.17.78-.52 0-4.35-.17-4.35-.17l-1.04-1.82 2.87-3.83z" opacity=".4" class="L"/></svg>