<?xml version="1.0" encoding="utf-8"?>
<!-- Generator: Adobe Illustrator 26.5.0, SVG Export Plug-In . SVG Version: 6.00 Build 0)  -->
<svg version="1.0" id="katman_1" xmlns="http://www.w3.org/2000/svg" xmlns:xlink="http://www.w3.org/1999/xlink" x="0px" y="0px"
	 viewBox="0 0 590 392" style="enable-background:new 0 0 590 392;" xml:space="preserve">
<style type="text/css">
	.st0{fill:#848484;}
	.st1{fill:#262626;}
	.st2{fill:#88CE02;}
	.st3{fill:#EFEFEF;}
	.st4{fill:#001423;}
	.st5{opacity:0.3;enable-background:new    ;}
	.st6{fill-opacity:0;}
	.st7{opacity:0.4;enable-background:new    ;}
	.st8{fill:#88CE02;stroke:#000000;stroke-width:1.586;stroke-linejoin:round;}
</style>
<path class="st0" d="M202.01,223.69c0-0.61,0.26-0.87,0.87-0.87h9.65c0.35,0,0.52,0.26,0.52,0.87v0.43c0,0.61-0.17,0.87-0.52,0.87
	h-8.08v6.34h7.21c0.35,0,0.52,0.26,0.52,0.87v0.43c0,0.61-0.17,0.87-0.52,0.87h-7.21v6.78h8.08c0.35,0,0.52,0.26,0.52,0.87v0.43
	c0,0.61-0.17,0.87-0.52,0.87h-9.73c-0.61,0-0.87-0.26-0.87-0.87v-17.9L202.01,223.69z M216.7,241.77l0.09-9.82l0-0.32
	c-0.03-2.04-0.35-3.07-0.35-3.15c0-0.52,1.13-0.61,1.48-0.61c0.7,0,0.78,1.13,0.96,1.82c1.13-1.3,2.78-2.09,4.35-2.09
	c2.87,0,4.52,1.65,4.52,4.52v9.65c0,0.35-0.35,0.61-1.13,0.61h-0.09c-0.78,0-1.13-0.26-1.13-0.61v-9.39c0-1.65-1.04-2.69-2.87-2.69
	c-1.22,0-2.61,0.78-3.48,1.91v10.17c0,0.35-0.35,0.61-1.13,0.61h-0.09C217.05,242.37,216.7,242.11,216.7,241.77z M233.91,241.16
	c-1.04-0.43-1.74-1.13-1.74-2.26c0-1.39,1.13-2,2.09-2.35c-1.65-0.78-2.52-2.35-2.52-4.17c0-2.61,1.91-4.78,5.56-4.78
	c0.7,0,1.3,0.09,1.82,0.17h4.78c0.35,0,0.52,0.26,0.52,0.87v0.35c0,0.61-0.17,0.87-0.52,0.87h-1.91c0.61,0.78,0.96,1.65,0.96,2.61
	c0,2.61-1.91,4.78-5.56,4.78h-0.26c-0.7,0-2.35,0.17-2.35,1.13c0,2.17,9.39,0,9.39,5.47c0,2.43-2.43,4.35-6.95,4.35l-0.31,0
	c-3.49-0.04-5.95-0.86-5.95-3.65C230.78,242.9,232.08,241.77,233.91,241.16z M237.39,246.11c2.52,0,4.17-0.96,4.17-2.26
	c0-1.65-2.95-1.82-5.56-2.26c-1.13,0.43-2.78,1.39-2.78,2.61C233.21,245.76,235.13,246.11,237.39,246.11z M240.43,232.38
	c0-2.13-1.34-2.76-3.03-2.78l-0.1,0c-1.74,0-3.13,0.7-3.13,2.78c0,2.17,1.39,2.78,3.13,2.78l0.19,0
	C239.14,235.11,240.43,234.47,240.43,232.38z M255.55,233.25v-1.3c0-1.22-0.78-2.35-3.04-2.35c-2.52,0-4.08,1.13-4.35,1.13
	c-0.35,0-0.96-1.04-0.96-1.39c0-0.7,2.43-1.74,5.21-1.74c3.48,0,5.48,1.65,5.48,4.35v6.17c0,2.26,0.35,3.39,0.35,3.48
	c0,0.52-1.13,0.61-1.48,0.61c-0.7,0-0.78-1.13-0.96-1.91c-1.04,1.13-2.61,2.09-4.69,2.09c-2.69,0-4.78-1.3-4.78-4.17
	C246.34,233.6,251.38,233.25,255.55,233.25z M251.2,240.38c2,0,3.22-0.96,4.35-1.91v-3.3l-0.57,0c-2.78,0.01-6.12,0.19-6.12,2.87
	C248.86,239.59,249.64,240.38,251.2,240.38z M264.24,241.16c-1.04-0.43-1.74-1.13-1.74-2.26c0-1.39,1.13-2,2.09-2.35
	c-1.65-0.78-2.52-2.35-2.52-4.17c0-2.61,1.91-4.78,5.56-4.78c0.7,0,1.3,0.09,1.82,0.17h4.78c0.35,0,0.52,0.26,0.52,0.87v0.35
	c0,0.61-0.17,0.87-0.52,0.87h-1.91c0.61,0.78,0.96,1.65,0.96,2.61c0,2.61-1.91,4.78-5.56,4.78h-0.26c-0.7,0-2.35,0.17-2.35,1.13
	c0,2.17,9.39,0,9.39,5.47c0,2.43-2.43,4.35-6.95,4.35l-0.31,0c-3.49-0.04-5.95-0.86-5.95-3.65
	C261.11,242.9,262.33,241.77,264.24,241.16z M267.63,246.11c2.52,0,4.17-0.96,4.17-2.26c0-1.65-2.96-1.82-5.56-2.26
	c-1.13,0.43-2.78,1.39-2.78,2.61C263.46,245.76,265.37,246.11,267.63,246.11z M270.67,232.38c0-2.13-1.34-2.76-3.03-2.78l-0.1,0
	c-1.74,0-3.13,0.7-3.13,2.78c0,2.17,1.39,2.78,3.13,2.78l0.19,0C269.38,235.11,270.67,234.47,270.67,232.38z M277.71,223.69v-1.65
	c0-0.35,0.35-0.61,1.13-0.61h0.35c0.78,0,1.13,0.26,1.13,0.61v1.65c0,0.35-0.35,0.61-1.13,0.61h-0.35
	C278.06,224.3,277.71,224.04,277.71,223.69z M277.8,228.3c0-0.35,0.35-0.61,1.13-0.61h0.09c0.78,0,1.13,0.26,1.13,0.61v13.38
	c0,0.35-0.35,0.61-1.13,0.61h-0.09c-0.78,0-1.13-0.26-1.13-0.61V228.3z M285.01,231.95c0-2.26-0.35-3.39-0.35-3.48
	c0-0.52,1.13-0.61,1.48-0.61c0.7,0,0.78,1.13,0.96,1.82c1.13-1.3,2.78-2.09,4.35-2.09c2.87,0,4.52,1.65,4.52,4.52v9.65
	c0,0.35-0.35,0.61-1.13,0.61h-0.09c-0.78,0-1.13-0.26-1.13-0.61v-9.39c0-1.65-1.04-2.69-2.87-2.69c-1.22,0-2.61,0.78-3.48,1.91
	v10.17c0,0.35-0.35,0.61-1.13,0.61h-0.09c-0.78,0-1.13-0.26-1.13-0.61L285.01,231.95z M302.13,241.16
	c-1.04-0.43-1.74-1.13-1.74-2.26c0-1.39,1.13-2,2.09-2.35c-1.65-0.78-2.52-2.35-2.52-4.17c0-2.61,1.91-4.78,5.56-4.78
	c0.7,0,1.3,0.09,1.82,0.17h4.78c0.35,0,0.52,0.26,0.52,0.87v0.35c0,0.61-0.17,0.87-0.52,0.87h-2c0.61,0.78,0.96,1.65,0.96,2.61
	c0,2.61-1.91,4.78-5.56,4.78h-0.26c-0.7,0-2.35,0.17-2.35,1.13c0,2.17,9.39,0,9.39,5.47c0,2.43-2.43,4.35-6.95,4.35l-0.31,0
	c-3.49-0.04-5.95-0.86-5.95-3.65C299,242.9,300.31,241.77,302.13,241.16z M305.61,246.11c2.52,0,4.17-0.96,4.17-2.26
	c0-1.65-2.95-1.82-5.56-2.26c-1.13,0.43-2.78,1.39-2.78,2.61C301.44,245.76,303.26,246.11,305.61,246.11z M308.65,232.38
	c0-2.13-1.34-2.76-3.03-2.78l-0.1,0c-1.74,0-3.13,0.7-3.13,2.78c0,2.17,1.39,2.78,3.13,2.78l0.19,0
	C307.36,235.11,308.65,234.47,308.65,232.38z M322.81,229.77h-1.39c-0.35,0-0.52-0.26-0.52-0.87v-0.35c0-0.61,0.17-0.87,0.52-0.87
	h1.39l0.35-2.95c0-0.35,0.26-0.61,0.87-0.61h0.26c0.61,0,0.87,0.26,0.87,0.61v2.95h2.35c0.35,0,0.52,0.26,0.52,0.87v0.35
	c0,0.61-0.17,0.87-0.52,0.87h-2.35v8.6c0,1.65,0.7,2.09,1.48,2.09s0.96-0.17,1.22-0.17c0.35,0,0.61,1.04,0.61,1.3
	c0,0.73-1.15,0.86-1.87,0.87l-0.13,0c-1.37,0-3.5-0.59-3.56-3.67L322.81,229.77z M331.94,222.04c0-0.35,0.35-0.61,1.13-0.61h0.09
	c0.78,0,1.13,0.26,1.13,0.61v7.47c0.96-0.96,2.43-1.91,4.26-1.91c1.82,0,4.43,0.7,4.43,4.52v9.65c0,0.35-0.35,0.61-1.13,0.61h-0.09
	c-0.78,0-1.13-0.26-1.13-0.61v-9.39c0-1.65-0.96-2.69-2.87-2.69c-2.09,0-3.48,1.91-3.48,1.91v10.17c0,0.35-0.35,0.61-1.13,0.61
	h-0.09c-0.78,0-1.13-0.26-1.13-0.61L331.94,222.04z M353.06,227.6c3.82,0,5.74,2.52,5.74,7.21c0,0.35-0.61,1.13-0.96,1.13h-8.78
	c0.26,3.04,1.56,4.43,4.26,4.43c2.43,0,3.74-1.13,4.08-1.13c0.35,0,0.96,1.04,0.96,1.39c0,0.7-2.17,1.74-4.95,1.74
	c-4.61,0-6.78-2.35-6.78-7.3C346.54,230.21,348.8,227.6,353.06,227.6z M356.27,233.94c0-2.87-1.13-4.35-3.3-4.35
	c-2.43,0-3.65,1.48-3.91,4.35H356.27z M369.31,223.43c0-0.35,0.35-0.61,1.13-0.61h0.26c0.78,0,1.13,0.26,1.13,0.61v18.34
	c0,0.35-0.35,0.61-1.13,0.61h-0.26c-0.78,0-1.13-0.26-1.13-0.61V223.43z M376.78,241.77l0.09-9.82l0-0.32
	c-0.03-2.04-0.34-3.07-0.34-3.15c0-0.52,1.13-0.61,1.48-0.61c0.7,0,0.78,1.13,0.96,1.82c1.13-1.3,2.78-2.09,4.35-2.09
	c2.87,0,4.52,1.65,4.52,4.52v9.65c0,0.35-0.35,0.61-1.13,0.61h-0.09c-0.78,0-1.13-0.26-1.13-0.61v-9.39c0-1.65-1.04-2.69-2.87-2.69
	c-1.22,0-2.61,0.78-3.48,1.91v10.17c0,0.35-0.35,0.61-1.13,0.61h-0.09C377.13,242.37,376.78,242.11,376.78,241.77z M392.86,229.77
	h-1.39c-0.35,0-0.52-0.26-0.52-0.87v-0.35c0-0.61,0.17-0.87,0.52-0.87h1.39l0.35-2.95c0-0.35,0.35-0.61,0.87-0.61h0.26
	c0.61,0,0.87,0.26,0.87,0.61v2.95h2.35c0.35,0,0.52,0.26,0.52,0.87v0.35c0,0.61-0.17,0.87-0.52,0.87h-2.35v8.6
	c0,1.65,0.7,2.09,1.48,2.09c0.78,0,0.96-0.17,1.22-0.17c0.35,0,0.61,1.04,0.61,1.3c0,0.73-1.15,0.86-1.87,0.87l-0.13,0
	c-1.37,0-3.5-0.59-3.56-3.67L392.86,229.77z M407.37,227.6c3.82,0,5.74,2.52,5.74,7.21c0,0.35-0.61,1.13-0.96,1.13h-8.78
	c0.26,3.04,1.56,4.43,4.26,4.43c2.43,0,3.74-1.13,4.08-1.13c0.35,0,0.96,1.04,0.96,1.39c0,0.7-2.17,1.74-4.95,1.74
	c-4.61,0-6.78-2.35-6.78-7.3C400.94,230.21,403.12,227.6,407.37,227.6z M410.59,233.94c0-2.87-1.13-4.35-3.3-4.35
	c-2.43,0-3.65,1.48-3.91,4.35H410.59z M416.85,241.68v-9.73l0-0.32c-0.03-2.04-0.34-3.07-0.34-3.15c0-0.52,1.13-0.61,1.48-0.61
	c0.7,0,0.78,1.13,0.96,1.82c0.96-1.3,2.09-2.09,3.22-2.09c1.04,0,1.65,0.43,1.65,1.04c0,0.52-0.26,1.48-0.52,1.48
	c-0.35,0-0.61-0.26-1.56-0.26c-1.48,0-2.52,1.65-2.52,1.65v10.17c0,0.35-0.35,0.61-1.13,0.61h-0.09
	C417.19,242.29,416.85,242.03,416.85,241.68z M426.84,231.95c0-2.26-0.35-3.39-0.35-3.48c0-0.52,1.13-0.61,1.48-0.61
	c0.7,0,0.78,1.13,0.96,1.82c1.13-1.3,2.78-2.09,4.35-2.09c2.87,0,4.52,1.65,4.52,4.52v9.65c0,0.35-0.35,0.61-1.13,0.61h-0.09
	c-0.78,0-1.13-0.26-1.13-0.61v-9.39c0-1.65-1.04-2.69-2.87-2.69c-1.22,0-2.61,0.78-3.48,1.91v10.17c0,0.35-0.35,0.61-1.13,0.61
	h-0.09c-0.78,0-1.13-0.26-1.13-0.61L426.84,231.95z M447.96,227.6c3.82,0,5.74,2.52,5.74,7.21c0,0.35-0.61,1.13-0.96,1.13h-8.78
	c0.26,3.04,1.56,4.43,4.26,4.43c2.43,0,3.74-1.13,4.08-1.13c0.35,0,0.96,1.04,0.96,1.39c0,0.7-2.17,1.74-4.95,1.74
	c-4.61,0-6.78-2.35-6.78-7.3C441.44,230.21,443.7,227.6,447.96,227.6z M451.17,233.94c0-2.87-1.13-4.35-3.3-4.35
	c-2.43,0-3.65,1.48-3.91,4.35H451.17z M457.87,229.77h-1.39c-0.35,0-0.52-0.26-0.52-0.87v-0.35c0-0.61,0.17-0.87,0.52-0.87h1.39
	l0.35-2.95c0-0.35,0.26-0.61,0.87-0.61h0.26c0.61,0,0.87,0.26,0.87,0.61v2.95h2.35c0.35,0,0.52,0.26,0.52,0.87v0.35
	c0,0.61-0.17,0.87-0.52,0.87h-2.35v8.6c0,1.65,0.7,2.09,1.48,2.09s0.96-0.17,1.22-0.17c0.35,0,0.61,1.04,0.61,1.3
	c0,0.73-1.15,0.86-1.87,0.87l-0.13,0c-1.37,0-3.5-0.59-3.56-3.67L457.87,229.77z"/>
<path class="st1" d="M223.91,152.86c7.3,0,14.08,2.61,14.08,4.61c0,1.22-1.56,4.26-2.52,4.26c-0.78,0-4.35-3.22-11.47-3.22
	c-13.04,0-17.29,7.56-17.29,20.42c0,11.3,3.39,20.86,16.51,20.86l0.5,0c3.65-0.04,7.15-0.45,8.97-0.95v-14.86h-8.6
	c-1.04,0-1.48-0.7-1.48-2.17v-1.22c0-1.56,0.43-2.17,1.48-2.17h12.95c1.56,0,2.17,0.7,2.17,2.17v19.55c0,4.17-8,5.3-16.43,5.3
	c-14.69,0-22.77-8.26-22.77-25.81C200.02,161.2,208.53,152.86,223.91,152.86z M246.86,203.53l0-25.9c0-6.01-0.85-8.88-0.87-9.28
	l0-0.01c0-1.39,3.04-1.74,4-1.74c1.74,0,2.17,2.95,2.61,4.87c2.52-3.56,5.48-5.56,8.52-5.56c2.87,0,4.26,1.22,4.26,2.87
	c0,1.39-0.61,4-1.48,4c-0.96,0-1.56-0.78-4.08-0.78c-3.82,0-6.78,4.52-6.78,4.52v27.03c0,1.04-0.87,1.65-2.95,1.65h-0.26
	C247.73,205.18,246.86,204.57,246.86,203.53z M285.53,165.9c10.08,0,15.21,6.69,15.21,19.21c0,0.87-1.56,3.04-2.43,3.04h-23.29
	c0.61,8.17,4.08,11.91,11.38,11.91c6.43,0,9.99-3.13,10.78-3.13c1.04,0,2.61,2.87,2.61,3.65c0,1.74-5.82,4.69-13.3,4.69
	c-12.13,0-17.96-6.13-18.07-19.07l0-0.39C268.32,172.85,274.23,165.9,285.53,165.9z M294.14,182.93c0-7.73-2.96-11.65-8.86-11.65
	c-6.43,0-9.82,3.91-10.34,11.65H294.14z M323.77,165.9c10.08,0,15.21,6.69,15.21,19.21c0,0.87-1.56,3.04-2.43,3.04h-23.29
	c0.61,8.17,4.08,11.91,11.39,11.91c6.43,0,9.99-3.13,10.78-3.13c1.04,0,2.61,2.87,2.61,3.65c0,1.74-5.82,4.69-13.3,4.69
	c-12.25,0-18.08-6.26-18.08-19.47C306.65,172.85,312.47,165.9,323.77,165.9z M332.46,182.93c0-7.73-2.95-11.65-8.86-11.65
	c-6.43,0-9.82,3.91-10.34,11.65H332.46z M345.67,203.35l0-25.72l0-0.46c-0.04-5.69-0.85-8.43-0.87-8.82l0-0.01
	c0-1.39,3.04-1.74,4-1.74c1.74,0,2.17,2.95,2.61,4.87c3.13-3.48,7.39-5.56,11.47-5.56c7.56,0,11.99,4.52,11.99,11.91v25.55
	c0,1.04-0.87,1.65-2.96,1.65h-0.26c-2.09,0-2.96-0.61-2.96-1.65v-25.03c0-4.52-2.69-7.13-7.56-7.13c-3.3,0-6.87,2-9.3,5.13v27.03
	c0,1.04-0.87,1.65-2.96,1.65h-0.26C346.54,205,345.67,204.4,345.67,203.35z"/>
<path class="st2" d="M388.08,192.49c1.3,0,4.95,3.39,10.86,3.39l0.21,0c3.09-0.04,6.74-1.06,6.74-5.39c0-8.69-21.29-5.3-21.29-22.68
	c0-10.86,8.86-15.12,17.47-15.12c7.82,0,13.3,2.69,13.3,5.13c0,2-2.26,6.43-4.08,6.43c-0.96,0-3.22-1.82-8.17-1.82
	c-5.74,0-6.87,2.69-6.87,4.35c0,8.43,21.29,5.04,21.29,22.34c0,12.25-8.6,16.34-16.69,16.34c-11.21,0-17.29-4-17.29-6.52
	C383.56,196.75,386.52,192.49,388.08,192.49z M439.79,165.81c11.73,0,17.82,7.04,17.82,19.81c0,12.86-6.08,19.9-17.82,19.9
	s-17.9-7.04-17.9-19.9C421.89,172.76,428.06,165.81,439.79,165.81z M446.57,185.84l0-0.22c0-7.39-2.09-11.21-6.78-11.21
	s-6.87,3.82-6.87,11.21c0,7.39,2.17,11.3,6.87,11.3C444.44,196.92,446.53,193.09,446.57,185.84L446.57,185.84z M481.33,165.81
	l0.31,0c5.18,0.07,11.94,1.8,11.94,5.13c0,1.39-2.69,5.65-3.91,5.65c-0.26,0-0.7-0.26-1.3-0.52l-0.29-0.15
	c-1.3-0.67-3.24-1.5-6.14-1.5c-5.85,0-8.29,3.58-8.34,10.99l0,0.23c0,7.56,2.26,11.3,7.91,11.3c3.48,0,5.82-1.04,7.21-1.74l0.23-0.1
	c0.49-0.2,0.84-0.34,1.07-0.34c1.65,0,3.82,4.17,3.82,5.56c0,4.17-10.52,5.13-12.86,5.13c-12.6,0-18.6-6.43-18.6-19.64
	C462.39,172.76,468.12,165.81,481.33,165.81z M499.15,151.73c0-1.54,1.26-2.32,4.27-2.35l2.25,0c3.13,0,4.43,0.78,4.43,2.35v29.2
	l0.26,0.09l8.95-13.38c0.85-1.18,2.27-1.38,4.35-1.39l2.86,0c2.78,0,4.17,0.43,4.17,1.13c0,0.33-0.23,0.81-0.62,1.37l-10.33,14.71
	l11.99,19.03l0.3,0.58c0.19,0.38,0.31,0.68,0.31,0.98c0,0.7-1.3,1.13-4.17,1.13h-3.13l-0.33,0c-2-0.03-3.44-0.32-4.1-1.39
	l-10.25-16.95l-0.26,0.09v15.9c0,1.56-1.3,2.35-4.43,2.35h-2.09c-3.13,0-4.43-0.78-4.43-2.35L499.15,151.73z"/>
<g transform="translate(4.366437, 16.640467)">
	<path d="M59.55,168.38c-4.43,2.09-16.16,11.47-18.42,14.25c-2.35,2.78-3.04-1.56-0.61-8.78c1.91-5.82,6.78-13.73,14.95-20.51
		c4.78-3.91,15.3-9.56,21.73-12.86c1.3-0.7,18.16-7.82,33.2-11.38c1.3-0.35-1.56,2.17-2,3.56c-2.26,6.6-47.36,34.94-47.36,34.94
		L59.55,168.38z"/>
	<path d="M123.08,248.07c0.78,4.69,0.09,5.04-4.78,5.65c-4.87,0.61-8.43-1.22-9.73-2.43c-1.3-1.22-1.56-3.91-0.26-6.34
		c0.78-1.56,1.56-2.09,2-4c0.43-1.82,0.78-2.26,1.13-2.95c0.35-0.61,0.43-1.22,0.52-5.48c0.09-4.26,0-12.25,0.43-15.64
		c0.43-3.48,15.47,1.56,15.47,1.56s-3.56,8.86-4.52,11.04c-0.96,2.17-0.87,6.34-0.87,7.21c0,0.87-0.35,2.61-0.61,2.69
		c-0.26,0.09,0.87,2.35,0.35,3.65C121.87,244.24,123,247.37,123.08,248.07z"/>
	<path d="M128.82,115.19c-0.52-3.3,0-9.82,0.7-10.86c2.17-2.96,13.64-3.3,16.08,0.17c1.04,1.56,0.96,5.21,0.78,7.56
		c-0.17,2.35-0.78,7.39-0.87,9.04c-0.09,1.22-12.69,3.13-15.47-0.17C129.25,120.06,128.82,115.19,128.82,115.19z"/>
	<path d="M154.37,239.64c5.3,3.82,9.39,4.52,12.08,5.91c2.69,1.39,2,4.08-2.52,4.87c-3.65,0.7-9.39-0.7-13.21-0.7
		c-3.82,0-12.34,0.43-14.6-1.13c-2.61-1.82-1.48-5.21-1.48-5.21c0.7-1.91,2.43-6.17,1.91-9.65c-0.52-3.48-1.22-5.39-2.52-8.6
		c-1.3-3.22-2.26-11.12-1.04-11.56c1.22-0.43,0.87,0,2.43,0.35c1.56,0.35,3.3,0.87,6.69,0.87s7.13-0.52,8.43-0.78
		c1.3-0.26,2.35-0.52,1.91,2.17c-0.43,2.69-1.74,7.73-1.82,11.65c-0.09,3.91-0.09,8.43,0.17,9.21
		C151.07,237.81,152.98,238.68,154.37,239.64z"/>
	<g transform="translate(2.129563, 1.282519)">
		<g transform="translate(0.000000, 20.364227)">
			<path class="st2" d="M133.64,102.23c-9.56,8.26-28.07,10.52-55.53,21.12c-7.04,2.69-25.81,10.78-30.33,19.21
				c15.21-8.78,20.86,3.3,22.07,15.73c1.13,11.65,6.95,17.73,21.9,17.38c15.38-0.35,20.08,8.6,24.33,19.12
				c8.26-40.24,21.47-48.06,29.98-54.92C164.15,125.18,141.9,99.28,133.64,102.23z"/>
			<path class="st2" d="M133.64,102.23c-22.94,8-45.63,9.99-72.31,26.42c-6.34,3.91-19.73,12.77-22.34,29.72
				c9.73-10.78,32.24-24.33,59.79-32.94c13.91-4.35,24.07-7.21,36.41-11.99C134.34,107.88,134.34,105.71,133.64,102.23z"/>
		</g>
		<path d="M162.93,170.22c0,0-1.65,5.65-4.95,7.47c0,0-2.43,0.87-7.3-1.82c-1.39-0.78-2.43-3.48-2.35-4.35
			c0.09-2.09,1.39-3.04,1.39-3.04s1.39-2.35,3.04-2.26c1.65,0.09,4.43,0.35,5.3-0.43C158.84,164.92,163.1,167.35,162.93,170.22z"/>
		<path d="M127.47,115.56c0,0-0.35,4.43-0.96,7.21c-0.09,0.52-2.69,0.78-4.61,1.56c3.65,10.43,25.64,10.34,28.51,5.21
			c-1.39-0.96-4.17-2.43-5.47-2.95c-1.3-0.52-1.22-0.43-1.3-2.87c-0.09-2.43-0.26-6.95-0.43-8.17
			C143.03,114.34,129.56,114.34,127.47,115.56z"/>
		<path class="st3" d="M128.34,115.56c0,0,0,2.52-0.26,4.95c-0.09,1.13-0.17,1.82-0.35,2.69c-0.09,0.52,2.95,2.61,3.82,7.21
			c4.17,9.3,13.82,4.69,17.82,0.26c-1.39-0.96-3.65-2.26-6.26-3.3c-1.3-0.52-0.7-1.65-0.78-4.08c-0.09-2.43-0.43-6-0.61-7.3
			C141.55,114.69,130.43,114.34,128.34,115.56z"/>
		<path d="M127.47,115.56c0,0-0.09,1.56-0.35,3.39c1.13,1.13,2.61,2.69,3.74,3.65c0.78,0.7,2.69,0.61,4.43,0.61
			c1.56,0,2.95,0.17,3.56-0.17c1.39-0.7,3.39-2.43,4.52-3.74c-0.09-1.56-0.17-3.04-0.26-3.74
			C143.03,114.34,129.56,114.34,127.47,115.56z"/>
		<path d="M135.38,122.16c-1.04,0-2.26-0.09-3.22-0.26c-0.43-0.09-0.87-0.35-1.22-0.52c-0.61-0.43-1.22-0.96-1.91-1.48
			c-1.39-1.04-1.48-1.65-1.48-1.91c0.61-5.48-0.17-10.08-0.17-10.08s-0.61-2.35,2.69-2.96s5.3-0.7,5.3-0.7s2.09,0,5.3,0.7
			c3.3,0.61,2.69,2.96,2.69,2.96s-0.78,4.61-0.17,10.08c0,0.26-0.09,0.87-1.48,1.91c-1.22,0.87-2.17,1.82-3.13,2
			C137.64,122.08,136.42,122.16,135.38,122.16z"/>
		<path d="M135.38,102c-5.74,0-6.87,1.56-8.52,3.3c-0.35,0.43-0.09,3.04,0.52,8.6h0.78c0,0-0.52-1.56-0.43-3.39
			c0.09-1.82,0.43-1.74,0.17-2.17c-0.35-0.52-1.04-1.39,0.52-2.26c1.56-0.87,4,0.7,6.95,0.78c2.95-0.09,5.47-1.65,7.04-0.78
			c1.56,0.87,0.87,1.74,0.52,2.26c-0.35,0.52,0.09,0.35,0.17,2.17c0.09,1.82-0.43,3.39-0.43,3.39h0.78c0.52-5.56,0.87-8,0.61-8.43
			C142.59,103.56,141.11,102.09,135.38,102z"/>
		<path d="M162.93,170.48c0,0-1.65,5.3-4.87,7.13c-0.7-0.35-0.61-0.87-1.22-1.65c-0.17-0.26-0.78-0.43-1.04-0.7
			c-0.26-0.26-0.17-0.7-0.61-1.04c-0.35-0.35-0.61-0.09-0.96-0.35c-0.35-0.35-0.43-0.78-0.7-1.04c-0.17-0.17-0.87-0.26-1.04-0.43
			c-0.43-0.43-4.26-1.22-4.08-2.09c0.35-1.3,1.04-2.26,1.04-2.26s1.65-2.43,3.3-2.35c1.65,0.09,3.22,0.43,4.08-0.35
			C157.8,164.49,163.19,167.7,162.93,170.48z"/>
		<path d="M151.63,132.07c0,0,5.47-1.3,9.21,2.26c3.74,3.65,3.48,8.17,2.35,10.95c0.96,1.13,2.69,4.26,1.39,8
			c5.74,4.87,3.22,12.34-1.91,17.29c0,0-1.22-4.52-6.08-4.78c0.17-1.74-4.52-3.13-2.35-7.65c-3.3-0.78-3.22-3.04-3.74-5.82
			C150.07,149.54,151.63,132.07,151.63,132.07z"/>
		<path class="st3" d="M149.63,134.5c0,0,6.34-3.22,10.08,0.43c3.74,3.65,2.69,7.65,1.56,10.43c0.96,1.13,3.22,4.35,1.82,8.17
			c-0.26,0.87-2.17,0.87-3.56,3.13c3.48-2,5.65-1.48,6.43,1.04c1.22,3.91-1.48,8.6-3.82,11.21c0-0.09-0.09-0.17-0.09-0.26
			c-0.35,1.3-0.78,3.82-3.39,6.6c-1.3,1.39-2.35,1.22-3.82,0.87c-1.74-0.43-2.35-1.22-4.78-2.52c-1.39-0.78-0.61-1.74-0.61-2.52
			c0-0.17,0.17-0.43,0.43-0.78c0.17-0.43,0.7-1.13,1.48-1.91c0,0,1.13-1.56,2.78-1.48c1.65,0.09,3.39-0.26,3.82-0.7l0,0
			c0-3.04-3.48-3.13-2.26-8.34c0.09-0.26,0.52-0.7,1.91-0.87c-2.09-0.43-3.04-0.52-4.52-1.91c-1.04-0.96-1.82-2.17-2.09-3.74
			C150.5,148.67,149.63,134.5,149.63,134.5z"/>
		<path d="M131.29,129.03c-0.52-0.7-3.22-4.17-8.34-5.56c-1.48-0.43-2.43,0.78-3.91,1.65c-0.43-0.26-2.35-1.13-3.39-0.52
			s-1.74,1.22-2.78,1.65c-0.52-0.26-1.91-0.26-3.04,0.17c-1.13,0.35-2.87,1.13-4.52,3.39c-1.04,3.74,18.42,0.96,18.42,0.96
			L131.29,129.03z"/>
		<path class="st2" d="M131.47,129.03c-2.78-0.96-2.35-4.17-8.52-4.69c-1.22-0.09-2,0.87-2.87,1.48c0.43,0.43,0.87,1.13,1.13,1.82
			c-0.78-0.87-2.17-2-3.56-2.26c-1.3-0.26-2.17,0.7-3.56,1.39c0.26,0.26,0.52,0.7,0.87,1.22c-1.22-0.78-2.09-1.04-3.74-0.43
			c-1.13,0.35-3.3,1.3-4.95,3.65c-1.04,3.74,17.56-0.43,17.56-0.43L131.47,129.03z"/>
		<path d="M147.81,130.42c0,0,0-0.96-0.09-1.82c0-0.17-0.7-0.61-0.7-0.78l-0.17-0.17c0,0,1.39-0.78,2.43-0.35
			c1.13,0.35,1.74,1.82,1.74,1.82c2-0.7,2.17,0.09,3.13,1.13c2.09-0.43,2.35,0.35,3.65,2.26c0,0-1.56-0.26-4.61,0.26
			C150.24,133.2,147.81,130.33,147.81,130.42z"/>
		<path class="st2" d="M147.46,129.98c0,0,0.52-0.43,0.35-0.52c0.96-0.52,2.26-1.13,2.87,0.52c2-0.7,2.26,0.26,3.22,1.3
			c2.43-1.13,2.61,0.26,2.78,0.87c-0.78,0-1.91,0.09-3.48,0.26C150.24,132.85,147.37,129.9,147.46,129.98z"/>
		<path d="M117.91,127.81c0,0,4.95,1.74,9.13,1.48c4.17-0.35,11.3-0.7,15.12,1.56c0,0,3.91-1.39,7.56-0.43
			c3.65,0.96,10.34,7.21,8.34,13.82c-0.17,0.43-1.3,1.13-2.61,1.56c0,0,0.7,2.95-0.52,5.39c-1.22,2.35-3.91,6.87-4,13.12l0,0
			c-0.09,1.04-0.26,3.22-0.43,4.26c-6.78-0.26-17.21-2.78-27.46-2.61c0.09-1.13,0.17-1.82,0.26-2.95h0.26
			c-0.52-2.87-0.7-4.35-1.22-6.52c-3.3-2.09-6.78-4.52-9.73-9.13C109.74,142.76,117.91,127.81,117.91,127.81z"/>
		<path d="M151.46,174.74c0,0,5.39,19.29-0.96,27.38c0,0,0.96,3.74-1.22,7.73c-0.35,1.74-0.78,3.3-1.04,5.04
			c-1.13,7.21-3.04,10.25-3.56,21.81l-5.21-0.09c0,0-0.61-8.34-2.43-12.78c-1.04-2.52-5.13-5.91-4.95-9.3
			c0.17-2.61,0.7-4.78,5.13-8.26c0.35-5.04-4.69-9.82-3.91-28.59L151.46,174.74z"/>
		<path class="st3" d="M149.89,173.96c1.39,8.86,4.61,21.99-1.22,28.42c0.26,1.22,0.43,2.96,0.09,4.95
			c-0.17,1.04-0.52,2.17-0.96,3.39c-0.87,2.09-1.22,5.13-1.48,6.95c-1.13,7.21-1.13,7.56-1.65,19.12l-5.21-0.09
			c0,0-0.61-8.34-2.43-12.77c-1.04-2.52-3.22-4.69-3.39-8.08c-0.17-2.61,1.65-7.82,6-7.65c-0.26-10.52-5.13-8.43-6.43-30.33
			L149.89,173.96z"/>
		<path class="st3" d="M117.91,127.81c0,0,1.91,0.61,4,0.78c2.09,0.17,4.35,0,6.34-0.09c4.17-0.35,10.08-0.78,13.99,1.48
			c0,0,2.17-0.7,4.52-0.52c1.04,0.09,2.09,0.96,3.3,1.3c3.82,0.96,7.47,7.3,5.82,13.04c-0.17,0.43-1.39,0-2.78,0.43
			c0.26,1.22,0.43,4-0.96,6.95c-1.48,2.96-3.39,6.78-3.04,14.08c-9.13-0.43-13.21-1.04-22.25-1.48c-0.78-3.22-1.3-6.43-1.39-8.08
			c1.22-0.61,1.91-1.13,2.87-2.17c-2.61,0.43-3.65,0.26-5.21-0.61c-1.56-0.87-4.35-3.65-5.74-5.47c-0.17-0.17-1.13,2.69-3.3,2.78
			c-0.78-1.13,2.52-4.35,1.91-5.56C113.83,140.24,117.91,127.81,117.91,127.81z"/>
		<path d="M150.59,166.74c0,0,0.17,3.13,0.17,3.91c0,0.87,0.7,3.48,0.78,4.69c-0.96,1.65-5.13,5.39-12.69,6.78
			c-7.47,1.56-17.38-10.17-17.38-10.17c0.26-1.13,1.13-4.43,1.74-6.17c0.09-0.17,0.26-0.61,0.26-0.78
			C124.26,163.88,150.59,166.74,150.59,166.74z"/>
		<path class="st3" d="M148.68,167.01c0,2.17,0.35,3.74,0.61,5.13c0.43,2.52,1.13,4.17,1.13,5.82c0,5.04-6.6,4.17-12.17,4.35
			c-7.47,1.56-13.82-10.17-13.82-10.17c0.52-2,0.87-4.26,1.65-6.17l0,0c0.09-1.04,0.26-2.35,0.35-2.95c10.6,0,18.08,0.61,22.42,1.04
			C149.02,165.01,148.85,166.66,148.68,167.01L148.68,167.01z"/>
		<path d="M140.33,178.22c0,0-4.61-10.25-18.42-7.21c-3.3,9.3-7.73,19.99-4.87,31.55c-2.87,3.91-6.17,6.08-6.17,13.3
			c0,7.21,0.35,8.43,0.35,8.43l10.17,0.52c0,0,3.3-4.26,4.61-8.86c0.35-1.3,0.7-3.65,0.43-6.34c0.35-0.52,1.82-1.74,2-4.08
			c0,0,4.95-2.61,7.82-8.95C138.94,190.82,138.25,185.86,140.33,178.22z"/>
		<path class="st3" d="M140.33,178.22c-0.26-0.96-3.74-10.34-16.6-7.56c-7.56,20.16-4.78,28.51-3.65,32.16
			c-5.13,6.52-7.47,7.91-6.43,21.12h6.78c3.13-4.95,3.82-6.78,4-13.3c0-0.26-0.96,0.52-1.65,1.39c0.52-2.69,2-3.22,3.13-4.87
			c0.52-0.7,0.96-1.74,0.96-3.13c6.08-4.08,8.34-9.21,9.65-14.51C137.55,185.86,138.77,179.87,140.33,178.22z"/>
		<path d="M118.87,164.23c0,0,2.35,0.09,4.43,0.78c2,0.7,2,1.13,2.78,2c0.78,0.87,2.69,2.17,2.35,3.48
			c-0.17,0.7-0.61,0.87-1.22,1.48c-0.26,0.26-2.17,2.35-2.61,2.61c-0.26,0.17-0.61,0.43-0.87,0.61c-0.26,0.17-1.04,0.7-1.3,0.87
			c-0.87,0.43-1.48,0.7-2.43,0.61c0,0-2.17-0.09-3.56-1.56c0,0-0.17-0.7,0.17-1.04c0,0-1.83-1.56-2.35-2.61
			c-0.52-1.04-0.52-2.52-0.17-3.3C114.26,167.35,117.65,165.18,118.87,164.23z"/>
		<path d="M121.04,248.78l-0.26,2.17c0,0-0.78,0.96-6.6,0.87c-5.91-0.09-7.47-1.91-8-2.87l-0.35-2.26c0,0,1.13-1.65,1.39-1.65
			c1.91,0.17,8.43,2.78,12.95,3.48C120.61,248.52,120.69,248.7,121.04,248.78z"/>
		<path d="M133.64,244.35c0,0.96-0.09,0.96-0.09,1.91c1.04,0.78,3.65,1.22,8.6,1.13c7.21-0.17,13.91,2.17,22.07,0.78l0.09-1.56
			l-0.78-0.09l-28.94-2.35L133.64,244.35z"/>
		<path d="M139.99,247.39c0.7,0,1.39,0,2.17,0c4.69-0.17,9.13,0.87,13.91,1.13c2.52-0.09,5.65-0.7,5.39-2.52l-24.68-2.09
			C135.29,245.57,136.42,246.96,139.99,247.39z"/>
		<path d="M111.65,210.81c0.78,0.52,6.08,3.65,14.69,3.22c-0.17,1.65-0.09,4.87-3.91,10.52c-1.91,2.78-3.56,7.65-3.91,13.82
			c0.09,1.39,0.87,2.61-0.17,4.43c0.35,1.13,1.74,3.39,2.43,4.78c0.7,1.39,1.04,2.96-3.56,3.04c-4.69,0.09-12.25-0.43-11.21-4.08
			c0.52-1.91,2-3.91,2.17-4.69c0.17-0.78,0.17-3.13,1.65-4.69c1.3-4.35,0.87-8.52,0.61-12.43
			C110,220.63,109.92,214.11,111.65,210.81z"/>
		<path d="M119.74,139.98c6.17-8.26,0.96-14.86-8.95-12.86c-4,0.78-8,3.56-8.26,8.6c-1.3,0.17-4.26,0.35-5.74,5.74
			c-1.13,4.17-1.74,4.95-3.74,7.04c-1.3,1.48,0.09,4.52,1.04,6.69c3.22,7.47,13.12,8.17,19.81,13.82c2.26-0.61,4.61-3.13,5.3-4.78
			c-5.65-6.69-4.43-9.3-6.69-12.78C114.96,150.58,120.52,147.19,119.74,139.98z"/>
		<path class="st3" d="M118.52,139.46c0.35-0.52,0.96-1.65,1.22-2.09c0.09-0.09,1.04,1.56,1.13,1.48c2.35-3.82,2.95-9.39,0.26-9.91
			c-0.61-0.09-1.74-0.35-2.69-0.7c-1.74-0.61-3.3-0.61-6.08-0.09c-3.82,0.7-7.65,3.48-7.65,7.47c0,0.26,2.69,1.04,3.48,4.26
			c-1.3-1.83-3.56-3.82-6.26-2.09c-2.87,1.82-1.39,6-5.21,10.34c-1.3,1.48-1.13,3.22,0.26,6.69c2.26,5.48,12.95,8.43,18.77,13.64
			c1.39-0.61,2.35-2,3.04-3.04c-3.91-4.08-5.48-7.91-6.6-10.69c-1.39-3.22-2.96-5.04-6-7.47c1.56,0.61,2.78,1.22,3.48,1.74
			c0.78,0.52,1.91,0.61,2.96,0.26C116.35,147.97,118.35,142.76,118.52,139.46z"/>
		<path d="M156.32,140.85c-0.26,3.3-2.69,1.65-4,1.04c-2.61-1.13-5.21-1.91-8.26-1.91s-6.95,0.26-10.34,1.13
			c-4.69,1.3-6.08,1.22-8.17,0.17c-2.09-1.13-5.74-3.91-5.74-3.91s-0.09,0.87,0.78,2c1.13,1.39,3.65,3.13,7.04,4.26
			c1.65,0.52,2.96,0.17,4.43-0.17c7.73-1.91,15.9-2.26,22.77,1.91c0.35,0.17,1.56-0.35,2.09-1.13
			C157.63,143.11,156.32,140.85,156.32,140.85z"/>
		<path class="st4" d="M116.78,173.96c0.7,0.43,1.56,0.7,2.52,1.48c0,0-0.78,0-1.13-0.35C117.74,174.83,116.87,174.05,116.78,173.96
			L116.78,173.96z"/>
		<path class="st3" d="M141.9,105.04c-0.26-0.78-2.17-2.17-6.6-2.17c-4.78,0-6.17,1.48-6.26,2.26c0,0.26-0.35,3.04-0.43,4.17
			c0,0,0,1.39,0.09,3.48c0.09,1.39,0.43,2.17,0.61,4c0.17,1.91,0.7,3.13,1.65,4.69c0.43,0.26,0.78,0.52,1.22,0.61
			c1.74,0.35,4.78,0.43,6.43,0c0.96-0.26,2.17-1.91,2.43-3.39c0.35-1.82,0.7-3.13,0.78-4.26c0.17-1.13,0.26-3.65,0.35-4.35
			C142.42,108.17,141.98,105.22,141.9,105.04z"/>
		<path d="M132.77,212.46c0,0,4.61,2,15.99,0.26c0,0-3.22,16.16-1.74,24.25c0,0,1.48,2.09,12.43,6.08c0,0,4.87,1.22,4.69,3.65
			c0,0,0.17,0.52-5.74,0.35c-5.91-0.17-11.47-1.22-15.38-1.22s-8.08,0.17-8.78-0.96c-0.78-1.04,0.17-3.74,1.3-5.3
			c1.22-1.65,0.87-2.87,0.78-5.82C136.07,226.02,130.16,218.02,132.77,212.46z"/>
		<path class="st2" d="M131.82,213.94c-0.61,0.87,0.09,4.17,0.96,7.39c0.87,3.22,2.78,5.13,3.22,10.43
			c0.43,5.21,0.52,5.91-0.96,8.95c-1.48,3.04-1.91,5.82,3.22,5.91c5.13,0.09,7.91-0.09,13.12,0.7c5.21,0.78,7.04,1.04,9.91,0.61
			c2.87-0.43,3.48-1.39,2.26-2.26c-1.22-0.87-6.26-1.82-8.43-3.56c-2.09-1.56-8-4.17-8.08-4.87c-0.26-2.35-0.35-10.86,0.09-13.64
			c0.43-2.78,1.04-6.78,1.22-7.82c0.17-1.04,1.04-2.09-0.43-1.74c-1.48,0.35-7.04,1.13-11.21,0.87
			C132.51,214.63,132.08,213.67,131.82,213.94z"/>
		<path class="st5" d="M134.77,240.79c1.48,0.7,3.65,1.22,5.3,1.22c0,0-0.61,2.87,0.35,4.61c0.96,1.74-6.95,0.7-6.95,0.7l-0.35-6.17
			L134.77,240.79z"/>
		<path class="st5" d="M157.8,248.26c1.39-0.43,2.35-2,1.22-3.48c-1.22-1.48-2.26-1.74-0.7-1.82c1.56-0.09,7.3,3.39,7.3,3.39
			l-2.96,2.69L157.8,248.26z"/>
		<path class="st5" d="M131.56,217.32c2,0.7,5.04,0.87,7.65,0.78c2.61-0.09,6.52-0.43,9.04-1.3c2.52-0.87,1.48,0.96,1.48,0.96
			l-1.39,1.3c0,0-3.3,1.3-8.69,1.22c-6.34-0.09-8.26-0.78-8.26-0.78L131.56,217.32z"/>
		<path class="st5" d="M131.73,221.67c2,0.7,5.04,0.87,7.65,0.78c2.61-0.09,6.08-0.09,8.6-1.04c1.04-0.35,0.43,1.13,0.43,1.13
			l-0.43,0.78c0,0-3.39,1.22-8.69,1.13c-6.34-0.09-7.47-0.61-7.47-0.61L131.73,221.67z"/>
		<path class="st6" d="M132.77,212.46c0,0,7.56,2.69,16.08,0.87c0,0-3.3,15.56-1.82,23.55c0,0,1.48,2.09,12.43,6.08
			c0,0,4.87,1.22,4.69,3.65c0,0,0.17,0.52-5.74,0.35c-5.91-0.17-11.47-1.22-15.38-1.22s-8.08,0.17-8.78-0.96
			c-0.78-1.04,0.17-3.74,1.3-5.3c1.22-1.65,0.87-2.87,0.78-5.82C136.07,226.02,130.16,218.02,132.77,212.46z"/>
		<path class="st6" d="M132.77,212.46c0,0,7.56,2.61,16.08,0.78c0,0-3.3,15.64-1.82,23.64c0,0,1.48,2.09,12.43,6.08
			c0,0,4.87,1.22,4.69,3.65c0,0,0.17,0.52-5.74,0.35c-5.91-0.17-11.56-1.82-15.38-1.22c-4.08,0.7-8.08,0.43-8.78-0.96
			c-0.61-1.13,0.17-3.74,1.3-5.3c1.22-1.65,0.87-2.87,0.78-5.82C136.07,226.02,130.16,218.02,132.77,212.46z"/>
		<path d="M125.99,160.75c0,0.61,6.78,4,10.52,4.69c3.74,0.7,11.56,0,12.78-0.26l-0.17,1.22c0,0-9.3,1.39-16.42-0.52
			c-7.13-1.91-6.34-2.35-6.34-2.35L125.99,160.75z"/>
		<g transform="translate(68.077456, 109.762560)">
			<path class="st3" d="M43.4,125.12c1.04,0.52,4.78,1.48,7.21,0.96c0.35-0.09,0-6,0.96-8.69c1.39-3.74,3.65-6.78,4.69-13.38
				c-3.65-0.35-7.82-1.3-9.99-2C43.49,110.52,44.45,117.82,43.4,125.12z"/>
			<path class="st3" d="M49.23,130.59c0.61,0.17,1.04,0.87,1.22,0.43c0.35-0.78-0.61-2.26-0.7-3.3c0-0.09,0,0,0-0.09
				c-0.78-0.7-6.08-0.78-5.74-0.43c-0.61,1.13-1.56,0.96-1.91,3.22c-0.17,1.13,1.22,0.17,2.52,0.09c-2.35,1.56-5.04,3.56-5.47,5.3
				c-0.52,2.43,0.35,3.13,2.96,4.43c2.26,0.52,4.95,0.61,7.04,0.52c2.35-0.43,2.78-1.56,2.09-3.13
				C50.18,135.29,49.49,132.24,49.23,130.59z"/>
		</g>
		<path d="M118.26,127.46c2.87,1.65,6.87,1.22,8.34,1.13c0.35,0,3.82-0.61,4-0.52c0.35,0.09,0.35,0.35,0.35,0.35s-1.3,0.7-4.26,0.87
			c-2.78,0.17-6.08,0-7.91-0.87C116.61,127.46,118.26,127.46,118.26,127.46z"/>
		<path d="M147.81,129.11c0.52,0.35,3.91,1.65,5.39,3.22c1.3,1.39,0.61,1.3,0.35,0.96c-0.35-0.43-3.04-2.26-4.08-2.69
			c-1.04-0.43-2.35-1.22-2.35-1.39S147.81,129.11,147.81,129.11z"/>
		<path class="st3" d="M117.82,165.18c2.52-0.17,5.13,0.43,6.78,2.17c0.87,0.87,2.26,1.82,2.09,2.69c0,0.26-0.52,0.96-0.96,1.48
			c-0.26,0.35-1.04,1.13-1.3,1.39c-0.35,0.26-1.56,1.22-1.82,1.39c-0.26,0.17-0.61,0.61-0.87,0.7c-0.87,0.43-1.82,0.09-2.69-0.35
			c-0.87-0.43,0.17-0.52-0.78-1.22c-2.35-1.65-3.65-2.78-2.69-6C115.65,166.83,116.61,166.14,117.82,165.18z"/>
	</g>
	<path class="st7" d="M97.79,146.56c-7.82,3.13-27.72,13.04-33.37,16.08l0,0c4.69,2.95,6.87,10.08,7.56,17.29
		c0.09,0.7,0.17,1.3,0.26,2c0.09,0.61,0.17,1.04,0.26,1.3c0,0.09,0,0.26,0.09,0.35c5.13-13.99,23.46-28.77,24.16-29.9
		c0.35-0.52-0.43-2.78,0.78-4.95C99.1,145.95,102.14,144.74,97.79,146.56z"/>
	<path class="st7" d="M116.39,212.18c4-8,4.08-15.64,4-24.59c0-3.74,2.69-9.04,1.3-7.56c-5.21,5.82-18.34,16.77-27.81,17.38
		C107.18,196.97,112.39,203.66,116.39,212.18z"/>
	<path d="M56.77,170.03c4.95-3.56,30.59-17.21,36.76-19.12c6.17-2,4.26-4.35,4.26-4.35s-25.03,10.78-39.98,20.08"/>
	<path class="st7" d="M129.77,144.91c-2-0.78-3.56,1.56-3.04,3.82c0.52,2.26,5.21,4.78,4.95,13.04c-0.17,6.78-1.65,9.56-1.65,9.56
		l-3.3-4.17c0,0-0.52-9.39-1.65-10.78c-1.13-1.39-4.69-3.91-6.08-5.21c-1.39-1.3,1.56-3.04,1.39-5.48
		c-0.17-2.35,1.48-7.04,1.48-7.04L129.77,144.91z"/>
	<path class="st7" d="M141.85,181.93c-0.17,6.52,1.3,16.16,1.91,20.77c0.61,4.61,1.39,4.95,0,7.04c-1.39,2-3.22,5.3-3.22,5.3
		l-6-0.52c0,0,4.78-6.08,5.04-7.21c0.26-1.13-2.43-9.73-2.43-9.73L141.85,181.93z"/>
	<path class="st7" d="M130.3,121.1c1.22,2.69,2.69,3.91,5.04,4.69c1.39,0.52,6.87,1.22,9.04-1.22c0.96-1.13,0.35-4.17,0.35-4.17
		l-4.95,4l-6.69-1.22l-0.78-2L130.3,121.1z"/>
	<path class="st8" d="M130.82,127.09c2.26,1.48,7.91,2.87,9.47,3.13c1.56,0.35,4.08-1.65,5.3-2.17c1.3-0.61,3.56-0.96,6.17,1.39
		c0.26,0.26-0.61,1.39-0.61,1.39c-0.09-0.09-0.61-0.09-1.3-0.43c-0.7-0.35-1.3-0.61-2.35-0.52c-4.35,0.52-5.04,2-8.86,1.13
		c-3.82-0.87-4.78-1.56-8.52-1.39"/>
	<path class="st2" d="M130.03,127.36c2.87,1.22,8.43,2.52,9.99,2.87s4.08-1.22,5.3-2c2.17-1.39,4.95-0.26,6.26,1.22
		c0.87,0.96,1.22,1.56,1.22,1.82c0,0.35-1.04,0-1.04,0c-0.61-0.26-1.3-0.35-1.82-0.7c-0.7-0.35-1.39-0.87-2.43-0.78
		c-4.35,0.52-5.21,2-8.95,1.13c-3.74-0.87-4.69-1.65-8.69-1.39"/>
	<path d="M116.56,208.53c-0.17-0.17,0.17-0.35,0-0.35c-1.13,0-2.69-0.87-3.56-2.09c-3.74-5.39-9.21-8.95-19.12-8.69
		c-14.86,0.35-20.77-5.74-21.9-17.38c-0.61-6.34-2.35-12.51-5.91-15.99l-2.09,1.3c4,3.48,5.3,9.13,6.17,16.86
		c1.39,11.65,10.78,17.03,21.73,17.21c11.38,0.17,15.47,2.52,19.73,8.26c1.39,1.82,2.96,2.43,4.17,2.69L116.56,208.53z"/>
	<path class="st7" d="M156.89,152.65c0.26,1.3,0.96,3.82,2.35,5.04c0.61,0.61,0.7,0.78,0.17,0.78c-0.52,0-4.35-0.17-4.35-0.17
		l-1.04-1.82L156.89,152.65z"/>
</g>
</svg>
