<?xml version="1.0" encoding="UTF-8" standalone="no"?>
<!DOCTYPE svg PUBLIC "-//W3C//DTD SVG 1.1//EN" "http://www.w3.org/Graphics/SVG/1.1/DTD/svg11.dtd">
<svg xmlns="http://www.w3.org/2000/svg" version="1.1" viewBox="0.00 0.00 317.00 385.00">
<g stroke-width="2.00" fill="none" stroke-linecap="butt">
<path stroke="#808080" vector-effect="non-scaling-stroke" d="
  M 279.50 31.02
  A 0.27 0.27 0.0 0 0 279.23 30.75
  L 35.77 30.75
  A 0.27 0.27 0.0 0 0 35.50 31.02
  L 35.50 351.24
  A 0.27 0.27 0.0 0 0 35.77 351.51
  L 279.23 351.51
  A 0.27 0.27 0.0 0 0 279.50 351.24
  L 279.50 31.02"
/>
<path stroke="#808080" vector-effect="non-scaling-stroke" d="
  M 177.23 315.25
  A 0.39 0.39 0.0 0 0 177.60 314.76
  L 109.04 67.29
  A 0.39 0.39 0.0 0 0 108.66 67.00
  L 71.51 67.00
  A 0.39 0.39 0.0 0 0 71.14 67.49
  L 139.90 314.96
  A 0.39 0.39 0.0 0 0 140.28 315.25
  L 177.23 315.25"
/>
<path stroke="#808080" vector-effect="non-scaling-stroke" d="
  M 184.15 292.17
  L 243.78 67.73
  Q 243.97 67.00 243.22 67.00
  L 206.98 67.00
  A 0.92 0.91 7.3 0 0 206.09 67.68
  Q 185.83 143.93 165.45 220.38
  Q 164.90 222.45 165.40 224.52
  Q 173.62 258.54 183.60 292.18
  Q 183.89 293.15 184.15 292.17"
/>
</g>
<path fill="#ffffff" d="
  M 0.00 0.00
  L 317.00 0.00
  L 317.00 385.00
  L 0.00 385.00
  L 0.00 0.00
  Z
  M 279.50 31.02
  A 0.27 0.27 0.0 0 0 279.23 30.75
  L 35.77 30.75
  A 0.27 0.27 0.0 0 0 35.50 31.02
  L 35.50 351.24
  A 0.27 0.27 0.0 0 0 35.77 351.51
  L 279.23 351.51
  A 0.27 0.27 0.0 0 0 279.50 351.24
  L 279.50 31.02
  Z"
/>
<path fill="#000000" d="
  M 279.50 351.24
  A 0.27 0.27 0.0 0 1 279.23 351.51
  L 35.77 351.51
  A 0.27 0.27 0.0 0 1 35.50 351.24
  L 35.50 31.02
  A 0.27 0.27 0.0 0 1 35.77 30.75
  L 279.23 30.75
  A 0.27 0.27 0.0 0 1 279.50 31.02
  L 279.50 351.24
  Z
  M 177.23 315.25
  A 0.39 0.39 0.0 0 0 177.60 314.76
  L 109.04 67.29
  A 0.39 0.39 0.0 0 0 108.66 67.00
  L 71.51 67.00
  A 0.39 0.39 0.0 0 0 71.14 67.49
  L 139.90 314.96
  A 0.39 0.39 0.0 0 0 140.28 315.25
  L 177.23 315.25
  Z
  M 184.15 292.17
  L 243.78 67.73
  Q 243.97 67.00 243.22 67.00
  L 206.98 67.00
  A 0.92 0.91 7.3 0 0 206.09 67.68
  Q 185.83 143.93 165.45 220.38
  Q 164.90 222.45 165.40 224.52
  Q 173.62 258.54 183.60 292.18
  Q 183.89 293.15 184.15 292.17
  Z"
/>
<path fill="#ffffff" d="
  M 177.23 315.25
  L 140.28 315.25
  A 0.39 0.39 0.0 0 1 139.90 314.96
  L 71.14 67.49
  A 0.39 0.39 0.0 0 1 71.51 67.00
  L 108.66 67.00
  A 0.39 0.39 0.0 0 1 109.04 67.29
  L 177.60 314.76
  A 0.39 0.39 0.0 0 1 177.23 315.25
  Z"
/>
<path fill="#ffffff" d="
  M 183.60 292.18
  Q 173.62 258.54 165.40 224.52
  Q 164.90 222.45 165.45 220.38
  Q 185.83 143.93 206.09 67.68
  A 0.92 0.91 7.3 0 1 206.98 67.00
  L 243.22 67.00
  Q 243.97 67.00 243.78 67.73
  L 184.15 292.17
  Q 183.89 293.15 183.60 292.18
  Z"
/>
</svg>
