<?xml version="1.0" encoding="UTF-8" standalone="no"?>
<!DOCTYPE svg PUBLIC "-//W3C//DTD SVG 1.1//EN" "http://www.w3.org/Graphics/SVG/1.1/DTD/svg11.dtd">
<svg xmlns="http://www.w3.org/2000/svg" version="1.1" viewBox="0.00 0.00 500.00 500.00">
<g stroke-width="2.00" fill="none" stroke-linecap="butt">
<path stroke="#8b688b" vector-effect="non-scaling-stroke" d="
  M 141.12 202.19
  Q 142.36 203.57 142.86 205.14"
/>
<path stroke="#c3a8bc" vector-effect="non-scaling-stroke" d="
  M 142.86 205.14
  Q 141.80 205.41 141.17 206.03"
/>
<path stroke="#b59cb4" vector-effect="non-scaling-stroke" d="
  M 141.17 206.03
  Q 134.24 207.81 130.46 214.02
  C 120.10 231.02 140.29 253.50 154.47 260.33"
/>
<path stroke="#c3a8bc" vector-effect="non-scaling-stroke" d="
  M 154.47 260.33
  L 157.73 261.56"
/>
<path stroke="#b59cb4" vector-effect="non-scaling-stroke" d="
  M 157.73 261.56
  C 160.14 263.00 159.85 264.70 160.65 266.82
  Q 162.96 272.94 165.39 278.75
  A 1.76 1.76 0.0 0 1 164.96 280.73
  L 158.43 286.71"
/>
<path stroke="#9c7fb5" vector-effect="non-scaling-stroke" d="
  M 158.43 286.71
  Q 123.93 319.65 136.94 366.41
  A 1.11 1.10 -19.9 0 1 136.32 367.72
  C 121.31 374.39 106.92 383.67 94.02 393.84
  Q 78.60 405.99 72.46 424.44"
/>
<path stroke="#7a72a7" vector-effect="non-scaling-stroke" d="
  M 72.46 424.44
  Q 72.87 426.03 75.01 427.99
  Q 93.39 444.89 111.23 457.18
  C 138.93 476.25 171.37 488.99 204.49 495.21"
/>
<path stroke="#b9adde" vector-effect="non-scaling-stroke" d="
  M 204.49 495.21
  L 214.54 496.81"
/>
<path stroke="#7a72a7" vector-effect="non-scaling-stroke" d="
  M 214.54 496.81
  Q 219.19 497.58 227.19 498.06
  Q 256.67 499.83 284.00 497.07"
/>
<path stroke="#b9adde" vector-effect="non-scaling-stroke" d="
  M 284.00 497.07
  L 294.00 495.44"
/>
<path stroke="#7a72a7" vector-effect="non-scaling-stroke" d="
  M 294.00 495.44
  C 343.70 486.34 388.06 463.68 424.55 428.55
  A 2.39 2.38 55.2 0 0 425.04 425.81
  L 422.84 421.19"
/>
<path stroke="#9c7fb5" vector-effect="non-scaling-stroke" d="
  M 422.84 421.19
  Q 413.16 399.51 393.49 386.18
  Q 390.15 383.91 385.78 380.65
  Q 381.97 377.80 377.81 375.48
  C 375.52 374.20 372.02 371.71 368.46 370.34
  A 1.45 1.44 24.6 0 1 367.70 368.31
  C 375.25 354.04 375.28 338.25 370.96 322.90
  Q 367.96 312.24 365.95 308.55
  C 358.55 294.94 350.07 282.97 337.24 273.88
  Q 336.74 273.52 336.94 272.94
  L 340.37 263.03
  Q 340.54 262.52 341.06 262.37
  C 355.03 258.48 365.70 247.04 370.94 233.85
  Q 377.96 216.16 362.66 206.39
  Q 362.28 206.15 362.11 205.74
  Q 361.71 204.79 362.49 204.49
  A 0.89 0.87 -84.9 0 0 362.95 204.10
  C 366.42 197.91 368.49 190.38 369.04 183.72
  C 370.72 163.65 366.98 145.98 363.07 127.51
  C 360.29 114.36 367.37 102.70 379.54 97.61
  A 1.76 1.76 0.0 0 0 379.98 94.63
  C 365.54 82.70 348.79 78.21 329.19 76.67
  Q 326.03 76.42 323.62 76.82
  Q 323.11 76.91 323.01 76.40
  Q 322.90 75.84 323.03 75.28"
/>
<path stroke="#8b688b" vector-effect="non-scaling-stroke" d="
  M 323.03 75.28
  L 324.06 74.78"
/>
<path stroke="#9c7fb5" vector-effect="non-scaling-stroke" d="
  M 324.06 74.78
  C 324.84 74.77 325.44 74.86 326.14 74.40
  Q 338.54 66.23 352.59 62.54
  A 1.62 1.62 0.0 0 0 352.96 59.56
  C 323.48 43.46 286.78 44.43 255.47 54.98
  A 0.78 0.78 0.0 0 1 254.48 53.99
  Q 258.47 42.18 268.13 34.48
  C 269.70 33.23 271.60 32.84 272.11 30.30
  A 0.61 0.60 6.9 0 0 271.54 29.58
  Q 266.81 29.39 259.79 30.18
  C 236.52 32.82 216.36 41.60 198.11 56.00
  C 188.85 63.31 180.53 70.86 173.43 79.91
  A 1.02 1.02 0.0 0 1 171.61 79.34
  Q 170.83 66.89 178.13 57.06
  A 0.99 0.99 0.0 0 0 177.09 55.52
  L 175.59 55.91
  Q 175.16 56.03 174.80 56.29
  C 153.72 71.98 141.97 97.42 136.96 122.74
  C 133.01 142.65 131.74 163.32 134.81 183.77
  C 135.93 191.28 136.96 196.34 140.22 201.58
  Q 140.97 202.78 141.12 202.19"
/>
<path stroke="#9b736c" vector-effect="non-scaling-stroke" d="
  M 324.06 74.78
  Q 324.02 74.66 324.01 74.49
  Q 324.01 74.24 324.23 74.10
  Q 337.59 65.77 352.73 61.39
  A 0.37 0.37 0.0 0 0 352.81 60.71
  C 321.86 44.19 286.42 45.48 253.77 56.85
  A 0.63 0.63 0.0 0 1 252.95 56.11
  C 255.53 45.13 261.87 38.27 270.40 31.33
  Q 270.81 30.99 270.28 30.99
  Q 247.17 31.06 227.94 39.45
  Q 195.16 53.75 171.85 83.19
  Q 171.47 83.67 171.37 83.07
  Q 169.04 68.93 176.68 57.10
  Q 177.62 55.64 176.24 56.69
  C 139.87 84.16 130.80 137.73 135.24 179.50
  Q 136.64 192.70 141.12 202.19"
/>
<path stroke="#9b736c" vector-effect="non-scaling-stroke" d="
  M 323.03 75.28
  L 321.36 76.29
  Q 320.70 76.70 321.43 76.95
  C 323.01 77.51 324.93 77.13 326.18 77.25
  C 346.68 79.21 363.57 82.36 379.78 95.56
  Q 380.33 96.01 379.68 96.30
  C 365.61 102.49 358.46 116.46 362.63 131.54
  Q 368.18 151.64 368.74 172.50
  C 368.98 181.82 367.60 194.12 362.95 202.36
  Q 361.59 204.78 360.69 206.85"
/>
<path stroke="#c29c73" vector-effect="non-scaling-stroke" d="
  M 360.69 206.85
  C 352.22 215.63 351.59 227.09 349.58 238.51
  Q 349.14 240.99 344.48 245.06"
/>
<path stroke="#c5a280" vector-effect="non-scaling-stroke" d="
  M 344.48 245.06
  C 345.00 233.43 345.63 214.75 338.69 205.91
  C 333.71 199.57 332.79 192.77 336.53 185.34
  C 341.39 175.67 345.62 167.51 342.57 156.46
  C 339.17 144.17 326.10 134.67 314.58 129.67
  C 274.73 112.39 230.15 112.90 190.49 129.47
  C 167.45 139.11 155.77 156.21 171.15 180.07
  C 180.45 194.50 165.60 198.38 161.30 208.31
  C 156.53 219.35 155.65 231.55 154.42 243.89"
/>
<path stroke="#c29c73" vector-effect="non-scaling-stroke" d="
  M 154.42 243.89
  C 149.88 231.32 148.92 217.71 142.86 205.14"
/>
<path stroke="#fce2b1" vector-effect="non-scaling-stroke" d="
  M 344.48 245.06
  Q 343.78 252.79 340.04 262.03"
/>
<path stroke="#b3ac9c" vector-effect="non-scaling-stroke" d="
  M 336.09 273.81
  Q 327.20 295.36 314.57 314.10"
/>
<path stroke="#efd6a9" vector-effect="non-scaling-stroke" d="
  M 314.57 314.10
  Q 308.58 321.62 302.66 327.90
  C 292.56 338.61 279.51 347.82 265.54 351.90
  C 238.31 359.84 214.35 347.22 196.12 327.37"
/>
<path stroke="#fce2b1" vector-effect="non-scaling-stroke" d="
  M 196.12 327.37
  L 194.53 326.78"
/>
<path stroke="#b3ac9c" vector-effect="non-scaling-stroke" d="
  M 194.53 326.78
  Q 194.53 326.44 194.49 326.13
  Q 194.45 325.83 194.24 325.57
  Q 177.25 304.90 166.56 280.48"
/>
<path stroke="#efd6a9" vector-effect="non-scaling-stroke" d="
  M 166.56 280.48
  Q 163.63 270.85 159.51 261.71
  Q 159.32 261.29 158.86 261.24"
/>
<path stroke="#fce2b1" vector-effect="non-scaling-stroke" d="
  M 158.86 261.24
  L 154.42 243.89"
/>
<path stroke="#ecd09c" vector-effect="non-scaling-stroke" d="
  M 158.86 261.24
  Q 158.74 261.54 157.73 261.56"
/>
<path stroke="#ecd09c" vector-effect="non-scaling-stroke" d="
  M 154.47 260.33
  Q 149.34 256.48 144.28 252.72
  C 136.26 246.78 129.71 235.64 128.64 224.83
  C 127.81 216.46 133.97 209.66 141.17 206.03"
/>
<path stroke="#897d88" vector-effect="non-scaling-stroke" d="
  M 422.84 421.19
  Q 416.54 409.22 407.66 399.65
  Q 402.96 394.58 394.01 387.80
  C 383.70 380.00 377.53 375.96 366.19 369.80
  Q 365.70 369.53 365.99 369.06
  C 372.49 358.87 374.61 344.74 372.75 334.01
  Q 366.23 296.52 336.09 273.81"
/>
<path stroke="#d5b9aa" vector-effect="non-scaling-stroke" d="
  M 336.09 273.81
  Q 337.27 267.71 340.04 262.03"
/>
<path stroke="#d2b39d" vector-effect="non-scaling-stroke" d="
  M 340.04 262.03
  Q 349.25 259.14 352.45 256.43
  C 357.74 251.94 363.14 247.07 366.65 241.02
  C 371.08 233.39 374.63 224.04 370.04 215.55
  Q 366.83 209.62 360.69 206.85"
/>
<path stroke="#a39a86" vector-effect="non-scaling-stroke" d="
  M 166.56 280.48
  L 158.63 287.32"
/>
<path stroke="#c5a795" vector-effect="non-scaling-stroke" d="
  M 158.63 287.32
  Q 158.47 287.08 158.43 286.71"
/>
<path stroke="#ecd09c" vector-effect="non-scaling-stroke" d="
  M 308.07 367.06
  Q 277.17 385.59 243.17 373.59
  Q 210.20 361.95 195.75 329.45
  Q 195.37 328.58 196.12 327.37"
/>
<path stroke="#a7abb0" vector-effect="non-scaling-stroke" d="
  M 294.00 495.44
  L 294.00 442.96"
/>
<path stroke="#555d67" vector-effect="non-scaling-stroke" d="
  M 294.00 442.96
  C 314.26 432.34 332.45 418.67 342.75 397.58
  A 0.27 0.26 79.8 0 0 342.32 397.28
  C 328.12 412.14 314.44 424.44 296.21 434.29
  A 1.06 1.02 -55.5 0 1 295.62 434.41
  L 294.01 434.25"
/>
<path stroke="#a7abb0" vector-effect="non-scaling-stroke" d="
  M 294.01 434.25
  C 294.01 431.34 294.64 425.74 293.13 423.38
  C 290.53 419.35 284.02 421.15 284.01 426.26
  Q 284.00 432.81 284.00 439.58"
/>
<path stroke="#555d67" vector-effect="non-scaling-stroke" d="
  M 284.00 439.58
  Q 248.90 452.53 214.48 438.30"
/>
<path stroke="#a7abb0" vector-effect="non-scaling-stroke" d="
  M 214.48 438.30
  C 214.49 434.87 215.30 425.99 213.79 423.45
  C 211.25 419.19 204.25 421.28 204.47 426.50
  Q 204.62 430.07 204.20 433.57"
/>
<path stroke="#555d67" vector-effect="non-scaling-stroke" d="
  M 204.20 433.57
  Q 178.77 420.02 161.08 398.96
  A 0.51 0.51 0.0 0 0 160.25 399.53
  Q 175.89 428.24 204.50 443.65"
/>
<path stroke="#a7abb0" vector-effect="non-scaling-stroke" d="
  M 204.50 443.65
  L 204.49 495.21"
/>
<path stroke="#897d88" vector-effect="non-scaling-stroke" d="
  M 72.46 424.44
  Q 76.66 414.93 82.69 406.84
  C 89.45 397.77 97.78 391.70 107.45 384.97
  Q 121.40 375.26 137.25 368.36
  Q 138.13 367.98 137.87 367.05
  C 129.48 337.72 136.41 308.59 158.63 287.32"
/>
<path stroke="#b0a68f" vector-effect="non-scaling-stroke" d="
  M 194.53 326.78
  C 194.44 334.80 194.12 343.58 195.32 350.96
  C 200.32 381.79 224.17 402.52 250.27 416.65
  A 1.14 1.13 -44.2 0 0 251.32 416.66
  C 274.50 404.86 296.66 391.71 308.07 367.06"
/>
<path stroke="#a39a86" vector-effect="non-scaling-stroke" d="
  M 308.07 367.06
  C 315.76 349.89 316.35 333.37 314.57 314.10"
/>
<path stroke="#555d67" vector-effect="non-scaling-stroke" d="
  M 284.00 447.19
  Q 256.24 459.18 229.53 452.46
  Q 219.24 449.87 214.61 448.96"
/>
<path stroke="#95989e" vector-effect="non-scaling-stroke" d="
  M 294.00 442.96
  L 294.01 434.25"
/>
<path stroke="#95989e" vector-effect="non-scaling-stroke" d="
  M 204.20 433.57
  L 204.50 443.65"
/>
<path stroke="#95989e" vector-effect="non-scaling-stroke" d="
  M 214.48 438.30
  L 214.61 448.96"
/>
<path stroke="#a7abb0" vector-effect="non-scaling-stroke" d="
  M 214.61 448.96
  L 214.54 496.81"
/>
<path stroke="#a7abb0" vector-effect="non-scaling-stroke" d="
  M 284.00 497.07
  L 284.00 447.19"
/>
<path stroke="#95989e" vector-effect="non-scaling-stroke" d="
  M 284.00 447.19
  L 284.00 439.58"
/>
</g>
<path fill="#8c74d4" d="
  M 0.00 0.00
  L 500.00 0.00
  L 500.00 500.00
  L 0.00 500.00
  L 0.00 0.00
  Z
  M 141.12 202.19
  Q 142.36 203.57 142.86 205.14
  Q 141.80 205.41 141.17 206.03
  Q 134.24 207.81 130.46 214.02
  C 120.10 231.02 140.29 253.50 154.47 260.33
  L 157.73 261.56
  C 160.14 263.00 159.85 264.70 160.65 266.82
  Q 162.96 272.94 165.39 278.75
  A 1.76 1.76 0.0 0 1 164.96 280.73
  L 158.43 286.71
  Q 123.93 319.65 136.94 366.41
  A 1.11 1.10 -19.9 0 1 136.32 367.72
  C 121.31 374.39 106.92 383.67 94.02 393.84
  Q 78.60 405.99 72.46 424.44
  Q 72.87 426.03 75.01 427.99
  Q 93.39 444.89 111.23 457.18
  C 138.93 476.25 171.37 488.99 204.49 495.21
  L 214.54 496.81
  Q 219.19 497.58 227.19 498.06
  Q 256.67 499.83 284.00 497.07
  L 294.00 495.44
  C 343.70 486.34 388.06 463.68 424.55 428.55
  A 2.39 2.38 55.2 0 0 425.04 425.81
  L 422.84 421.19
  Q 413.16 399.51 393.49 386.18
  Q 390.15 383.91 385.78 380.65
  Q 381.97 377.80 377.81 375.48
  C 375.52 374.20 372.02 371.71 368.46 370.34
  A 1.45 1.44 24.6 0 1 367.70 368.31
  C 375.25 354.04 375.28 338.25 370.96 322.90
  Q 367.96 312.24 365.95 308.55
  C 358.55 294.94 350.07 282.97 337.24 273.88
  Q 336.74 273.52 336.94 272.94
  L 340.37 263.03
  Q 340.54 262.52 341.06 262.37
  C 355.03 258.48 365.70 247.04 370.94 233.85
  Q 377.96 216.16 362.66 206.39
  Q 362.28 206.15 362.11 205.74
  Q 361.71 204.79 362.49 204.49
  A 0.89 0.87 -84.9 0 0 362.95 204.10
  C 366.42 197.91 368.49 190.38 369.04 183.72
  C 370.72 163.65 366.98 145.98 363.07 127.51
  C 360.29 114.36 367.37 102.70 379.54 97.61
  A 1.76 1.76 0.0 0 0 379.98 94.63
  C 365.54 82.70 348.79 78.21 329.19 76.67
  Q 326.03 76.42 323.62 76.82
  Q 323.11 76.91 323.01 76.40
  Q 322.90 75.84 323.03 75.28
  L 324.06 74.78
  C 324.84 74.77 325.44 74.86 326.14 74.40
  Q 338.54 66.23 352.59 62.54
  A 1.62 1.62 0.0 0 0 352.96 59.56
  C 323.48 43.46 286.78 44.43 255.47 54.98
  A 0.78 0.78 0.0 0 1 254.48 53.99
  Q 258.47 42.18 268.13 34.48
  C 269.70 33.23 271.60 32.84 272.11 30.30
  A 0.61 0.60 6.9 0 0 271.54 29.58
  Q 266.81 29.39 259.79 30.18
  C 236.52 32.82 216.36 41.60 198.11 56.00
  C 188.85 63.31 180.53 70.86 173.43 79.91
  A 1.02 1.02 0.0 0 1 171.61 79.34
  Q 170.83 66.89 178.13 57.06
  A 0.99 0.99 0.0 0 0 177.09 55.52
  L 175.59 55.91
  Q 175.16 56.03 174.80 56.29
  C 153.72 71.98 141.97 97.42 136.96 122.74
  C 133.01 142.65 131.74 163.32 134.81 183.77
  C 135.93 191.28 136.96 196.34 140.22 201.58
  Q 140.97 202.78 141.12 202.19
  Z"
/>
<path fill="#ab8996" d="
  M 324.06 74.78
  Q 324.02 74.66 324.01 74.49
  Q 324.01 74.24 324.23 74.10
  Q 337.59 65.77 352.73 61.39
  A 0.37 0.37 0.0 0 0 352.81 60.71
  C 321.86 44.19 286.42 45.48 253.77 56.85
  A 0.63 0.63 0.0 0 1 252.95 56.11
  C 255.53 45.13 261.87 38.27 270.40 31.33
  Q 270.81 30.99 270.28 30.99
  Q 247.17 31.06 227.94 39.45
  Q 195.16 53.75 171.85 83.19
  Q 171.47 83.67 171.37 83.07
  Q 169.04 68.93 176.68 57.10
  Q 177.62 55.64 176.24 56.69
  C 139.87 84.16 130.80 137.73 135.24 179.50
  Q 136.64 192.70 141.12 202.19
  Q 140.97 202.78 140.22 201.58
  C 136.96 196.34 135.93 191.28 134.81 183.77
  C 131.74 163.32 133.01 142.65 136.96 122.74
  C 141.97 97.42 153.72 71.98 174.80 56.29
  Q 175.16 56.03 175.59 55.91
  L 177.09 55.52
  A 0.99 0.99 0.0 0 1 178.13 57.06
  Q 170.83 66.89 171.61 79.34
  A 1.02 1.02 0.0 0 0 173.43 79.91
  C 180.53 70.86 188.85 63.31 198.11 56.00
  C 216.36 41.60 236.52 32.82 259.79 30.18
  Q 266.81 29.39 271.54 29.58
  A 0.61 0.60 6.9 0 1 272.11 30.30
  C 271.60 32.84 269.70 33.23 268.13 34.48
  Q 258.47 42.18 254.48 53.99
  A 0.78 0.78 0.0 0 0 255.47 54.98
  C 286.78 44.43 323.48 43.46 352.96 59.56
  A 1.62 1.62 0.0 0 1 352.59 62.54
  Q 338.54 66.23 326.14 74.40
  C 325.44 74.86 324.84 74.77 324.06 74.78
  Z"
/>
<path fill="#8a5c42" d="
  M 324.06 74.78
  L 323.03 75.28
  L 321.36 76.29
  Q 320.70 76.70 321.43 76.95
  C 323.01 77.51 324.93 77.13 326.18 77.25
  C 346.68 79.21 363.57 82.36 379.78 95.56
  Q 380.33 96.01 379.68 96.30
  C 365.61 102.49 358.46 116.46 362.63 131.54
  Q 368.18 151.64 368.74 172.50
  C 368.98 181.82 367.60 194.12 362.95 202.36
  Q 361.59 204.78 360.69 206.85
  C 352.22 215.63 351.59 227.09 349.58 238.51
  Q 349.14 240.99 344.48 245.06
  C 345.00 233.43 345.63 214.75 338.69 205.91
  C 333.71 199.57 332.79 192.77 336.53 185.34
  C 341.39 175.67 345.62 167.51 342.57 156.46
  C 339.17 144.17 326.10 134.67 314.58 129.67
  C 274.73 112.39 230.15 112.90 190.49 129.47
  C 167.45 139.11 155.77 156.21 171.15 180.07
  C 180.45 194.50 165.60 198.38 161.30 208.31
  C 156.53 219.35 155.65 231.55 154.42 243.89
  C 149.88 231.32 148.92 217.71 142.86 205.14
  Q 142.36 203.57 141.12 202.19
  Q 136.64 192.70 135.24 179.50
  C 130.80 137.73 139.87 84.16 176.24 56.69
  Q 177.62 55.64 176.68 57.10
  Q 169.04 68.93 171.37 83.07
  Q 171.47 83.67 171.85 83.19
  Q 195.16 53.75 227.94 39.45
  Q 247.17 31.06 270.28 30.99
  Q 270.81 30.99 270.40 31.33
  C 261.87 38.27 255.53 45.13 252.95 56.11
  A 0.63 0.63 0.0 0 0 253.77 56.85
  C 286.42 45.48 321.86 44.19 352.81 60.71
  A 0.37 0.37 0.0 0 1 352.73 61.39
  Q 337.59 65.77 324.23 74.10
  Q 324.01 74.24 324.01 74.49
  Q 324.02 74.66 324.06 74.78
  Z"
/>
<path fill="#ab8996" d="
  M 323.03 75.28
  Q 322.90 75.84 323.01 76.40
  Q 323.11 76.91 323.62 76.82
  Q 326.03 76.42 329.19 76.67
  C 348.79 78.21 365.54 82.70 379.98 94.63
  A 1.76 1.76 0.0 0 1 379.54 97.61
  C 367.37 102.70 360.29 114.36 363.07 127.51
  C 366.98 145.98 370.72 163.65 369.04 183.72
  C 368.49 190.38 366.42 197.91 362.95 204.10
  A 0.89 0.87 -84.9 0 1 362.49 204.49
  Q 361.71 204.79 362.11 205.74
  Q 362.28 206.15 362.66 206.39
  Q 377.96 216.16 370.94 233.85
  C 365.70 247.04 355.03 258.48 341.06 262.37
  Q 340.54 262.52 340.37 263.03
  L 336.94 272.94
  Q 336.74 273.52 337.24 273.88
  C 350.07 282.97 358.55 294.94 365.95 308.55
  Q 367.96 312.24 370.96 322.90
  C 375.28 338.25 375.25 354.04 367.70 368.31
  A 1.45 1.44 24.6 0 0 368.46 370.34
  C 372.02 371.71 375.52 374.20 377.81 375.48
  Q 381.97 377.80 385.78 380.65
  Q 390.15 383.91 393.49 386.18
  Q 413.16 399.51 422.84 421.19
  Q 416.54 409.22 407.66 399.65
  Q 402.96 394.58 394.01 387.80
  C 383.70 380.00 377.53 375.96 366.19 369.80
  Q 365.70 369.53 365.99 369.06
  C 372.49 358.87 374.61 344.74 372.75 334.01
  Q 366.23 296.52 336.09 273.81
  Q 337.27 267.71 340.04 262.03
  Q 349.25 259.14 352.45 256.43
  C 357.74 251.94 363.14 247.07 366.65 241.02
  C 371.08 233.39 374.63 224.04 370.04 215.55
  Q 366.83 209.62 360.69 206.85
  Q 361.59 204.78 362.95 202.36
  C 367.60 194.12 368.98 181.82 368.74 172.50
  Q 368.18 151.64 362.63 131.54
  C 358.46 116.46 365.61 102.49 379.68 96.30
  Q 380.33 96.01 379.78 95.56
  C 363.57 82.36 346.68 79.21 326.18 77.25
  C 324.93 77.13 323.01 77.51 321.43 76.95
  Q 320.70 76.70 321.36 76.29
  L 323.03 75.28
  Z"
/>
<path fill="#ffe8be" d="
  M 344.48 245.06
  Q 343.78 252.79 340.04 262.03
  Q 337.27 267.71 336.09 273.81
  Q 327.20 295.36 314.57 314.10
  Q 308.58 321.62 302.66 327.90
  C 292.56 338.61 279.51 347.82 265.54 351.90
  C 238.31 359.84 214.35 347.22 196.12 327.37
  L 194.53 326.78
  Q 194.53 326.44 194.49 326.13
  Q 194.45 325.83 194.24 325.57
  Q 177.25 304.90 166.56 280.48
  Q 163.63 270.85 159.51 261.71
  Q 159.32 261.29 158.86 261.24
  L 154.42 243.89
  C 155.65 231.55 156.53 219.35 161.30 208.31
  C 165.60 198.38 180.45 194.50 171.15 180.07
  C 155.77 156.21 167.45 139.11 190.49 129.47
  C 230.15 112.90 274.73 112.39 314.58 129.67
  C 326.10 134.67 339.17 144.17 342.57 156.46
  C 345.62 167.51 341.39 175.67 336.53 185.34
  C 332.79 192.77 333.71 199.57 338.69 205.91
  C 345.63 214.75 345.00 233.43 344.48 245.06
  Z"
/>
<path fill="#f9dca4" d="
  M 142.86 205.14
  C 148.92 217.71 149.88 231.32 154.42 243.89
  L 158.86 261.24
  Q 158.74 261.54 157.73 261.56
  L 154.47 260.33
  Q 149.34 256.48 144.28 252.72
  C 136.26 246.78 129.71 235.64 128.64 224.83
  C 127.81 216.46 133.97 209.66 141.17 206.03
  Q 141.80 205.41 142.86 205.14
  Z"
/>
<path fill="#dec493" d="
  M 141.17 206.03
  C 133.97 209.66 127.81 216.46 128.64 224.83
  C 129.71 235.64 136.26 246.78 144.28 252.72
  Q 149.34 256.48 154.47 260.33
  C 140.29 253.50 120.10 231.02 130.46 214.02
  Q 134.24 207.81 141.17 206.03
  Z"
/>
<path fill="#f9dca4" d="
  M 340.04 262.03
  Q 343.78 252.79 344.48 245.06
  Q 349.14 240.99 349.58 238.51
  C 351.59 227.09 352.22 215.63 360.69 206.85
  Q 366.83 209.62 370.04 215.55
  C 374.63 224.04 371.08 233.39 366.65 241.02
  C 363.14 247.07 357.74 251.94 352.45 256.43
  Q 349.25 259.14 340.04 262.03
  Z"
/>
<path fill="#dec493" d="
  M 158.86 261.24
  Q 159.32 261.29 159.51 261.71
  Q 163.63 270.85 166.56 280.48
  L 158.63 287.32
  Q 158.47 287.08 158.43 286.71
  L 164.96 280.73
  A 1.76 1.76 0.0 0 0 165.39 278.75
  Q 162.96 272.94 160.65 266.82
  C 159.85 264.70 160.14 263.00 157.73 261.56
  Q 158.74 261.54 158.86 261.24
  Z"
/>
<path fill="#677079" d="
  M 422.84 421.19
  L 425.04 425.81
  A 2.39 2.38 55.2 0 1 424.55 428.55
  C 388.06 463.68 343.70 486.34 294.00 495.44
  L 294.00 442.96
  C 314.26 432.34 332.45 418.67 342.75 397.58
  A 0.27 0.26 79.8 0 0 342.32 397.28
  C 328.12 412.14 314.44 424.44 296.21 434.29
  A 1.06 1.02 -55.5 0 1 295.62 434.41
  L 294.01 434.25
  C 294.01 431.34 294.64 425.74 293.13 423.38
  C 290.53 419.35 284.02 421.15 284.01 426.26
  Q 284.00 432.81 284.00 439.58
  Q 248.90 452.53 214.48 438.30
  C 214.49 434.87 215.30 425.99 213.79 423.45
  C 211.25 419.19 204.25 421.28 204.47 426.50
  Q 204.62 430.07 204.20 433.57
  Q 178.77 420.02 161.08 398.96
  A 0.51 0.51 0.0 0 0 160.25 399.53
  Q 175.89 428.24 204.50 443.65
  L 204.49 495.21
  C 171.37 488.99 138.93 476.25 111.23 457.18
  Q 93.39 444.89 75.01 427.99
  Q 72.87 426.03 72.46 424.44
  Q 76.66 414.93 82.69 406.84
  C 89.45 397.77 97.78 391.70 107.45 384.97
  Q 121.40 375.26 137.25 368.36
  Q 138.13 367.98 137.87 367.05
  C 129.48 337.72 136.41 308.59 158.63 287.32
  L 166.56 280.48
  Q 177.25 304.90 194.24 325.57
  Q 194.45 325.83 194.49 326.13
  Q 194.53 326.44 194.53 326.78
  C 194.44 334.80 194.12 343.58 195.32 350.96
  C 200.32 381.79 224.17 402.52 250.27 416.65
  A 1.14 1.13 -44.2 0 0 251.32 416.66
  C 274.50 404.86 296.66 391.71 308.07 367.06
  C 315.76 349.89 316.35 333.37 314.57 314.10
  Q 327.20 295.36 336.09 273.81
  Q 366.23 296.52 372.75 334.01
  C 374.61 344.74 372.49 358.87 365.99 369.06
  Q 365.70 369.53 366.19 369.80
  C 377.53 375.96 383.70 380.00 394.01 387.80
  Q 402.96 394.58 407.66 399.65
  Q 416.54 409.22 422.84 421.19
  Z"
/>
<path fill="#ab8996" d="
  M 158.43 286.71
  Q 158.47 287.08 158.63 287.32
  C 136.41 308.59 129.48 337.72 137.87 367.05
  Q 138.13 367.98 137.25 368.36
  Q 121.40 375.26 107.45 384.97
  C 97.78 391.70 89.45 397.77 82.69 406.84
  Q 76.66 414.93 72.46 424.44
  Q 78.60 405.99 94.02 393.84
  C 106.92 383.67 121.31 374.39 136.32 367.72
  A 1.11 1.10 -19.9 0 0 136.94 366.41
  Q 123.93 319.65 158.43 286.71
  Z"
/>
<path fill="#dec493" d="
  M 314.57 314.10
  C 316.35 333.37 315.76 349.89 308.07 367.06
  Q 277.17 385.59 243.17 373.59
  Q 210.20 361.95 195.75 329.45
  Q 195.37 328.58 196.12 327.37
  C 214.35 347.22 238.31 359.84 265.54 351.90
  C 279.51 347.82 292.56 338.61 302.66 327.90
  Q 308.58 321.62 314.57 314.10
  Z"
/>
<path fill="#f9dca4" d="
  M 194.53 326.78
  L 196.12 327.37
  Q 195.37 328.58 195.75 329.45
  Q 210.20 361.95 243.17 373.59
  Q 277.17 385.59 308.07 367.06
  C 296.66 391.71 274.50 404.86 251.32 416.66
  A 1.14 1.13 -44.2 0 1 250.27 416.65
  C 224.17 402.52 200.32 381.79 195.32 350.96
  C 194.12 343.58 194.44 334.80 194.53 326.78
  Z"
/>
<path fill="#434955" d="
  M 294.00 442.96
  L 294.01 434.25
  L 295.62 434.41
  A 1.06 1.02 -55.5 0 0 296.21 434.29
  C 314.44 424.44 328.12 412.14 342.32 397.28
  A 0.27 0.26 79.8 0 1 342.75 397.58
  C 332.45 418.67 314.26 432.34 294.00 442.96
  Z"
/>
<path fill="#434955" d="
  M 204.20 433.57
  L 204.50 443.65
  Q 175.89 428.24 160.25 399.53
  A 0.51 0.51 0.0 0 1 161.08 398.96
  Q 178.77 420.02 204.20 433.57
  Z"
/>
<path fill="#e6e6e7" d="
  M 214.48 438.30
  L 214.61 448.96
  L 214.54 496.81
  L 204.49 495.21
  L 204.50 443.65
  L 204.20 433.57
  Q 204.62 430.07 204.47 426.50
  C 204.25 421.28 211.25 419.19 213.79 423.45
  C 215.30 425.99 214.49 434.87 214.48 438.30
  Z"
/>
<path fill="#e6e6e7" d="
  M 294.01 434.25
  L 294.00 442.96
  L 294.00 495.44
  L 284.00 497.07
  L 284.00 447.19
  L 284.00 439.58
  Q 284.00 432.81 284.01 426.26
  C 284.02 421.15 290.53 419.35 293.13 423.38
  C 294.64 425.74 294.01 431.34 294.01 434.25
  Z"
/>
<path fill="#434955" d="
  M 214.48 438.30
  Q 248.90 452.53 284.00 439.58
  L 284.00 447.19
  Q 256.24 459.18 229.53 452.46
  Q 219.24 449.87 214.61 448.96
  L 214.48 438.30
  Z"
/>
<path fill="#677079" d="
  M 284.00 447.19
  L 284.00 497.07
  Q 256.67 499.83 227.19 498.06
  Q 219.19 497.58 214.54 496.81
  L 214.61 448.96
  Q 219.24 449.87 229.53 452.46
  Q 256.24 459.18 284.00 447.19
  Z"
/>
</svg>
