<svg xmlns="http://www.w3.org/2000/svg" viewBox="0 0 500 500" xmlns:v="https://vecta.io/nano"><g fill="none" stroke-width="2"><path stroke="#8b688b" vector-effect="non-scaling-stroke" d="M141.12 202.19q1.24 1.38 1.74 2.95"/><path stroke="#c3a8bc" vector-effect="non-scaling-stroke" d="M142.86 205.14q-1.06.27-1.69.89"/><path stroke="#b59cb4" vector-effect="non-scaling-stroke" d="M141.17 206.03q-6.93 1.78-10.71 7.99c-10.36 17 9.83 39.48 24.01 46.31"/><path stroke="#c3a8bc" vector-effect="non-scaling-stroke" d="M154.47 260.33l3.26 1.23"/><path stroke="#b59cb4" vector-effect="non-scaling-stroke" d="M157.73 261.56c2.41 1.44 2.12 3.14 2.92 5.26q2.31 6.12 4.74 11.93a1.76 1.76 0 0 1-.43 1.98l-6.53 5.98"/><path stroke="#9c7fb5" vector-effect="non-scaling-stroke" d="M158.43 286.71q-34.5 32.94-21.49 79.7a1.11 1.1-19.9 0 1-.62 1.31c-15.01 6.67-29.4 15.95-42.3 26.12q-15.42 12.15-21.56 30.6"/><path stroke="#7a72a7" vector-effect="non-scaling-stroke" d="M72.46 424.44q.41 1.59 2.55 3.55 18.38 16.9 36.22 29.19c27.7 19.07 60.14 31.81 93.26 38.03"/><path stroke="#b9adde" vector-effect="non-scaling-stroke" d="M204.49 495.21l10.05 1.6"/><path stroke="#7a72a7" vector-effect="non-scaling-stroke" d="M214.54 496.81q4.65.77 12.65 1.25 29.48 1.77 56.81-.99"/><path stroke="#b9adde" vector-effect="non-scaling-stroke" d="M284 497.07l10-1.63"/><path stroke="#7a72a7" vector-effect="non-scaling-stroke" d="M294 495.44c49.7-9.1 94.06-31.76 130.55-66.89a2.39 2.38 55.2 0 0 .49-2.74l-2.2-4.62"/><path stroke="#9c7fb5" vector-effect="non-scaling-stroke" d="M422.84 421.19q-9.68-21.68-29.35-35.01-3.34-2.27-7.71-5.53-3.81-2.85-7.97-5.17c-2.29-1.28-5.79-3.77-9.35-5.14a1.45 1.44 24.6 0 1-.76-2.03c7.55-14.27 7.58-30.06 3.26-45.41q-3-10.66-5.01-14.35c-7.4-13.61-15.88-25.58-28.71-34.67q-.5-.36-.3-.94l3.43-9.91q.17-.51.69-.66c13.97-3.89 24.64-15.33 29.88-28.52q7.02-17.69-8.28-27.46-.38-.24-.55-.65-.4-.95.38-1.25a.89.87-84.9 0 0 .46-.39c3.47-6.19 5.54-13.72 6.09-20.38 1.68-20.07-2.06-37.74-5.97-56.21-2.78-13.15 4.3-24.81 16.47-29.9a1.76 1.76 0 0 0 .44-2.98c-14.44-11.93-31.19-16.42-50.79-17.96q-3.16-.25-5.57.15-.51.09-.61-.42-.11-.56.02-1.12"/><path stroke="#8b688b" vector-effect="non-scaling-stroke" d="M323.03 75.28l1.03-.5"/><path stroke="#9c7fb5" vector-effect="non-scaling-stroke" d="M324.06 74.78c.78-.01 1.38.08 2.08-.38q12.4-8.17 26.45-11.86a1.62 1.62 0 0 0 .37-2.98c-29.48-16.1-66.18-15.13-97.49-4.58a.78.78 0 0 1-.99-.99q3.99-11.81 13.65-19.51c1.57-1.25 3.47-1.64 3.98-4.18a.61.6 6.9 0 0-.57-.72q-4.73-.19-11.75.6C236.52 32.82 216.36 41.6 198.11 56c-9.26 7.31-17.58 14.86-24.68 23.91a1.02 1.02 0 0 1-1.82-.57q-.78-12.45 6.52-22.28a.99.99 0 0 0-1.04-1.54l-1.5.39q-.43.12-.79.38c-21.08 15.69-32.83 41.13-37.84 66.45-3.95 19.91-5.22 40.58-2.15 61.03 1.12 7.51 2.15 12.57 5.41 17.81q.75 1.2.9.61"/><path vector-effect="non-scaling-stroke" d="M324.06 74.78q-.04-.12-.05-.29 0-.25.22-.39 13.36-8.33 28.5-12.71a.37.37 0 0 0 .08-.68c-30.95-16.52-66.39-15.23-99.04-3.86a.63.63 0 0 1-.82-.74c2.58-10.98 8.92-17.84 17.45-24.78q.41-.34-.12-.34-23.11.07-42.34 8.46-32.78 14.3-56.09 43.74-.38.48-.48-.12-2.33-14.14 5.31-25.97.94-1.46-.44-.41c-36.37 27.47-45.44 81.04-41 122.81q1.4 13.2 5.88 22.69M323.03 75.28l-1.67 1.01q-.66.41.07.66c1.58.56 3.5.18 4.75.3 20.5 1.96 37.39 5.11 53.6 18.31q.55.45-.1.74c-14.07 6.19-21.22 20.16-17.05 35.24q5.55 20.1 6.11 40.96c.24 9.32-1.14 21.62-5.79 29.86q-1.36 2.42-2.26 4.49" stroke="#9b736c"/><path stroke="#c29c73" vector-effect="non-scaling-stroke" d="M360.69 206.85c-8.47 8.78-9.1 20.24-11.11 31.66q-.44 2.48-5.1 6.55"/><path stroke="#c5a280" vector-effect="non-scaling-stroke" d="M344.48 245.06c.52-11.63 1.15-30.31-5.79-39.15-4.98-6.34-5.9-13.14-2.16-20.57 4.86-9.67 9.09-17.83 6.04-28.88-3.4-12.29-16.47-21.79-27.99-26.79-39.85-17.28-84.43-16.77-124.09-.2-23.04 9.64-34.72 26.74-19.34 50.6 9.3 14.43-5.55 18.31-9.85 28.24-4.77 11.04-5.65 23.24-6.88 35.58"/><path stroke="#c29c73" vector-effect="non-scaling-stroke" d="M154.42 243.89c-4.54-12.57-5.5-26.18-11.56-38.75"/><path stroke="#fce2b1" vector-effect="non-scaling-stroke" d="M344.48 245.06q-.7 7.73-4.44 16.97"/><path stroke="#b3ac9c" vector-effect="non-scaling-stroke" d="M336.09 273.81q-8.89 21.55-21.52 40.29"/><path stroke="#efd6a9" vector-effect="non-scaling-stroke" d="M314.57 314.1q-5.99 7.52-11.91 13.8c-10.1 10.71-23.15 19.92-37.12 24-27.23 7.94-51.19-4.68-69.42-24.53"/><path stroke="#fce2b1" vector-effect="non-scaling-stroke" d="M196.12 327.37l-1.59-.59"/><path stroke="#b3ac9c" vector-effect="non-scaling-stroke" d="M194.53 326.78q0-.34-.04-.65-.04-.3-.25-.56-16.99-20.67-27.68-45.09"/><path stroke="#efd6a9" vector-effect="non-scaling-stroke" d="M166.56 280.48q-2.93-9.63-7.05-18.77-.19-.42-.65-.47"/><path stroke="#fce2b1" vector-effect="non-scaling-stroke" d="M158.86 261.24l-4.44-17.35"/><path vector-effect="non-scaling-stroke" d="M158.86 261.24q-.12.3-1.13.32m-3.26-1.23q-5.13-3.85-10.19-7.61c-8.02-5.94-14.57-17.08-15.64-27.89-.83-8.37 5.33-15.17 12.53-18.8" stroke="#ecd09c"/><path stroke="#897d88" vector-effect="non-scaling-stroke" d="M422.84 421.19q-6.3-11.97-15.18-21.54-4.7-5.07-13.65-11.85c-10.31-7.8-16.48-11.84-27.82-18q-.49-.27-.2-.74c6.5-10.19 8.62-24.32 6.76-35.05q-6.52-37.49-36.66-60.2"/><path stroke="#d5b9aa" vector-effect="non-scaling-stroke" d="M336.09 273.81q1.18-6.1 3.95-11.78"/><path stroke="#d2b39d" vector-effect="non-scaling-stroke" d="M340.04 262.03q9.21-2.89 12.41-5.6c5.29-4.49 10.69-9.36 14.2-15.41 4.43-7.63 7.98-16.98 3.39-25.47q-3.21-5.93-9.35-8.7"/><path stroke="#a39a86" vector-effect="non-scaling-stroke" d="M166.56 280.48l-7.93 6.84"/><path stroke="#c5a795" vector-effect="non-scaling-stroke" d="M158.63 287.32q-.16-.24-.2-.61"/><path stroke="#ecd09c" vector-effect="non-scaling-stroke" d="M308.07 367.06q-30.9 18.53-64.9 6.53-32.97-11.64-47.42-44.14-.38-.87.37-2.08"/><path stroke="#a7abb0" vector-effect="non-scaling-stroke" d="M294 495.44v-52.48"/><path stroke="#555d67" vector-effect="non-scaling-stroke" d="M294 442.96c20.26-10.62 38.45-24.29 48.75-45.38a.27.26 79.8 0 0-.43-.3c-14.2 14.86-27.88 27.16-46.11 37.01a1.06 1.02-55.5 0 1-.59.12l-1.61-.16"/><path stroke="#a7abb0" vector-effect="non-scaling-stroke" d="M294.01 434.25c0-2.91.63-8.51-.88-10.87-2.6-4.03-9.11-2.23-9.12 2.88q-.01 6.55-.01 13.32"/><path stroke="#555d67" vector-effect="non-scaling-stroke" d="M284 439.58q-35.1 12.95-69.52-1.28"/><path stroke="#a7abb0" vector-effect="non-scaling-stroke" d="M214.48 438.3c.01-3.43.82-12.31-.69-14.85-2.54-4.26-9.54-2.17-9.32 3.05q.15 3.57-.27 7.07"/><path stroke="#555d67" vector-effect="non-scaling-stroke" d="M204.2 433.57q-25.43-13.55-43.12-34.61a.51.51 0 0 0-.83.57q15.64 28.71 44.25 44.12"/><path stroke="#a7abb0" vector-effect="non-scaling-stroke" d="M204.5 443.65l-.01 51.56"/><path stroke="#897d88" vector-effect="non-scaling-stroke" d="M72.46 424.44q4.2-9.51 10.23-17.6c6.76-9.07 15.09-15.14 24.76-21.87q13.95-9.71 29.8-16.61.88-.38.62-1.31c-8.39-29.33-1.46-58.46 20.76-79.73"/><path stroke="#b0a68f" vector-effect="non-scaling-stroke" d="M194.53 326.78c-.09 8.02-.41 16.8.79 24.18 5 30.83 28.85 51.56 54.95 65.69a1.14 1.13-44.2 0 0 1.05.01c23.18-11.8 45.34-24.95 56.75-49.6"/><path stroke="#a39a86" vector-effect="non-scaling-stroke" d="M308.07 367.06c7.69-17.17 8.28-33.69 6.5-52.96"/><path stroke="#555d67" vector-effect="non-scaling-stroke" d="M284 447.19q-27.76 11.99-54.47 5.27-10.29-2.59-14.92-3.5"/><path vector-effect="non-scaling-stroke" d="M294 442.96l.01-8.71m-89.81-.68l.3 10.08m9.98-5.35l.13 10.66" stroke="#95989e"/><path vector-effect="non-scaling-stroke" d="M214.61 448.96l-.07 47.85m69.46.26v-49.88" stroke="#a7abb0"/><path stroke="#95989e" vector-effect="non-scaling-stroke" d="M284 447.19v-7.61"/></g><path fill="#8c74d4" d="M0 0h500v500H0V0zm141.12 202.19q1.24 1.38 1.74 2.95-1.06.27-1.69.89-6.93 1.78-10.71 7.99c-10.36 17 9.83 39.48 24.01 46.31l3.26 1.23c2.41 1.44 2.12 3.14 2.92 5.26q2.31 6.12 4.74 11.93a1.76 1.76 0 0 1-.43 1.98l-6.53 5.98q-34.5 32.94-21.49 79.7a1.11 1.1-19.9 0 1-.62 1.31c-15.01 6.67-29.4 15.95-42.3 26.12q-15.42 12.15-21.56 30.6.41 1.59 2.55 3.55 18.38 16.9 36.22 29.19c27.7 19.07 60.14 31.81 93.26 38.03l10.05 1.6q4.65.77 12.65 1.25 29.48 1.77 56.81-.99l10-1.63c49.7-9.1 94.06-31.76 130.55-66.89a2.39 2.38 55.2 0 0 .49-2.74l-2.2-4.62q-9.68-21.68-29.35-35.01-3.34-2.27-7.71-5.53-3.81-2.85-7.97-5.17c-2.29-1.28-5.79-3.77-9.35-5.14a1.45 1.44 24.6 0 1-.76-2.03c7.55-14.27 7.58-30.06 3.26-45.41q-3-10.66-5.01-14.35c-7.4-13.61-15.88-25.58-28.71-34.67q-.5-.36-.3-.94l3.43-9.91q.17-.51.69-.66c13.97-3.89 24.64-15.33 29.88-28.52q7.02-17.69-8.28-27.46-.38-.24-.55-.65-.4-.95.38-1.25a.89.87-84.9 0 0 .46-.39c3.47-6.19 5.54-13.72 6.09-20.38 1.68-20.07-2.06-37.74-5.97-56.21-2.78-13.15 4.3-24.81 16.47-29.9a1.76 1.76 0 0 0 .44-2.98c-14.44-11.93-31.19-16.42-50.79-17.96q-3.16-.25-5.57.15-.51.09-.61-.42-.11-.56.02-1.12l1.03-.5c.78-.01 1.38.08 2.08-.38q12.4-8.17 26.45-11.86a1.62 1.62 0 0 0 .37-2.98c-29.48-16.1-66.18-15.13-97.49-4.58a.78.78 0 0 1-.99-.99q3.99-11.81 13.65-19.51c1.57-1.25 3.47-1.64 3.98-4.18a.61.6 6.9 0 0-.57-.72q-4.73-.19-11.75.6C236.52 32.82 216.36 41.6 198.11 56c-9.26 7.31-17.58 14.86-24.68 23.91a1.02 1.02 0 0 1-1.82-.57q-.78-12.45 6.52-22.28a.99.99 0 0 0-1.04-1.54l-1.5.39q-.43.12-.79.38c-21.08 15.69-32.83 41.13-37.84 66.45-3.95 19.91-5.22 40.58-2.15 61.03 1.12 7.51 2.15 12.57 5.41 17.81q.75 1.2.9.61z"/><path fill="#ab8996" d="M324.06 74.78q-.04-.12-.05-.29 0-.25.22-.39 13.36-8.33 28.5-12.71a.37.37 0 0 0 .08-.68c-30.95-16.52-66.39-15.23-99.04-3.86a.63.63 0 0 1-.82-.74c2.58-10.98 8.92-17.84 17.45-24.78q.41-.34-.12-.34-23.11.07-42.34 8.46-32.78 14.3-56.09 43.74-.38.48-.48-.12-2.33-14.14 5.31-25.97.94-1.46-.44-.41c-36.37 27.47-45.44 81.04-41 122.81q1.4 13.2 5.88 22.69-.15.59-.9-.61c-3.26-5.24-4.29-10.3-5.41-17.81-3.07-20.45-1.8-41.12 2.15-61.03 5.01-25.32 16.76-50.76 37.84-66.45q.36-.26.79-.38l1.5-.39a.99.99 0 0 1 1.04 1.54q-7.3 9.83-6.52 22.28a1.02 1.02 0 0 0 1.82.57c7.1-9.05 15.42-16.6 24.68-23.91 18.25-14.4 38.41-23.18 61.68-25.82q7.02-.79 11.75-.6a.61.6 6.9 0 1 .57.72c-.51 2.54-2.41 2.93-3.98 4.18q-9.66 7.7-13.65 19.51a.78.78 0 0 0 .99.99c31.31-10.55 68.01-11.52 97.49 4.58a1.62 1.62 0 0 1-.37 2.98q-14.05 3.69-26.45 11.86c-.7.46-1.3.37-2.08.38z"/><path fill="#8a5c42" d="M324.06 74.78l-1.03.5-1.67 1.01q-.66.41.07.66c1.58.56 3.5.18 4.75.3 20.5 1.96 37.39 5.11 53.6 18.31q.55.45-.1.74c-14.07 6.19-21.22 20.16-17.05 35.24q5.55 20.1 6.11 40.96c.24 9.32-1.14 21.62-5.79 29.86q-1.36 2.42-2.26 4.49c-8.47 8.78-9.1 20.24-11.11 31.66q-.44 2.48-5.1 6.55c.52-11.63 1.15-30.31-5.79-39.15-4.98-6.34-5.9-13.14-2.16-20.57 4.86-9.67 9.09-17.83 6.04-28.88-3.4-12.29-16.47-21.79-27.99-26.79-39.85-17.28-84.43-16.77-124.09-.2-23.04 9.64-34.72 26.74-19.34 50.6 9.3 14.43-5.55 18.31-9.85 28.24-4.77 11.04-5.65 23.24-6.88 35.58-4.54-12.57-5.5-26.18-11.56-38.75q-.5-1.57-1.74-2.95-4.48-9.49-5.88-22.69c-4.44-41.77 4.63-95.34 41-122.81q1.38-1.05.44.41-7.64 11.83-5.31 25.97.1.6.48.12 23.31-29.44 56.09-43.74 19.23-8.39 42.34-8.46.53 0 .12.34c-8.53 6.94-14.87 13.8-17.45 24.78a.63.63 0 0 0 .82.74c32.65-11.37 68.09-12.66 99.04 3.86a.37.37 0 0 1-.08.68q-15.14 4.38-28.5 12.71-.22.14-.22.39.01.17.05.29z"/><path fill="#ab8996" d="M323.03 75.28q-.13.56-.02 1.12.1.51.61.42 2.41-.4 5.57-.15c19.6 1.54 36.35 6.03 50.79 17.96a1.76 1.76 0 0 1-.44 2.98c-12.17 5.09-19.25 16.75-16.47 29.9 3.91 18.47 7.65 36.14 5.97 56.21-.55 6.66-2.62 14.19-6.09 20.38a.89.87-84.9 0 1-.46.39q-.78.3-.38 1.25.17.41.55.65 15.3 9.77 8.28 27.46c-5.24 13.19-15.91 24.63-29.88 28.52q-.52.15-.69.66l-3.43 9.91q-.2.58.3.94c12.83 9.09 21.31 21.06 28.71 34.67q2.01 3.69 5.01 14.35c4.32 15.35 4.29 31.14-3.26 45.41a1.45 1.44 24.6 0 0 .76 2.03c3.56 1.37 7.06 3.86 9.35 5.14q4.16 2.32 7.97 5.17 4.37 3.26 7.71 5.53 19.67 13.33 29.35 35.01-6.3-11.97-15.18-21.54-4.7-5.07-13.65-11.85c-10.31-7.8-16.48-11.84-27.82-18q-.49-.27-.2-.74c6.5-10.19 8.62-24.32 6.76-35.05q-6.52-37.49-36.66-60.2 1.18-6.1 3.95-11.78 9.21-2.89 12.41-5.6c5.29-4.49 10.69-9.36 14.2-15.41 4.43-7.63 7.98-16.98 3.39-25.47q-3.21-5.93-9.35-8.7.9-2.07 2.26-4.49c4.65-8.24 6.03-20.54 5.79-29.86q-.56-20.86-6.11-40.96c-4.17-15.08 2.98-29.05 17.05-35.24q.65-.29.1-.74c-16.21-13.2-33.1-16.35-53.6-18.31-1.25-.12-3.17.26-4.75-.3q-.73-.25-.07-.66l1.67-1.01z"/><path fill="#ffe8be" d="M344.48 245.06q-.7 7.73-4.44 16.97-2.77 5.68-3.95 11.78-8.89 21.55-21.52 40.29-5.99 7.52-11.91 13.8c-10.1 10.71-23.15 19.92-37.12 24-27.23 7.94-51.19-4.68-69.42-24.53l-1.59-.59q0-.34-.04-.65-.04-.3-.25-.56-16.99-20.67-27.68-45.09-2.93-9.63-7.05-18.77-.19-.42-.65-.47l-4.44-17.35c1.23-12.34 2.11-24.54 6.88-35.58 4.3-9.93 19.15-13.81 9.85-28.24-15.38-23.86-3.7-40.96 19.34-50.6 39.66-16.57 84.24-17.08 124.09.2 11.52 5 24.59 14.5 27.99 26.79 3.05 11.05-1.18 19.21-6.04 28.88-3.74 7.43-2.82 14.23 2.16 20.57 6.94 8.84 6.31 27.52 5.79 39.15z"/><path fill="#f9dca4" d="M142.86 205.14c6.06 12.57 7.02 26.18 11.56 38.75l4.44 17.35q-.12.3-1.13.32l-3.26-1.23q-5.13-3.85-10.19-7.61c-8.02-5.94-14.57-17.08-15.64-27.89-.83-8.37 5.33-15.17 12.53-18.8q.63-.62 1.69-.89z"/><path fill="#dec493" d="M141.17 206.03c-7.2 3.63-13.36 10.43-12.53 18.8 1.07 10.81 7.62 21.95 15.64 27.89q5.06 3.76 10.19 7.61c-14.18-6.83-34.37-29.31-24.01-46.31q3.78-6.21 10.71-7.99z"/><path fill="#f9dca4" d="M340.04 262.03q3.74-9.24 4.44-16.97 4.66-4.07 5.1-6.55c2.01-11.42 2.64-22.88 11.11-31.66q6.14 2.77 9.35 8.7c4.59 8.49 1.04 17.84-3.39 25.47-3.51 6.05-8.91 10.92-14.2 15.41q-3.2 2.71-12.41 5.6z"/><path fill="#dec493" d="M158.86 261.24q.46.05.65.47 4.12 9.14 7.05 18.77l-7.93 6.84q-.16-.24-.2-.61l6.53-5.98a1.76 1.76 0 0 0 .43-1.98q-2.43-5.81-4.74-11.93c-.8-2.12-.51-3.82-2.92-5.26q1.01-.02 1.13-.32z"/><path fill="#677079" d="M422.84 421.19l2.2 4.62a2.39 2.38 55.2 0 1-.49 2.74c-36.49 35.13-80.85 57.79-130.55 66.89v-52.48c20.26-10.62 38.45-24.29 48.75-45.38a.27.26 79.8 0 0-.43-.3c-14.2 14.86-27.88 27.16-46.11 37.01a1.06 1.02-55.5 0 1-.59.12l-1.61-.16c0-2.91.63-8.51-.88-10.87-2.6-4.03-9.11-2.23-9.12 2.88q-.01 6.55-.01 13.32-35.1 12.95-69.52-1.28c.01-3.43.82-12.31-.69-14.85-2.54-4.26-9.54-2.17-9.32 3.05q.15 3.57-.27 7.07-25.43-13.55-43.12-34.61a.51.51 0 0 0-.83.57q15.64 28.71 44.25 44.12l-.01 51.56c-33.12-6.22-65.56-18.96-93.26-38.03q-17.84-12.29-36.22-29.19-2.14-1.96-2.55-3.55 4.2-9.51 10.23-17.6c6.76-9.07 15.09-15.14 24.76-21.87q13.95-9.71 29.8-16.61.88-.38.62-1.31c-8.39-29.33-1.46-58.46 20.76-79.73l7.93-6.84q10.69 24.42 27.68 45.09.21.26.25.56.04.31.04.65c-.09 8.02-.41 16.8.79 24.18 5 30.83 28.85 51.56 54.95 65.69a1.14 1.13-44.2 0 0 1.05.01c23.18-11.8 45.34-24.95 56.75-49.6 7.69-17.17 8.28-33.69 6.5-52.96q12.63-18.74 21.52-40.29 30.14 22.71 36.66 60.2c1.86 10.73-.26 24.86-6.76 35.05q-.29.47.2.74c11.34 6.16 17.51 10.2 27.82 18q8.95 6.78 13.65 11.85 8.88 9.57 15.18 21.54z"/><path fill="#ab8996" d="M158.43 286.71q.04.37.2.61c-22.22 21.27-29.15 50.4-20.76 79.73q.26.93-.62 1.31-15.85 6.9-29.8 16.61c-9.67 6.73-18 12.8-24.76 21.87q-6.03 8.09-10.23 17.6 6.14-18.45 21.56-30.6c12.9-10.17 27.29-19.45 42.3-26.12a1.11 1.1-19.9 0 0 .62-1.31q-13.01-46.76 21.49-79.7z"/><path fill="#dec493" d="M314.57 314.1c1.78 19.27 1.19 35.79-6.5 52.96q-30.9 18.53-64.9 6.53-32.97-11.64-47.42-44.14-.38-.87.37-2.08c18.23 19.85 42.19 32.47 69.42 24.53 13.97-4.08 27.02-13.29 37.12-24q5.92-6.28 11.91-13.8z"/><path fill="#f9dca4" d="M194.53 326.78l1.59.59q-.75 1.21-.37 2.08 14.45 32.5 47.42 44.14 34 12 64.9-6.53c-11.41 24.65-33.57 37.8-56.75 49.6a1.14 1.13-44.2 0 1-1.05-.01c-26.1-14.13-49.95-34.86-54.95-65.69-1.2-7.38-.88-16.16-.79-24.18z"/><path d="M294 442.96l.01-8.71 1.61.16a1.06 1.02-55.5 0 0 .59-.12c18.23-9.85 31.91-22.15 46.11-37.01a.27.26 79.8 0 1 .43.3c-10.3 21.09-28.49 34.76-48.75 45.38zm-89.8-9.39l.3 10.08q-28.61-15.41-44.25-44.12a.51.51 0 0 1 .83-.57q17.69 21.06 43.12 34.61z" fill="#434955"/><path d="M214.48 438.3l.13 10.66-.07 47.85-10.05-1.6.01-51.56-.3-10.08q.42-3.5.27-7.07c-.22-5.22 6.78-7.31 9.32-3.05 1.51 2.54.7 11.42.69 14.85zm79.53-4.05l-.01 8.71v52.48l-10 1.63v-49.88-7.61q0-6.77.01-13.32c.01-5.11 6.52-6.91 9.12-2.88 1.51 2.36.88 7.96.88 10.87z" fill="#e6e6e7"/><path fill="#434955" d="M214.48 438.3q34.42 14.23 69.52 1.28v7.61q-27.76 11.99-54.47 5.27-10.29-2.59-14.92-3.5l-.13-10.66z"/><path fill="#677079" d="M284 447.19v49.88q-27.33 2.76-56.81.99-8-.48-12.65-1.25l.07-47.85q4.63.91 14.92 3.5 26.71 6.72 54.47-5.27z"/></svg>