<svg xmlns="http://www.w3.org/2000/svg" xmlns:xlink="http://www.w3.org/1999/xlink" viewBox="0 0 500 500" xmlns:v="https://vecta.io/nano"><style><![CDATA[.B{opacity:.5}.C{fill:#fff}.D{fill:#2f3675}.E{fill:#a5b2df}.F{fill:#cbe4f5}.G{fill:#d2b490}.H{fill:#b5854c}.I{fill:#e4436f}.J{fill:#05022f}.K{fill:#252529}.L{fill:#d6811f}.M{fill:#ffbaba}.N{fill:#fe9a26}.O{fill:#3a3a40}]]></style><path d="M75.762 267.325h31.324c-3.161 6.793-4.938 14.361-4.938 22.347h0c0 29.29 23.744 53.034 53.035 53.034h36.889c-23.718 0-42.945 19.227-42.945 42.945h0c0 23.718 19.227 42.945 42.945 42.945h150.184c23.718 0 42.945-19.227 42.945-42.945h0c0-23.718-19.227-42.945-42.945-42.945h81.892c29.29 0 53.035-23.744 53.035-53.034h0c0-29.29-23.745-53.035-53.035-53.035h-15.12c9.673-9.607 15.666-22.916 15.666-37.627h0c0-29.29-23.744-53.035-53.034-53.035h-30.471c23.718 0 42.945-19.227 42.945-42.945h0c0-23.718-19.227-42.945-42.945-42.945h-64.418-47.121-64.418c-23.718 0-42.945 19.227-42.945 42.945h0c0 23.718 19.227 42.945 42.945 42.945h-20.33c-23.128 0-42.787 14.809-50.04 35.459h-19.1c-23.718 0-42.945 19.227-42.945 42.945h0c0 23.719 19.227 42.946 42.945 42.946z" fill="#d7e9f5" class="B"/><ellipse cx="255" cy="438.779" rx="203.874" ry="16.852" class="F"/><circle transform="matrix(.2307 -.973 .973 .2307 -120.7065 764.8228)" cx="423.343" cy="458.75" r="9.893" class="D"/><path d="M434.613 468.157c0 1.646-4.737 2.98-10.581 2.98s-10.581-1.334-10.581-2.98 4.737-2.98 10.581-2.98 10.581 1.334 10.581 2.98z" opacity=".75" class="F"/><g class="C"><path d="M417.381 466.646c-.375-.806-.615-1.673-.774-2.554a13.28 13.28 0 0 1-.151-2.681 15.54 15.54 0 0 1 1.184-5.228c.634-1.678 1.602-3.246 2.869-4.531a10.71 10.71 0 0 1 2.122-1.654c.781-.439 1.613-.792 2.483-.977-1.682.573-3.164 1.598-4.338 2.887a14.03 14.03 0 0 0-2.69 4.455c-.687 1.61-1.091 3.334-1.262 5.074-.081.872-.077 1.752.016 2.625.077.874.268 1.739.541 2.584zm10.758-16.548c-.756.43-1.472.919-2.119 1.489a13.02 13.02 0 0 0-1.789 1.848c-1.055 1.349-1.933 2.843-2.514 4.454-.61 1.602-.972 3.292-1.181 5.001-.105.855-.161 1.718-.181 2.583l.007 2.602c-.131-.86-.199-1.729-.243-2.601-.028-.872-.013-1.747.048-2.62.125-1.746.482-3.485 1.099-5.135a14.66 14.66 0 0 1 2.681-4.521c1.159-1.323 2.584-2.425 4.192-3.1zm-3.415 18.442c-.155-1.019-.262-2.05-.276-3.086s.017-2.075.178-3.111l-.003.037v-.005-.014l.003-.02c.283-2 .939-3.977 2.065-5.677a10.3 10.3 0 0 1 2.022-2.265 8.71 8.71 0 0 1 2.591-1.531 10.7 10.7 0 0 0-2.404 1.739c-.724.677-1.326 1.457-1.846 2.29-1.032 1.672-1.665 3.57-1.998 5.512l.003-.033v.005.022l-.003.016-.211 1.51-.112 1.53-.009 3.081z"/><path d="M426.888 467.982c-.12-1-.418-1.959-.809-2.872-.193-.458-.413-.904-.653-1.34l-.765-1.282-.03-.051-.001-.058v-.005l.031.11c-.6-.932-1.259-1.824-1.989-2.655l-1.14-1.202c-.393-.391-.832-.727-1.243-1.097a16.44 16.44 0 0 0-2.739-1.867c-.978-.524-2-.973-3.07-1.311a13.35 13.35 0 0 1 3.2 1.055c1.016.489 2.005 1.06 2.882 1.78.892.699 1.731 1.466 2.469 2.328.743.856 1.406 1.778 1.985 2.749l.032.054-.001.056v.005l-.031-.109c.507.875.97 1.785 1.31 2.742s.563 1.963.562 2.97zm3.035-1.846c-.187-.865-.431-1.712-.756-2.529a21.5 21.5 0 0 0-1.085-2.397l-1.316-2.278-.693-1.116-.775-1.052c-.538-.683-1.136-1.315-1.806-1.863s-1.409-1.009-2.181-1.409-1.595-.716-2.43-.992c-.831-.29-1.685-.515-2.539-.744 1.749.254 3.492.665 5.129 1.402.822.363 1.589.837 2.308 1.389.708.561 1.334 1.218 1.895 1.917l.788 1.087.692 1.144c.464.762.896 1.538 1.259 2.352.372.808.707 1.635.976 2.483.253.853.454 1.724.534 2.606zm2.688-3.924c-.49-1.501-1.13-2.94-1.937-4.277a18.62 18.62 0 0 0-2.879-3.664c-1.082-1.115-2.348-2.045-3.678-2.857-.668-.404-1.365-.761-2.083-1.075-.712-.33-1.452-.595-2.205-.833 1.558.276 3.064.839 4.47 1.587s2.713 1.697 3.836 2.839c1.131 1.128 2.108 2.414 2.859 3.82s1.319 2.907 1.617 4.46z"/></g><path d="M427.122 449.608a9.87 9.87 0 0 1 3.549 7.587c0 5.464-4.429 9.893-9.893 9.893a9.86 9.86 0 0 1-3.779-.751 9.85 9.85 0 0 0 6.344 2.306c5.464 0 9.893-4.429 9.893-9.893 0-4.125-2.526-7.657-6.114-9.142z" class="B D"/><ellipse cx="89.613" cy="434.078" rx="68.242" ry="4.701" class="F"/><path d="M30.74 294.519h71.562v7.711H30.74zm0 131.848h71.562v7.711H30.74z" class="H"/><path d="M58.931 302.231h15.18v124.136h-15.18zm51.828 45.417h15.18V382.9h-15.18z" class="G"/><path d="M87.881 382.9h60.502v51.178H87.881z" class="H"/><g class="B H"><circle transform="matrix(.2279 -.9737 .9737 .2279 -306.5308 430.3996)" cx="118.132" cy="408.489" r="18.541"/></g><path d="M37.083 302.23h.759v76.442h-.759z" class="G"/><path d="M42.043 382.9a4.58 4.58 0 1 1-9.162 0 4.58 4.58 0 1 1 9.162 0z" class="I"/><path d="M46.57 347.648h101.813v7.711H46.57z" class="H"/><g class="B G"><path d="M58.931 302.231h15.18v3.856h-15.18z"/></g><g class="B G"><path d="M58.931 355.36h15.18v3.856h-15.18z"/></g><g class="B G"><path d="M110.542 355.36h15.18v3.856h-15.18z"/></g><g class="B H"><path d="M83.978 426.367h3.903v7.711h-3.903z"/></g><path d="M275.589 270.747s-4.206 2.265-5.918 5.765c5.199.624 9.284.133 15.52-.127 2.885-.12 4.086-.971 2.689-3.494-.013-.019-.026-.045-.039-.064-1.21-2.098-5.419-1.546-7.832-1.688-1.46-.089-2.997-.096-4.42-.392z" fill="#e0e0e0"/><path d="M274.068 263.697c-2.304 4.649-.24 6.654 1.483 7.042l.038.008s-4.206 2.265-5.918 5.765l-1.583-.193c-1.415-.18-2.992-.431-3.372-2.381a3.79 3.79 0 0 1 .019-1.474c.077-.386-.231-7.92-.083-8.286l9.416-.481z" class="K"/><path d="M45.033 38.369h153.493v181.993H45.033z" class="E"/><path d="M50.746 43.561h67.461v81.889H50.746zm75.065 0h67.461v81.889h-67.461zm-75.065 89.688h67.461v81.889H50.746zm75.065 0h67.461v81.889h-67.461z" class="F"/><path d="M75.128 125.45H62.392l38-81.889h12.736zm-16.038 0h-3.265l38-81.889h3.265zm91.103 89.689h-12.736l38-81.89h12.736zm-16.037 0h-3.266l38-81.89h3.266z" fill="#eff6f9"/><g class="E"><path d="M358.717 357.279h6.149v57.298h-6.149z"/><path d="M326.505 417.017h-6.094c0-4.928 1.405-8.799 4.175-11.505 5.722-5.589 16.203-5.341 28.34-5.057l8.867.138v6.094c-3.106 0-6.107-.071-9.01-.139-10.759-.254-20.051-.472-23.938 3.324-1.575 1.536-2.34 3.874-2.34 7.145z"/><path d="M403.173 417.017h-6.094c0-3.271-.765-5.608-2.339-7.146-3.886-3.796-13.178-3.577-23.938-3.324l-9.01.139v-6.094c3.034 0 5.999-.07 8.867-.138 12.134-.285 22.617-.532 28.34 5.057 2.77 2.706 4.174 6.577 4.174 11.506z"/></g><g class="J"><circle transform="matrix(.2385 -.9711 .9711 .2385 -164.2269 636.0363)" cx="323.457" cy="422.738" r="9.033"/><circle transform="matrix(.2289 -.9735 .9735 .2289 -102.967 715.4933)" cx="400.126" cy="422.738" r="9.033"/><path d="M364.147 431.771h-4.711a2.16 2.16 0 0 1-2.161-2.161v-13.744a2.16 2.16 0 0 1 2.161-2.161h4.711a2.16 2.16 0 0 1 2.161 2.161v13.744a2.16 2.16 0 0 1-2.161 2.161z"/></g><g class="C"><use xlink:href="#B"/><use xlink:href="#B" x="76.669"/></g><path d="M317.739 259.898c-1.984.271-4.071-.336-5.6-1.63-2.922-2.473-4.624-6.859-8.226-8.155-.568-.205-1.269-.349-1.723.05-.586.515-.284 1.495.2 2.108.461.583 1.042 1.062 1.518 1.632s.857 1.281.797 2.023-.699 1.462-1.44 1.394c-4.053-.37-8.37.806-12.238-.458-.791-.258-1.629-.566-2.432-.35-.906.244-1.535 1.14-1.669 2.069s.152 1.873.579 2.709c1.429 2.793 4.294 4.516 7.073 5.97 3.274 1.713 6.804 3.298 10.495 3.125 4.22-.197 8.157-2.681 12.376-2.459" fill="#d99384"/><path d="M387.813 210.367c-1.606-4.709 1.621-9.683 6.564-10.248 3.896-.445 7.715-.216 10.57 1.689 4.299 2.869 6.321 8.076 7.795 13.03 3.201 10.761-27.118 55.167-36.305 61.62-8.333 5.852-18.868 7.668-29.049 7.859-5.225.098-10.24-.035-15.259-.136-8.525-.172-15.465-6.939-15.8-15.459-.15-3.804-.171-7.613-.063-11.419.019-.668.574-1.192 1.243-1.183 14.377.191 29.402-2.012 43.233-6.355 3.556-1.115 30.487-29.38 27.071-39.398z" fill="#b46c1a"/><path d="M402.83 187.719c-1.172-4.049-2.101-8.358-2.875-12.578-.339-1.85.098-3.76 1.217-5.271 3.287-4.438 5.637-9.632 5.81-15.117.151-4.778-1.595-9.755-5.033-13.134-3.904-3.837-10.038-4.585-15.316-3.995-4.66.521-9.253 2.575-12.291 6.22-2.9 3.479-4.229 7.997-4.827 12.363-.748 5.458-1.07 11.041-.36 16.521.318 2.453.92 5.022 2.655 6.784 2.025 2.057 5.517 2.548 8.253 1.951 2.883-.629 5.304-2.18 7.819-3.724l-1.174 10.086 16.122-.106z" class="M"/><path d="M403.749 331.921h-83.575a6.93 6.93 0 0 0-6.928 6.929v12.742h97.432V338.85a6.93 6.93 0 0 0-6.929-6.929z" class="D"/><path d="M413.654 357.279H310.268a1.32 1.32 0 0 1-1.321-1.322v-3.043a1.32 1.32 0 0 1 1.321-1.322h103.387c.73 0 1.322.592 1.322 1.322v3.043c-.001.73-.593 1.322-1.323 1.322z" class="J"/><path d="M410.677 338.504c0-3.635-2.947-6.582-6.582-6.582h-84.268c-3.635 0-6.582 2.947-6.582 6.582v.973h97.433v-.973z" class="B D"/><path d="M253.402 415.037l42.486-2.934h.012l-.061 1.125a.99.99 0 0 1-.919.932l-40.369 2.794c-.502.03-.98-.345-1.046-.847l-.103-1.07z" fill="#b4bed1"/><path d="M295.906 405.746c.151 2.093.097 4.24-.006 6.357h-.012l-42.486 2.934c-.03-.726.03-1.458.29-2.178.151-.429.387-.841.708-1.167 1.567-1.627 3.811-.671 5.825-.756 1.712-.073 3.278-.913 4.766-1.754 4.839-2.746 9.533-5.758 14.051-9.019.508-.369 1.216-.339 1.663.097.248.248.454.544.605.841.127.248.236.508.351.762v.006c.175.411.351.817.617 1.173.605.835 1.597 1.319 2.589 1.591 2.377.659 5.02.218 7.101-1.095.278-.169.55-.363.805-.569.702-.563 1.736-.526 2.329.151.115.127.212.272.296.411.369.673.454 1.453.508 2.215z" class="C"/><path d="M296.837 390.008v.006c-1.488 4.555-3.115 9.067-4.869 13.525-2.081 1.313-4.724 1.754-7.101 1.095-.992-.272-1.984-.756-2.589-1.591-.266-.357-.441-.762-.617-1.173v-.006c.133-4.609.46-9.206.98-13.785l14.196 1.929z" fill="#d99384"/><path d="M298.707 389.439a1.03 1.03 0 0 1-1.095.677l-.774-.103v-.006l-14.196-1.93-.659-.091c-.563-.079-.956-.599-.865-1.167l8.753-56.296c1.252-7.942 2.801-16.465 8.559-22.078 4.391-4.289 10.537-6.152 16.428-7.869l10.044-2.926a186.66 186.66 0 0 1 53.923-7.452l31.773.289c-.079 4.476-.163 8.982-.998 13.38s-2.474 8.728-5.347 12.158c-5.631 6.714-14.934 8.922-23.626 10.035-16.338 2.093-32.542 1.948-48.964 1.421-2.274-.073-4.325 1.397-4.966 3.587-5.979 20.452-21.016 38.181-27.99 58.371z" fill="#bd375b"/><path d="M410.596 290.488c.49 4.452.968 8.499.702 12.969-.272 4.464-1.343 8.97-3.756 12.739-4.73 7.379-13.67 10.755-22.15 12.969-15.938 4.161-32.028 6.085-48.384 7.652a5.01 5.01 0 0 0-4.47 4.192c-3.321 21.074-16.005 40.599-20.33 61.54-.091.429-.466.738-.907.732l-.593-.006-14.771-.103-.587-.006c-.514-.006-.925-.429-.913-.944l1.506-57.058c.236-8.033.684-16.688 5.674-22.985 1.778-2.25 10.198-8.317 19.852-14.662 17.42-11.456 37.847-17.493 58.697-17.299l30.43.27z" class="I"/><path d="M312.358 427.903c.036.502-.314.956-.81 1.052l-40.327 7.809c-.502.097-1.028-.224-1.155-.72l-.236-1.065 42.444-8.22h.006l.078 1.144z" fill="#b4bed1"/><path d="M312.28 426.76h-.006l-42.444 8.22c-.121-.732-.151-1.476.018-2.232.103-.454.29-.895.569-1.264 1.379-1.833 3.756-1.149 5.783-1.482 1.706-.284 3.188-1.325 4.579-2.359a155.87 155.87 0 0 0 13.041-10.827c.466-.43 1.186-.496 1.688-.103.278.212.526.49.714.768l.448.726v.006c.23.393.46.774.768 1.107.714.762 1.772 1.125 2.807 1.282 2.48.363 5.087-.405 7.023-1.978.26-.212.502-.442.738-.677.635-.653 1.682-.744 2.359-.139a2.32 2.32 0 0 1 .351.381c.454.629.641 1.403.792 2.165.409 2.099.615 4.258.772 6.406z" class="C"/><path d="M295.936 403.17l14.771.103c-.986 5.147-2.135 10.271-3.448 15.346l.006.006c-1.936 1.573-4.543 2.341-7.023 1.978-1.034-.157-2.093-.52-2.807-1.282-.309-.333-.538-.714-.768-1.107v-.006a171.3 171.3 0 0 1-.731-15.038z" class="M"/><path d="M397.763 185.149l-16.966 3.354a1.83 1.83 0 0 0-1.445 2.072c1.933 13.311-.305 26.813-4.924 39.296-2.365 6.392-5.507 15.468-8.093 23.055-3.774 11.07-5.55 22.739-5.025 34.423.114 2.528.311 4.878.631 6.75.403 2.363 2.432 4.101 4.83 4.101h30.993V185.149z" class="C"/><path d="M366.802 301.423c-1.72-35.091 15.941-68.624 17.768-103.79.119-2.298.171-4.599.188-6.9a8.6 8.6 0 0 1 6.969-8.391c9.096-1.756 20.795-3.135 28.084-3.096 2.898.015 5.952.318 8.155 2.421 1.063 1.014 1.724 2.423 1.642 3.89-.22 3.975-5.218 4.823-6.543 8.126-.483 1.205-.394 2.564-.744 3.814-.629 2.246-2.633 3.898-4.819 4.711s-4.561.922-6.891 1.021c5.639 12.122 5.194 26.562 4.101 39.886s-3.084 26.792-.89 39.98c.826 4.963 4.849 9.647 4.119 14.624-.381 2.597-1.567 5.343-3.961 6.416-2.246 1.007-14.701.586-17.109.073a36.96 36.96 0 0 0-18.854.936c-1.934.618-3.872 1.406-5.899 1.402-2.78-.004-5.18-2.345-5.316-5.123z" class="N"/><path d="M409.615 354.151l10.162-83.372 4.274.521-10.162 83.372z" class="J"/><path d="M411.048 274.81c-3.766-5.904-4.739-13.162-4.821-20.165-.207-17.587 4.987-35.654 16.666-48.805 3.964-4.463 8.774-8.398 14.483-10.141s12.42-.967 16.852 3.033c3.069 2.77 4.815 6.945 4.633 11.075-.279 6.327-4.691 11.647-9.178 16.116s-9.463 8.908-11.447 14.922c-1.658 5.027-.986 10.497-.115 15.718s1.926 10.555.981 15.764c-.824 4.544-3.838 9.89-8.597 11.237-4.226 1.196-9.728-.291-13.309-2.588-2.459-1.577-4.577-3.704-6.148-6.166z" class="D"/><path d="M418.714 297.51l-2.481 2.27c.591-4.856-1.982-8.975-3.682-10.299-3.488-2.715-11.024-.693-13.632.317l-1.551-4.013c1.194-.46 11.829-4.366 17.826.301 2.976 2.318 4.159 6.161 3.52 11.424z" class="J"/><path d="M397.768 282.367l-80.539 5.657a8.76 8.76 0 0 0-8.27 9.224h0l98.032-6.612h0a8.76 8.76 0 0 0-9.223-8.269z" class="D"/><path d="M407.13 293.169l-98.032 6.611-.138-2.532 98.032-6.611z" class="J"/><path d="M413.649 212.125c-.724-3.063-1.71-6.044-3.037-8.895h-11.966s12.575 3.36 15.003 8.895z" class="L"/><g class="D"><path d="M397.768 282.367l-80.539 5.657c-2.761.151-5.149 1.567-6.643 3.653l94.168-6.42a8.74 8.74 0 0 0-6.986-2.89zm18.695-46.763c4.104-16.639 14.982-31.433 29.44-40.591-2.832-.397-5.794-.148-8.526.686-5.709 1.743-10.52 5.678-14.483 10.141-11.679 13.151-16.873 31.218-16.666 48.805.082 7.002 1.055 14.261 4.821 20.165 1.571 2.462 3.689 4.59 6.147 6.167 1.528.98 3.406 1.81 5.385 2.35-7.703-14.465-10.048-31.792-6.118-47.723z" class="B"/></g><path d="M132.502 440.648h-9.112l14.496-159.93h9.111zm161.415 0h9.111l-14.495-159.93h-9.112z" class="E"/><g class="G"><path d="M371.15 284.859H55.268c-2.287 0-4.142-1.854-4.142-4.142h0c0-2.287 1.854-4.142 4.142-4.142H371.15c2.287 0 4.142 1.854 4.142 4.142h0a4.14 4.14 0 0 1-4.142 4.142z"/><path d="M371.15 276.576H55.268c-1.651 0-3.065.974-3.73 2.372h323.344c-.666-1.399-2.08-2.372-3.732-2.372z" class="B"/></g><g class="E"><path d="M137.53 284.859l-.612 7.144h9.111l.613-7.144zm142.246 0l.613 7.144h9.112l-.613-7.144z" class="B"/><path d="M150.066 274.29v-14.208c0-1.262 1.023-2.286 2.286-2.286h68.798c1.262 0 2.286 1.023 2.286 2.286v14.208c0 1.262-1.023 2.286-2.286 2.286h-68.798c-1.263 0-2.286-1.023-2.286-2.286z"/></g><g class="C"><circle cx="159.291" cy="267.186" r="3.439"/><use xlink:href="#C"/></g><path d="M150.066 255.511v-14.208c0-1.262 1.023-2.286 2.286-2.286h68.798c1.262 0 2.286 1.023 2.286 2.286v14.208c0 1.262-1.023 2.286-2.286 2.286h-68.798c-1.263 0-2.286-1.024-2.286-2.286z" class="L"/><g class="C"><path d="M162.731 248.407a3.44 3.44 0 0 1-3.439 3.439 3.44 3.44 0 0 1-3.439-3.439 3.44 3.44 0 0 1 3.439-3.439 3.44 3.44 0 0 1 3.439 3.439z"/><use xlink:href="#C" y="-18.78"/></g><path d="M221.264 257.797h-69.027a2.17 2.17 0 0 0-2.123 1.72c.208.982 1.079 1.72 2.123 1.72h69.027c1.044 0 1.915-.738 2.123-1.72a2.17 2.17 0 0 0-2.123-1.72z" class="B E"/><path d="M89.16 212.597c6.545 8.691 9.773 19.818 8.895 30.662m6.914-1.719c-3.3-10.771-4.142-22.288-2.443-33.425.694-4.548 1.864-9.163 4.58-12.877" fill="none" stroke="#4b595c" stroke-miterlimit="10"/><path d="M91.806 213.685c-1.01-5.609-2.61-15.894-2.849-17.823-.657-5.314-1.527-10.613-2.938-15.784-1.058-3.876-2.444-7.674-4.22-11.282l-9.461.833c.922-3.312 2.412-6.454 4.339-9.301-1.042-1.31-2.203-2.476-3.533-3.256-2.775-1.628-5.475-2.957-8.715-3.367-6.27-.792-12.43 1.901-15.655 7.427-2.95 5.055-1.697 11.336.727 17.008 1.385 3.241 3.153 6.283 4.737 8.784 3.802 6.001 8.776 10.914 14.307 15.217 1.83-.93 3.684-1.812 5.584-2.587l-.803 6.078c5.152 3.543 10.612 6.708 15.974 9.801 1.246.719 2.761-.334 2.506-1.748z" fill="#6d8585"/><path d="M91.151 215.33c-2.954-4.151-5.754-8.396-8.53-12.656-2.792-4.25-5.474-8.568-8.155-12.887l-7.829-13.088-3.799-6.615-3.65-6.706c1.491 2.066 2.892 4.189 4.34 6.282l4.192 6.373c2.791 4.251 5.473 8.569 8.153 12.888l7.826 13.089c2.551 4.399 5.078 8.812 7.452 13.32z" fill="#4b595c"/><path d="M105.696 196.411a403.18 403.18 0 0 0 1.958-12.246c.452-3.651 1.049-7.292 2.019-10.845.727-2.663 1.68-5.273 2.899-7.752l6.5.573c-.633-2.276-1.658-4.434-2.982-6.39.716-.9 1.514-1.701 2.427-2.237 1.906-1.119 3.762-2.032 5.988-2.313 4.308-.544 8.541 1.306 10.756 5.103 2.027 3.473 1.166 7.789-.5 11.686-.952 2.227-2.166 4.317-3.255 6.035-2.613 4.123-6.03 7.499-9.831 10.455a51.07 51.07 0 0 0-3.837-1.778l.552 4.176c-3.54 2.435-7.291 4.609-10.976 6.734-.852.494-1.893-.23-1.718-1.201z" fill="#6d8585"/><path d="M106.147 197.541c2.03-2.852 3.953-5.769 5.861-8.696 1.919-2.92 3.761-5.887 5.604-8.854l5.379-8.992 2.61-4.545 2.508-4.608c-1.025 1.42-1.987 2.878-2.982 4.316l-2.88 4.379c-1.918 2.921-3.761 5.887-5.602 8.855l-5.377 8.993c-1.754 3.022-3.491 6.055-5.121 9.152z" fill="#4b595c"/><path d="M100.846 276.576h0c-10.474 0-18.964-8.491-18.964-18.964v-18.964h37.929v18.964a18.97 18.97 0 0 1-18.965 18.964z" fill="#7f5144"/><path d="M119.631 245.625H82.06a5.37 5.37 0 0 1-5.367-5.367h0a5.37 5.37 0 0 1 5.367-5.367h37.571a5.37 5.37 0 0 1 5.367 5.367h0c.001 2.964-2.402 5.367-5.367 5.367z" fill="#593930"/><path d="M119.631 245.625H82.06c-.06 0-.119-.007-.179-.009v3.757l.179.009h37.571c.06 0 .119-.007.179-.009v-3.757l-.179.009z" fill="#7f5144" class="B"/><circle cx="399.622" cy="83.808" r="32.838" class="E"/><circle cx="399.622" cy="83.808" r="28.154" class="C"/><g class="E"><circle cx="399.622" cy="83.808" r="3.042"/><path d="M399.622 84.52a.66.66 0 0 1-.117-.01l-18.249-3.041c-.388-.065-.651-.432-.586-.82a.71.71 0 0 1 .82-.586l17.925 2.987 15.717-13.222a.71.71 0 0 1 1.004.087c.253.301.214.751-.087 1.004L400.08 84.353a.71.71 0 0 1-.458.167z"/></g><path d="M388.956 160.637c-.693.157-2.151.008-2.482-.621s-.39-1.359-.5-2.061c-.727-4.66-3.357-9.165-7.777-10.809-2.054-.764-4.415.067-5.697-1.71-.694-.962-1.436-4.888-1.357-6.071.19-2.84 2.498-3.912 4.879-5.471s5.236-2.24 8.066-2.543c6.046-.647 12.26.342 17.807 2.835 3.499 1.573 6.838 3.844 8.78 7.153 1.69 2.881 2.188 6.331 2.044 9.668-.169 3.926-1.223 7.89-3.522 11.077s-5.937 5.514-9.861 5.723c-1.342.071-2.888-.218-3.576-1.372-.534-.896-.372-2.056.055-3.007s1.087-1.779 1.57-2.703c.824-1.577 1.097-3.483.522-5.167s-2.067-3.079-3.83-3.326c-1.939-.271-4.085.991-4.245 2.998-.109 1.334 1.182 4.941-.876 5.407z" class="D"/><path d="M241.505 277.652c-.132.643.435 1.21.993 1.557 2.202 1.371 4.937 1.468 7.53 1.526l30.561.673c6.273.138 12.565.276 18.806-.37 3.694-.382 7.395-1.048 10.819-2.487.834-.35 1.746-.862 1.932-1.748.016-.077.017-.153.02-.229h-69.495c-.507.226-1.056.539-1.166 1.078z" opacity=".2" class="O"/><use xlink:href="#D" class="I"/><path d="M304.578 199.732c-.495 1.139-.09 2.477.984 3.101 1.261.727 2.934 1.924 4.092 2.857.013-.045.032-.084.045-.129a27.62 27.62 0 0 0 1.133-13.319c-.071-.425-.174-.875-.393-1.235-2.464 2.516-4.465 5.495-5.861 8.725zm-26.915 5.952c1.441-.759 3.365-2.123 4.626-2.85 1.075-.624 1.48-1.963.984-3.101a28.89 28.89 0 0 0-5.855-8.725c-.219.36-.322.811-.392 1.235-.727 4.485-.869 9.156.631 13.448z" fill="#85858d"/><path d="M295.879 267.929l1.448 5.096c.328 1.042.695 2.117 1.454 2.908 1.338 1.39 3.481 1.531 5.411 1.583.785.019 1.596.039 2.329-.245.733-.29 1.377-.952 1.39-1.737.013-1.203-1.287-1.905-2.239-2.638-2.368-1.827-3.127-4.999-3.488-7.998a12.6 12.6 0 0 0-6.305 3.031zm-15.919 1.886c.959 2.522 2.239 4.909 3.861 7.046 1.506 1.988 4.009 2.94 6.447 2.413l.058-.013c.869-.193 1.641-.759 1.982-1.576.508-1.223-.193-2.078-.804-2.908-1.274-1.724-2.201-3.487-2.87-5.34a11.12 11.12 0 0 0-4.671-.689c-1.39.095-2.748.468-4.003 1.067zm-15.296.905s-4.207 2.265-5.918 5.765c5.199.624 9.284.133 15.52-.127 2.885-.12 4.086-.972 2.69-3.494-.013-.019-.026-.045-.039-.064-1.21-2.098-5.419-1.546-7.832-1.687-1.461-.09-2.999-.097-4.421-.393zm-13.272-78.259c-1.133 1.454-.946 3.526.399 4.781 2.677 2.496 4.729 5.656 5.147 9.246 6.151.927 7.792-2.702 7.792-2.702a16.3 16.3 0 0 0-.611-3.018c-1.293-4.298-4.646-8.049-8.834-9.504-.36-.122-.734-.187-1.1-.187a3.57 3.57 0 0 0-2.793 1.384zm29.643 27.397c-.019.798.129 1.589.418 2.336l.734.579c.618.47 1.267.894 1.956 1.28l.495.264c.019.013.032.019.052.026l.585.29.18.084.689.302.779.302c.013.006.026.006.032.013l.753.251 1.757.457.489.097 1.184.187.734.084c.039.006.077.006.109.006l.824.058h.026l.888.019.167-.006.656-.013.65-.039.489-.039.586-.064.836-.122.618-.116.534-.109.238-.058.927-.251.779-.251.489-.174 1.12-.457.483-.225 1.107-.579a16.37 16.37 0 0 0 3.166-2.316 5.95 5.95 0 0 0 .244-1.814c-.045-1.467-.695-2.921-1.827-3.854-1.409-1.171-3.397-1.448-4.826-2.6-.772-.624-1.332-1.473-1.898-2.297-.56-.817-1.165-1.57-1.879-2.265-.373-.367-.875-.772-2.458-.772-1.576 0-2.078.405-2.458.772-.714.695-1.313 1.448-1.872 2.265-.566.824-1.126 1.673-1.905 2.297-1.422 1.152-3.41 1.428-4.826 2.6-1.129.931-1.779 2.385-1.824 3.852zm6.582 34.759l-.798 3.397.039.83a43.1 43.1 0 0 0 6.576-4.768c3.899-3.43 6.434-6.936 7.625-9.214a24.58 24.58 0 0 0 .984-2.098c1.911-4.549 3.7-9.941 2.155-16.215-2.818 1.126-6.138 2.226-9.838 2.226-.206 0-.418 0-.624-.006.154 11.041-2.677 17.257-4.485 21.117a24.72 24.72 0 0 0-1.634 4.731z" class="C"/><path d="M304.977 216.004c1.133.933 1.782 2.387 1.827 3.854a5.98 5.98 0 0 1-.244 1.814c2.87-2.651 4.62-6.203 4.62-10.102 0-2.136-.528-4.169-1.48-6.01-.013.045-.032.084-.045.129-1.158-.933-2.831-2.13-4.092-2.857-1.075-.624-1.48-1.963-.984-3.101a28.89 28.89 0 0 1 5.862-8.725c-.129-.206-.296-.386-.515-.502-.74-.393-1.628.103-2.297.611-2.123 1.596-4.954 4.453-6.898 6.795-2.143-.817-4.517-1.261-7.013-1.261-2.323 0-4.543.386-6.57 1.094-2.027-2.323-4.922-5.122-6.917-6.627-.669-.508-1.557-1.004-2.297-.611-.219.116-.386.296-.515.502a28.89 28.89 0 0 1 5.855 8.725c.495 1.139.09 2.477-.984 3.101-1.261.727-3.185 2.091-4.626 2.85-.913 1.815-1.415 3.803-1.415 5.888 0 2.78.888 5.379 2.445 7.612.052.077.109.154.167.232.09.135.187.257.29.386.148.193.302.386.463.573a12.72 12.72 0 0 0 .296.341 16.51 16.51 0 0 0 .753.766 7.85 7.85 0 0 0 .251.238l.54.476a6.05 6.05 0 0 1-.418-2.336c.045-1.467.695-2.921 1.821-3.854 1.416-1.171 3.404-1.448 4.826-2.6.779-.624 1.338-1.473 1.905-2.297.56-.817 1.158-1.57 1.872-2.265.38-.367.882-.772 2.458-.772 1.583 0 2.085.405 2.458.772.714.695 1.319 1.448 1.879 2.265.566.824 1.126 1.673 1.898 2.297 1.427 1.152 3.415 1.428 4.824 2.599z" class="O"/><path d="M293.434 254.076v.006a93.51 93.51 0 0 0 2.445 13.847c1.757-1.583 3.976-2.638 6.306-3.03l-.058-.547c-.759-7.161-.56-14.394-.084-21.587-.296.714-.624 1.416-.984 2.098-1.191 2.277-3.726 5.784-7.625 9.213z" class="K"/><path d="M278.011 262.415c.392 2.529 1.036 5.025 1.95 7.4 1.255-.598 2.612-.972 4.002-1.068a11.12 11.12 0 0 1 4.671.689c-1.165-3.179-1.583-6.615-1.776-10.591l-.039-.83.798-3.397c.38-1.628.933-3.211 1.634-4.729 1.808-3.861 4.639-10.076 4.485-21.117-7.644-.154-14.04-3.114-16.125-7.142-.212.167-.431.302-.643.412-10.179 5.424-18.853 13.634-24.721 23.563-2.027-2.342-2.825-5.772-2.4-8.899.534-3.964 3.069-7.097 5.469-10.295 2.4-3.204 4.723-6.64 6.666-10.141 2.091-3.783 3.211-8.217 2.747-12.483 0 0-1.641 3.629-7.792 2.702.47 4.009-1.145 7.998-3.294 11.421-2.143 3.423-4.839 6.486-6.898 9.967-4.144 7.02-5.463 15.668-3.603 23.608 1.609 6.84 5.566 15.37 11.003 19.816-.148.367-.257.753-.335 1.139a3.77 3.77 0 0 0-.019 1.474c.38 1.95 1.956 2.201 3.371 2.381l1.583.193c1.711-3.5 5.918-5.765 5.918-5.765-.013-.003-.025-.005-.038-.008-1.724-.388-2.62-2.303-1.925-3.927.003-.007.006-.013.009-.02.27-.643 1.12-.74 1.814-.824.666-.083 1.319-.249 1.941-.498l.035-.01c4.305-.779 8.12-1.808 11.504-3.018h.008z" class="O"/><circle cx="300.817" cy="207.884" r="1.356"/><circle cx="286.611" cy="207.884" r="1.356"/><g fill="#515159"><path d="M293.714 217.677a.32.32 0 0 0 .321-.314l.066-2.588c.004-.178-.136-.326-.314-.33-.167-.002-.325.136-.33.314l-.066 2.588c-.004.178.136.326.314.33z"/><path d="M296.145 219.995a2.74 2.74 0 0 0 2.731-2.618c.008-.178-.13-.327-.308-.336s-.328.131-.335.308a2.1 2.1 0 0 1-2.179 2c-1.152-.049-2.049-1.027-2-2.179 0-.186-.135-.328-.308-.336-.175.014-.328.13-.335.308-.05 1.151-1.029 2.055-2.179 2-1.152-.049-2.049-1.027-2-2.179.008-.178-.13-.327-.308-.336-.174.009-.328.13-.335.308a2.74 2.74 0 0 0 2.615 2.85c1.044.042 1.976-.505 2.473-1.345a2.74 2.74 0 0 0 2.349 1.551l.119.004z"/></g><path d="M294.471 214.452l1.362-1.759c.365-.472.127-1.169-.454-1.304a6.22 6.22 0 0 0-2.999.046c-.555.146-.791.81-.456 1.277l1.228 1.716c.32.447.982.459 1.319.024z" fill="#f4af85"/><g class="K"><path d="M302.043 242.765l-.984 2.098c-1.19 2.278-3.725 5.785-7.625 9.214v.006c.196 1.967.467 3.906.783 5.835a289.43 289.43 0 0 0 7.443-9.068c.066-2.697.205-5.394.383-8.085z" class="B"/><path d="M276.826 247s-3.092 12.014-5.597 17.417l6.776-2.002h.006s-1.967-7.522-1.185-15.415zm-26.177 5.714c-.172-3.643 1.598-7.112 1.598-7.112-.984-1.138-1.673-2.534-2.079-4.025-2.206 5.728.481 11.137.481 11.137z"/></g><use xlink:href="#D" class="I"/><path d="M304.198 226.55c-2.818 1.126-6.138 2.226-9.838 2.226-.206 0-.418 0-.624-.006-7.644-.155-14.04-3.114-16.125-7.142-.212.167-.431.302-.643.412-.307.163-.608.338-.912.506 2.628 4.236 9.49 7.311 17.676 7.572l.407.018c.235.007.478.007.713.007 3.561 0 6.81-.895 9.672-1.945-.086-.543-.188-1.091-.326-1.648z" opacity=".4" class="K"/><path d="M295.934 231.989l.566-.307c-.236-.436-.367-.996-.367-1.577 0-1.245.589-2.297 1.287-2.297s1.287 1.052 1.287 2.297c0 .53-.11 1.053-.31 1.47l.581.278c.243-.51.372-1.114.372-1.747 0-1.649-.848-2.941-1.93-2.941s-1.93 1.292-1.93 2.941c-.001.685.157 1.354.444 1.883z" fill="#ad6919"/><circle cx="297.536" cy="234.066" r="2.62" class="N"/><path d="M320.505 242.169a7.56 7.56 0 0 1-4.654-3.893c-1.751-3.577-1.539-8.467-4.429-11.208-.456-.432-1.063-.863-1.662-.673-.774.246-.896 1.306-.691 2.092.195.749.549 1.447.764 2.19s.28 1.579-.086 2.26-1.277 1.101-1.955.727c-3.707-2.047-8.311-2.73-11.469-5.551-.645-.576-1.315-1.22-2.171-1.35-.965-.146-1.939.445-2.455 1.274s-.638 1.848-.58 2.823c.195 3.258 2.204 6.097 4.244 8.644 2.403 3.001 5.104 5.986 8.693 7.364 4.103 1.576 8.892.855 12.819 2.83" class="M"/><path d="M385.813 214.546c.438-5.158 5.591-8.548 10.537-7.02 3.898 1.204 7.441 3.019 9.365 6.027 2.897 4.53 2.647 10.336 1.98 15.672-1.447 11.59-4.47 23.193-10.715 33.064s-16.022 17.883-27.472 20.191c-10.385 2.093-21.182-.58-30.961-4.653-5.02-2.09-9.742-4.313-14.481-6.507-8.05-3.727-11.834-13.075-8.593-21.332a175.69 175.69 0 0 1 4.712-10.906 1.27 1.27 0 0 1 1.678-.608c13.618 6.191 28.854 10.371 43.847 12.015 3.855.423 7.623-1.419 9.662-4.718 5.794-9.372 9.508-20.253 10.441-31.225z" class="L"/><ellipse cx="177.005" cy="468.158" rx="29.631" ry="7.323" class="F"/><path d="M177.005 448.208c-11.759 0-21.291.99-21.291 2.211s9.533 2.211 21.291 2.211 21.291-.99 21.291-2.211-9.533-2.211-21.291-2.211z" class="L"/><path d="M192.09 449.176c-.681-.143-1.468-.309-1.79-.926-.254-.488-.115-1.093-.281-1.618-.237-.749-1.053-1.178-1.835-1.259s-1.563.104-2.345.176-1.634.009-2.246-.484c-.814-.657-1.145-2.009-2.184-2.139-.562-.07-1.117.284-1.677.193-.743-.12-1.127-.921-1.59-1.514-1.063-1.361-3.126-1.821-4.666-1.04-1.517.769-2.421 2.507-4.019 3.089-.942.343-2.067.257-2.844.89-.604.492-.845 1.307-1.378 1.876-1.373 1.465-4.199.891-5.309 2.565-.658.992-.337 2.397.451 3.289s1.935 1.374 3.064 1.751c7.371 2.466 15.387 1.65 23.109.765 1.781-.204 3.568-.411 5.31-.839.874-.214 1.802-.531 2.308-1.275.967-1.418-.761-3.223-2.078-3.5z" fill="#843a12"/><g class="N"><path d="M198.296 450.419c0 1.221-9.533 2.211-21.291 2.211s-21.291-.99-21.291-2.211l-5.547 13.437c-.751 1.818.341 3.886 2.274 4.251 4.765.9 13.979 1.509 24.564 1.509s19.799-.609 24.564-1.509c1.933-.365 3.025-2.432 2.274-4.251l-5.547-13.437z"/><path d="M203.843 463.856l-5.547-13.437c0 .383-.94.743-2.592 1.058l3.717 9.006c.751 1.818-.341 3.886-2.274 4.251-4.765.899-13.979 1.509-24.564 1.509-9.304 0-17.545-.471-22.64-1.196-.002 1.44.981 2.775 2.497 3.061 4.765.899 13.979 1.509 24.564 1.509s19.799-.61 24.564-1.509c1.934-.366 3.025-2.433 2.275-4.252z" class="B"/></g><path d="M193.12 449.651c-3.904.47-9.669.768-16.115.768-7.143 0-13.449-.366-17.311-.927-.236.727-.083 1.563.317 2.255 3.886.535 10.041.883 16.995.883 7.219 0 13.587-.374 17.437-.944-.046-.782-.631-1.551-1.323-2.035z" fill="#843a12" class="B"/><ellipse cx="249.414" cy="468.158" rx="29.631" ry="7.323" class="F"/><path d="M249.406 448.208c-11.759 0-21.292.99-21.292 2.211s9.533 2.211 21.292 2.211 21.291-.99 21.291-2.211-9.532-2.211-21.291-2.211z" fill="#bd375b"/><g class="I"><path d="M270.697 450.419c0 1.221-9.533 2.211-21.291 2.211s-21.292-.99-21.292-2.211l-5.546 13.437c-.751 1.818.341 3.886 2.274 4.251 4.765.9 13.979 1.509 24.564 1.509s19.799-.609 24.564-1.509c1.933-.365 3.025-2.432 2.274-4.251l-5.547-13.437z"/><path d="M276.244 463.856l-5.547-13.437c0 .383-.94.743-2.592 1.058l3.717 9.006c.751 1.818-.341 3.886-2.274 4.251-4.765.899-13.979 1.509-24.564 1.509-9.304 0-17.545-.471-22.64-1.196-.002 1.44.981 2.775 2.497 3.061 4.765.899 13.979 1.509 24.564 1.509s19.8-.61 24.564-1.509c1.934-.366 3.026-2.433 2.275-4.252z" class="B"/></g><path d="M230.27 451.383c3.453.737 10.712 1.246 19.136 1.246s15.683-.509 19.136-1.246c-3.453-.737-10.712-1.246-19.136-1.246s-15.684.509-19.136 1.246z" fill="#8fd6ff"/><defs ><path id="B" d="M328.094 422.738a4.64 4.64 0 0 1-4.637 4.637 4.64 4.64 0 0 1-4.637-4.637 4.64 4.64 0 0 1 4.637-4.637 4.64 4.64 0 0 1 4.637 4.637z"/><path id="C" d="M212.681 270.626h-28.387a3.44 3.44 0 0 1-3.439-3.439h0a3.44 3.44 0 0 1 3.439-3.439h28.387a3.44 3.44 0 0 1 3.439 3.439h0a3.44 3.44 0 0 1-3.439 3.439z"/><path id="D" d="M278.693 219.183a3.92 3.92 0 0 1-.09.869c-.006.045-.019.09-.032.135-.051.199-.122.38-.206.54l-.122.219c-.019.032-.039.058-.058.084-.051.077-.109.148-.167.212-.064.077-.129.148-.199.206a1.46 1.46 0 0 1-.187.167c-.006 0-.013.007-.019.013 2.085 4.028 8.48 6.988 16.125 7.142.206.006.418.006.624.006 3.7 0 7.02-1.1 9.838-2.226-.019-.077-.032-.148-.051-.219a25.49 25.49 0 0 0-.495-1.647c-.071-.212-.161-.438-.257-.695a16.11 16.11 0 0 1-1.107.579c-.161.084-.322.154-.483.225a17.39 17.39 0 0 1-1.12.457c-.161.064-.322.122-.489.174a13.65 13.65 0 0 1-.779.251 18.97 18.97 0 0 1-.927.251l-.238.058a12.29 12.29 0 0 1-.534.109c-.206.045-.412.084-.618.116a30.53 30.53 0 0 1-.836.122c-.193.026-.386.045-.586.064a6.45 6.45 0 0 1-.489.039 11.4 11.4 0 0 1-.65.039l-.656.013c-.058.006-.109.006-.167.006-.296 0-.592-.006-.888-.019h-.026a16.99 16.99 0 0 1-.824-.058c-.032 0-.071 0-.109-.006a9.16 9.16 0 0 1-.734-.084 14.29 14.29 0 0 1-1.184-.187c-.167-.026-.328-.058-.489-.097a17.61 17.61 0 0 1-1.757-.457 17.03 17.03 0 0 1-.753-.251c-.006-.007-.019-.007-.032-.013-.264-.096-.521-.193-.779-.302a13.18 13.18 0 0 1-.689-.302c-.058-.026-.116-.051-.18-.084a9.93 9.93 0 0 1-.585-.29.23.23 0 0 1-.052-.026c-.167-.084-.335-.174-.495-.264-.689-.386-1.338-.811-1.956-1.28a10.24 10.24 0 0 1-.734-.579c-.18-.154-.36-.315-.54-.476a7.85 7.85 0 0 1-.251-.238c-.257-.245-.508-.502-.753-.766-.103-.109-.2-.225-.296-.341-.161-.187-.315-.38-.463-.573a8.1 8.1 0 0 1-.29-.386c-.057-.076-.115-.153-.166-.23z"/></defs></svg>